<?xml version="1.0" standalone="no"?>
<!DOCTYPE svg PUBLIC "-//W3C//DTD SVG 1.1//EN" "http://www.w3.org/Graphics/SVG/1.1/DTD/svg11.dtd" >
<svg>
<metadata>
Created by FontForge 20120731 at Wed May  8 14:23:44 2019
 By www-data
Converted by ALLTYPE
</metadata>
<defs>
<font id="Viking-Normal" horiz-adv-x="491" >
  <font-face 
    font-family="Viking-Normal"
    font-weight="5"
    font-stretch="normal"
    units-per-em="1000"
    panose-1="0 0 0 0 0 0 0 0 0 0"
    ascent="800"
    descent="-200"
    x-height="730"
    cap-height="970"
    bbox="-154 -273.111 1522 1026"
    underline-thickness="50"
    underline-position="-55"
    unicode-range="U+0020-F002"
  />
<missing-glyph 
 />
    <glyph glyph-name=".notdef" 
 />
    <glyph glyph-name="glyph1" horiz-adv-x="0" 
 />
    <glyph glyph-name="glyph2" 
 />
    <glyph glyph-name="space" unicode=" " 
 />
    <glyph glyph-name="space" unicode="&#xa0;" 
 />
    <glyph glyph-name="exclam" unicode="!" horiz-adv-x="249" 
d="M152 166l-1 3l53 -57q1 -2 2.5 -3.5l3.5 -3.5v0v0q5 -5 9 -9.5t5 -7.5q0 -3 -2.5 -7t-6.5 -9q-2 -2 -4 -3.5t-4 -3.5q-1 -2 -2.5 -3t-2.5 -2l-62 -52q-1 -2 -1.5 -2.5l-1.5 -1.5q-1 0 -1.5 -0.5l-1.5 -1.5l-6 -4t-6 -2q-2 0 -4 1t-4 3q-1 0 -2 1l-2 2q-2 1 -3 2.5t-2 2.5
l-56 58q-1 0 -2.5 1.5l-2.5 2.5q-6 5 -10 11t-4 12v2v2l0.5 1t0.5 2q1 2 7 7.5t13 12.5q1 1 1.5 1t1.5 1q2 2 5 4.5t5 4.5l42 37q1 0 1.5 0.5t1.5 0.5q2 2 4 3.5t4 3.5q4 3 8 4.5t7 1.5v0h1v0v0q2 0 4.5 -2t5.5 -4q1 -2 2.5 -3.5t2.5 -3.5l2 -2l2 -2v1zM114 209l1 -2
q-5 -1 -7.5 48t-4.5 115q-1 17 -1.5 34t-1.5 34q-1 32 -2 63t-3 58q-1 18 -2.5 37.5t-2.5 39.5q0 3 -0.5 7t-0.5 8q-3 56 -6 107t-3 76v10.5t1 6.5q1 5 14 15t28 21l1.5 1.5t1.5 0.5q6 4 11.5 8t10.5 8l8 6t9 6q12 10 23.5 18t16.5 7q1 0 1.5 -3t0.5 -9q0 -18 -3.5 -60.5
t-8.5 -92.5q0 -8 -1 -16.5t-2 -17.5q-2 -27 -4 -53.5t-3 -50.5q-2 -42 -4 -76t-4 -67t-4 -67.5t-4 -76.5q-3 -10 -6 -18l-6 -16q0 -2 -1 -3.5t-1 -3.5q-3 -9 -6.5 -18t-7.5 -19q-2 -5 -4 -11t-3 -12q-1 -4 -2.5 -8t-2.5 -8q-3 -11 -6.5 -19t-8.5 -8v1z" />
    <glyph glyph-name="quotedbl" unicode="&#x22;" horiz-adv-x="349" 
d="M77 763l87 21l-49 -242l-80 -43l42 264v0zM230 763l87 21l-49 -242l-80 -43l42 264v0z" />
    <glyph glyph-name="numbersign" unicode="#" horiz-adv-x="576" 
d="M520 241h-116l-32 -230h-62l32 231h-138l-34 -231h-61l33 230h-111l2 59h117l23 145h-113v60h121l31 220h62l-31 -220h139l33 220h61l-32 -220h102v-60h-110l-21 -145h105v-59v0zM374 445h-138l-22 -146h140l20 146v0z" />
    <glyph glyph-name="dollar" unicode="$" horiz-adv-x="561" 
d="M135 614l5 3q-1 -3 -1.5 -5t-0.5 -4q-1 -2 -1 -4v-4q0 -30 28.5 -57.5t63.5 -46.5q2 -1 4.5 -2.5t5.5 -2.5l162 -79q1 -2 2.5 -2.5t3.5 -1.5q48 -23 88 -54.5t41 -78.5v-1.5v-1.5q0 -22 -5.5 -38.5t-17.5 -32.5q-2 -4 -5.5 -8t-6.5 -8l-118 -134q-3 -5 -6 -8.5t-6 -6.5
q-6 -6 -11.5 -11t-12.5 -10q-1 -1 -3 -2.5t-4 -2.5q-3 -2 -5.5 -3.5t-5.5 -3.5q-5 -2 -10 -3.5t-12 -2.5v-126q-7 -5 -13.5 -9.5t-12.5 -9.5q-3 -2 -5.5 -3.5t-5.5 -3.5q-5 -4 -11 -7.5t-13 -7.5q-8 -5 -15.5 -9t-14.5 -8q-4 -2 -7.5 -4t-7.5 -4q-5 -2 -10 -4.5t-10 -4.5
v212q-5 1 -9.5 2.5t-8.5 3.5q-8 3 -15.5 6.5t-14.5 6.5q-8 4 -16.5 9t-18.5 11q-6 4 -12 7.5t-11 7.5l-8 6l-8 6q-6 4 -12.5 9.5t-13.5 11.5l93 108l38 -26q22 -16 47 -30t51 -24q20 -8 40 -13t39 -5q23 0 43 9t34 29q7 10 10 19.5t3 18.5q0 29 -25 54t-56 42q-3 1 -6 3
t-6 3l-134 67q-5 1 -10 4t-10 5q-57 29 -104.5 67.5t-48.5 90.5v6t1 6q4 32 28.5 61.5t53.5 52.5q9 7 17.5 13.5t16.5 11.5l51 36v135q9 5 17 9.5t16 9.5t16 9.5t17 10.5t17 10.5t16 9.5t16 9.5t17 10.5v-180q3 -1 17.5 -3.5t31.5 -6.5q6 -1 12 -3l12 -4t12 -4.5t12 -5.5
t12.5 -6.5t12.5 -6.5q12 -7 20.5 -13.5t8.5 -10.5q0 -1 -0.5 -2t-0.5 -2q-4 -8 -18.5 -17t-34.5 -25q-3 -3 -6.5 -5.5t-7.5 -5.5l-0.5 -0.5l-1.5 -1.5q-11 -9 -21.5 -16t-14.5 -8v0v0h-1v0q-5 0 -9.5 2t-8.5 5q-1 1 -2 1.5l-3 1.5q-2 2 -4 3.5t-5 2.5l-45 25q-1 0 -2.5 0.5
t-2.5 1.5q-14 6 -34 11t-41 7h-5.5h-5.5q-24 0 -44 -8.5t-28 -30.5v1z" />
    <glyph glyph-name="percent" unicode="%" horiz-adv-x="685" 
d="M506 709v-1q7 3 13.5 6.5t12.5 6.5q2 1 3.5 2t2.5 2q7 3 13.5 7t14.5 9q3 2 6 3.5t6 3.5t6.5 4t6.5 4q17 11 31.5 20.5t22.5 14.5q-1 -4 -68 -110.5t-149 -233.5l-1.5 -1.5t-0.5 -1.5q-1 -2 -2 -3.5t-2 -3.5q-80 -124 -147.5 -228t-74.5 -111l-11.5 -11.5t-11.5 -10.5
q-2 -3 -4.5 -5t-5.5 -4q-6 -6 -13 -11.5t-15 -12.5q-4 -3 -8.5 -6.5t-8.5 -7.5q-1 0 -2.5 -1t-2.5 -2q-16 -12 -29.5 -22t-19.5 -14q7 10 70 95t219 363q11 20 23.5 41.5t24.5 44.5q1 1 2 3t2 3q35 62 65 113t32 55v1zM398 241l111 86q12 8 26 15.5t29 10.5q4 1 8.5 1.5
t8.5 0.5q21 0 39 -13.5t28 -48.5q6 -20 8.5 -37.5t2.5 -31.5q1 -37 -14.5 -61.5t-43.5 -47.5q-4 -3 -7.5 -5.5t-7.5 -5.5l-84 -62l-3.5 -3.5t-3.5 -2.5q-13 -9 -26.5 -18t-27.5 -14q-8 -3 -16 -4.5t-16 -1.5q-20 0 -38.5 13t-34.5 47q-5 11 -7.5 22.5t-2.5 23.5
q0 6 0.5 12.5t1.5 13.5q6 31 24.5 60t45.5 50v1zM446 154v1q1 -5 1.5 -8.5t1.5 -6.5q5 -24 16 -44.5t34 -21.5v0h1v0v0q15 -1 21.5 18.5t8.5 42.5q1 6 1 11.5v11.5v14.5t-1 10.5q-1 6 -1.5 12t-2.5 12q-4 22 -13.5 40.5t-28.5 19.5h-2h-1q-1 -1 -2 -1h-2q-13 -3 -22 -26.5
t-11 -51.5v-5v-4q0 -7 0.5 -13.5t1.5 -12.5v1zM99 633l112 88q12 8 26 15.5t29 10.5q4 1 8.5 1.5t8.5 0.5q20 0 38 -13.5t27 -48.5q5 -16 7 -30.5t2 -28.5q0 -37 -15 -66.5t-46 -55.5l-95 -80q-15 -14 -34.5 -24.5t-38.5 -13.5q-5 -1 -9.5 -1.5t-8.5 -0.5q-22 0 -42 14
t-31 49q-3 9 -4.5 19.5t-1.5 20.5t1 20t4 20q6 29 22 56.5t41 46.5v1zM152 566v2q1 -6 1.5 -11t1.5 -10q6 -27 19.5 -50.5t35.5 -24.5v0h1v0v0q15 0 21 19.5t7 42.5v7.5v7.5v17t-1 13q-1 6 -1.5 11.5t-1.5 11.5q-5 24 -16 43.5t-31 20.5h-2h-2t-2 -0.5t-2 -0.5
q-13 -3 -20.5 -24t-8.5 -46v-5v-4v-10.5t1 -10.5v1z" />
    <glyph glyph-name="ampersand" unicode="&#x26;" horiz-adv-x="1361" 
d="M281 582l75 27q-6 2 -15 10t-18 19q-15 17 -27.5 40.5t-14.5 47.5v3.5v3.5v3.5v2.5q3 39 21.5 67.5t54.5 43.5l140 59q28 10 53.5 15.5t50.5 5.5q6 0 12.5 -0.5t12.5 -0.5q25 -3 50.5 -10.5t52.5 -20.5q3 -1 5.5 -2.5t5.5 -3.5q18 -10 35 -24t32 -30q25 -24 41 -45
t17 -23l-140 -39l-28 33q-8 8 -15.5 16t-15.5 16q-43 43 -85.5 62.5t-76.5 19.5q-18 0 -33 -4.5t-26 -14.5q-14 -12 -21.5 -27.5t-7.5 -33.5q0 -16 6 -34t19 -36q17 -25 47.5 -49.5t75.5 -44.5l175 -84q10 -6 18.5 -10.5t17.5 -8.5q10 -5 19.5 -10.5t19.5 -11.5
q15 -9 31.5 -20t34.5 -24q15 -10 27 -19.5t23 -18.5q4 -2 7.5 -5t6.5 -6l24 -20t26 -22l23 24q9 8 16 16l14 16q4 5 7.5 10t7.5 10q6 8 12.5 17.5t13.5 19.5q11 16 20 30.5t18 28.5l10 18t10 19q4 9 8.5 18.5t9.5 19.5l168 44q-18 -26 -33.5 -46.5t-30.5 -40.5l-10 -12
l-10 -12q-16 -20 -34.5 -41t-40.5 -46q-16 -18 -30 -33t-28 -29l-6 -6l-6 -6q-14 -14 -28.5 -28t-32.5 -31q17 -15 31 -28t27 -26q3 -3 6.5 -6t6.5 -6q13 -13 26.5 -27t28.5 -30q18 -20 34 -36.5t30 -32.5q3 -4 6 -7t6 -7q14 -16 28.5 -33t31.5 -38l-125 -42
q-14 17 -26.5 32t-24.5 29q-5 5 -9.5 10t-8.5 10q-13 14 -27 28.5t-30 30.5l-22.5 22.5l-20.5 20.5q-3 3 -6 5.5t-6 5.5q-10 10 -21.5 20t-25.5 22l-49 -34q-78 -56 -162.5 -106t-171.5 -80q-44 -15 -88.5 -23.5t-88.5 -8.5q-79 0 -153 33t-138 112q-36 45 -52 86.5
t-16 79.5q0 94 75 163t165 105q3 1 5 1.5t4 1.5v1zM861 238l51 46l-66 51q-56 42 -117 81t-124 70q-69 34 -136 54.5t-127 20.5q-32 0 -61.5 -7t-55.5 -21q-34 -20 -52 -57.5t-18 -84.5q0 -20 3 -41t10 -43q25 -79 97.5 -147.5t194.5 -87.5q7 -1 14.5 -1.5t14.5 -0.5
q43 0 96.5 15t109.5 43q44 21 86.5 48.5t79.5 60.5v1z" />
    <glyph glyph-name="quotesingle" unicode="'" horiz-adv-x="239" 
d="M32 650l-2 -1q5 5 9.5 10.5t8.5 10.5l4.5 4.5l4.5 4.5l8.5 8.5l9.5 9.5q6 6 11 10.5t10 8.5l2 2l2 2q4 4 9.5 8.5t11.5 9.5q35 -25 55 -55.5t21 -74.5q0 -13 -3.5 -27.5t-10.5 -29.5q-9 -19 -21.5 -37.5t-25.5 -35.5q-20 -26 -37 -45t-22 -27q-1 -2 -2.5 -4.5t-3.5 -4.5
q-2 -3 -4.5 -5.5l-4.5 -4.5q-3 -2 -5 -3t-4 -1h-0.5h-1.5t-1.5 0.5l-0.5 0.5q-3 2 0 8t7 12q0 1 0.5 1.5t0.5 1.5q2 2 3 4.5t2 4.5q0 1 6.5 12.5t13.5 26.5q3 6 5.5 12t4.5 12q4 11 7 21t3 18v4.5v3.5q0 30 -11 53t-24 38q-12 14 -22.5 22t-12.5 10v1z" />
    <glyph glyph-name="parenleft" unicode="(" horiz-adv-x="311" 
d="M298 958l-8 -12q-8 -8 -16 -13t-16 -9q-12 -8 -22.5 -16t-19.5 -22q-5 -7 -9 -14t-7 -14q-7 -17 -10 -34.5t-3 -38.5v-214v-512v-10.5v-8.5q0 -41 4 -75.5t32 -66.5q2 -3 4.5 -5.5l5.5 -5.5q15 -16 31.5 -26t39.5 -17l-131 -80q-28 13 -46.5 30t-35.5 39q-5 7 -9.5 14.5
t-8.5 14.5q-15 30 -17.5 61.5t-2.5 69.5v4.5v3.5v171v512q0 39 3.5 71.5t20.5 63.5q4 6 7.5 12t8.5 12q1 2 2.5 3.5l2.5 2.5q13 17 27 27.5t33 19.5q3 2 5.5 3.5t5.5 2.5l123 63l3 -18q0 1 0.5 2l1.5 3q0 1 0.5 2.5t0.5 2.5v1z" />
    <glyph glyph-name="parenright" unicode=")" horiz-adv-x="316" 
d="M31 -204q24 1 39.5 16t28.5 35q2 2 3.5 4.5t2.5 4.5q5 7 9 14t7 14q7 17 10 34.5t3 38.5v215v512v8.5v8.5q0 42 -4 76.5t-32 66.5q-2 3 -4.5 5.5l-5.5 5.5q-15 16 -31.5 26t-39.5 17l131 81q28 -14 47 -31t35 -39q5 -7 9.5 -14.5t8.5 -14.5q15 -30 17.5 -61.5t2.5 -69.5
v-4.5v-4.5v-169v-512q0 -41 -3.5 -73t-20.5 -63q-4 -6 -7.5 -12t-8.5 -12q-1 -2 -2.5 -3.5l-2.5 -2.5q-13 -17 -27 -27.5t-33 -19.5q-3 -2 -5.5 -3.5t-5.5 -2.5l-123 -62l-3 18q0 -2 0.5 -2t2.5 1v0v0q1 1 1.5 1h0.5v0z" />
    <glyph glyph-name="asterisk" unicode="*" horiz-adv-x="316" 
d="M132 888l-1 37q2 1 3 2.5t3 2.5l4 4l4 4q3 2 5.5 4.5t5.5 4.5q4 3 7 6t7 5q4 3 7.5 5.5t8.5 4.5q2 1 4 2.5t4 2.5v-96l90 47l6 -51l-57 -30l65 -38q-7 -3 -12.5 -6t-11.5 -6q-1 -1 -3 -2.5t-4 -2.5q-7 -4 -12.5 -9t-10.5 -11l-53 24v-50l-60 -32v83l-89 -48
q-1 3 -1.5 6.5t-1.5 7.5q0 4 -0.5 7.5t-0.5 7.5v7.5t1 7.5q0 4 0.5 7.5t1.5 7.5l60 30l-75 39q7 1 13 4t11 6q4 2 7 4t7 4q4 3 7.5 5.5t6.5 5.5q2 1 3.5 2.5l3.5 3.5l47 -20v0z" />
    <glyph glyph-name="plus" unicode="+" horiz-adv-x="577" 
d="M29 396h230v234h57v-234h234v-58h-234v-236h-57v236h-230v58v0z" />
    <glyph glyph-name="comma" unicode="," horiz-adv-x="239" 
d="M25 114v-3q6 6 11 12t10 11q2 3 4.5 5.5t4.5 5.5q5 4 10 9.5t11 10.5q7 6 12.5 11.5t11.5 10.5q1 2 2.5 3.5t3.5 2.5q5 4 10 8.5t11 9.5q38 -28 60.5 -62t23.5 -82q0 -14 -4 -29.5t-11 -30.5q-9 -21 -23.5 -42.5t-29.5 -41.5q-22 -28 -41 -49t-25 -29q-1 -2 -3 -4.5
t-4 -5.5q-2 -2 -4 -4.5t-4 -4.5q-3 -3 -6 -4.5t-5 -1.5h-0.5h-1.5t-1.5 0.5l-0.5 0.5q-1 1 -1 1.5v1.5q0 3 2.5 8.5t5.5 10.5q0 2 1 3t2 3t1.5 4t1.5 4q0 1 7 13.5t15 29.5q3 6 5.5 12.5t5.5 13.5q4 11 7.5 22.5t3.5 20.5v4v4q0 32 -12.5 58t-27.5 43q-13 16 -24.5 24.5
t-14.5 10.5v1z" />
    <glyph glyph-name="hyphen" unicode="-" horiz-adv-x="548" 
d="M147 425h336q0 -1 0.5 -1h0.5h8t12 -1q8 -1 15 -3.5t7 -7.5v-0.5v-1.5t-0.5 -1.5l-0.5 -0.5q-1 -2 -13.5 -11t-27.5 -21q-1 0 -1.5 -0.5l-1.5 -1.5q-5 -4 -10 -7.5t-10 -7.5q-6 -5 -11.5 -9.5t-10.5 -8.5q-1 -1 -2.5 -2t-2.5 -2q-5 -5 -10.5 -9.5t-11.5 -10.5l-349 1
q-1 -1 -3 -1h-3h-3.5h-3.5q-8 0 -14.5 1.5t-7.5 5.5q-1 5 12 14.5t28 20.5q2 1 4 2.5t4 2.5q5 3 9 6.5t8 6.5q7 6 13 11l12 10l2 2l2 2q6 5 12 10.5t13 11.5v1z" />
    <glyph glyph-name="period" unicode="." horiz-adv-x="257" 
d="M153 177v2l58 -54q1 -2 2 -3t3 -2q1 -2 2.5 -3t2.5 -3q4 -4 7.5 -8t3.5 -7t-3 -7.5t-7 -9.5q-1 -1 -2.5 -2t-2.5 -3l-2.5 -2.5l-3.5 -3.5l-64 -64q-1 -2 -1.5 -2.5l-1.5 -1.5t-2.5 -2t-3.5 -2t-4.5 -2.5t-4.5 -1.5t-4 1t-4 3q-1 1 -2 1.5t-2 1.5q-2 1 -3 2.5t-2 2.5
l-64 67q-1 0 -2.5 1.5t-3.5 2.5l-2 2t-3 2q-4 4 -7 8t-3 9v3.5t1 2.5q0 1 6 7t14 13l2 2l2 2q3 3 6 5.5t6 4.5l44 37q1 0 2.5 1.5t3.5 2.5q0 1 1 1.5t1 1.5q4 3 8.5 6t7.5 3v0h1v0v0q3 -1 7 -4t7 -7q2 -1 3.5 -2.5l2.5 -2.5v1z" />
    <glyph glyph-name="slash" unicode="/" horiz-adv-x="646" 
d="M43 -40v-1q37 57 67 105.5t59 94.5q2 5 5 9.5t6 9.5q27 44 54.5 90.5t60.5 102.5q10 17 20.5 36t21.5 38q3 5 6 10.5t6 11.5q39 70 72 131t44 73q12 13 24.5 21.5t25.5 16.5q9 4 18 9t18 11q11 7 20 12.5t18 11.5l4 2l4 2l16 10t18 10l-98 -149l-333 -512q-7 -10 -14 -18
t-13 -16q-3 -2 -5 -4.5t-5 -5.5q-6 -7 -13 -14.5t-15 -15.5q-10 -11 -19.5 -20t-18.5 -17q-4 -4 -8 -7t-8 -7q-8 -7 -17.5 -14.5t-20.5 -16.5v0z" />
    <glyph glyph-name="zero" unicode="0" horiz-adv-x="709" 
d="M682 445l-1 -2q2 -14 2.5 -27t0.5 -26q0 -89 -33.5 -162.5t-113.5 -118.5l-133 -74q-25 -15 -52 -24t-54 -11q-7 -1 -13.5 -1.5t-13.5 -0.5q-68 0 -127 43t-88 141q-9 31 -15 63t-8 65q0 8 -0.5 16t-0.5 16q0 89 33.5 168.5t113.5 126.5l138 82q22 12 46 18t49 7
q8 0 16 -0.5t16 -1.5q83 -13 154.5 -90t83.5 -208v1zM174 253v1q23 -87 81.5 -127.5t125.5 -40.5q33 0 65.5 9t61.5 25q4 3 9.5 14.5t11.5 29.5q10 34 19 85.5t11 106.5v9.5v8.5q0 44 -6.5 85.5t-22.5 72.5q-22 41 -60 67t-79 39q-25 8 -49 11.5t-45 3.5q-19 0 -34 -3
t-23 -8q-38 -26 -59.5 -99t-22.5 -155v-2v-2q0 -34 4 -68t12 -64v1z" />
    <glyph glyph-name="one" unicode="1" horiz-adv-x="432" 
d="M261 727l-3 -128l-9 -512q12 -3 22.5 -4.5t20.5 -3.5q11 -1 22.5 -1.5t25.5 -0.5h17t16 1q8 0 16 1t17 2l-11 -11t-11 -10q-8 -7 -17.5 -13.5t-20.5 -13.5q-3 -2 -6 -3.5l-7 -3.5q-11 -6 -21.5 -11t-20.5 -9q-13 -5 -27 -7.5t-30 -2.5h-4.5h-4.5l-153 6q-3 -1 -6 -1h-6
q-4 0 -8.5 0.5t-7.5 3.5q-4 4 6 11t22 15q4 3 8 5.5t7 4.5q2 1 3.5 2.5l2.5 2.5q5 4 8.5 7.5l7.5 7.5q0 1 0.5 1.5t1.5 0.5l6 6l7 7l8 492q-1 -3 -11 -14.5t-21 -25.5q-1 0 -1 -0.5v-0.5q-4 -4 -7.5 -8t-6.5 -8t-7 -9l-8 -10l-4 -4t-4 -5q-10 -10 -19 -18t-14 -8h-1.5
t-1.5 1t-1 1.5v1.5q-1 7 10.5 21.5t25.5 33.5q6 7 11.5 15.5t10.5 17.5q3 5 5.5 9.5t5.5 9.5v0.5t1 1.5q11 21 22 39.5t17 26.5q6 7 18.5 15.5t27.5 18.5q3 3 7 5.5t8 5.5q9 6 16 11.5t14 11.5q7 5 14 10.5t16 11.5l6 1v0z" />
    <glyph glyph-name="two" unicode="2" horiz-adv-x="661" 
d="M209 524q-7 -7 -13.5 -12.5t-12.5 -10.5l-3.5 -3.5t-3.5 -2.5q-5 -4 -10.5 -8.5t-12.5 -9.5q-8 -6 -15.5 -11.5t-14.5 -10.5q-3 -2 -5.5 -3.5t-5.5 -3.5q-6 -4 -12.5 -8t-14.5 -9q-1 8 -2 17t-1 19q0 14 2 30t6 32q3 12 8 24t11 23q1 2 2 3.5t2 2.5q11 20 24 34t32 27
q1 1 2.5 2t3.5 2l114 73q15 8 30 12.5t30 4.5q6 0 12 -0.5t11 -1.5q24 -5 47 -17t45 -28q33 -24 53.5 -55.5t23.5 -64.5q1 -2 1 -4.5v-5.5v-8.5t-1 -9.5q-5 -40 -30 -79t-54 -72q-22 -23 -41.5 -42t-31.5 -31l-87 -86q-2 -3 -12 -13t-22 -23q-3 -4 -6.5 -8t-7.5 -9
q-3 -3 -5.5 -6.5t-4.5 -7.5q-4 -6 -7 -11l-6 -10q-4 -7 -7.5 -14t-7.5 -16l123 -16q23 -4 42 -6.5t38 -4.5q14 -1 29 -1.5t31 -0.5h14.5h14.5q28 1 51 6t40 11q19 7 30 12.5t12 3.5q3 -6 -11.5 -19t-34.5 -26q-7 -5 -13.5 -9t-12.5 -8l-18 -10t-17 -9q-24 -12 -46 -20.5
t-44 -13.5q-20 -4 -40 -6t-42 -2q-13 0 -27 0.5t-29 2.5l-140 12q-10 0 -18.5 1t-16.5 2q-9 0 -17.5 1t-18.5 2h-1.5h-0.5h-1.5h-1.5h-6.5h-7.5h-3.5h-3.5q-3 -1 -6.5 -1h-6.5q-5 0 -9 0.5t-6 2.5l-2 4t-1 4q0 15 18 41t42 54q3 4 6 7.5t7 7.5q9 11 18.5 21.5t17.5 20.5
q5 6 10 11.5t11 11.5l8 8l8 8q21 21 39.5 37.5t21.5 19.5l105 104q11 10 21.5 23t18.5 26q12 19 19.5 36.5t7.5 29.5v1.5v1.5v0.5v1.5q-7 45 -33 77t-57 51q-22 15 -43 22.5t-34 8.5v0v0h-1v0q-17 1 -24.5 -20.5t-9.5 -47.5q-1 -10 -1.5 -19.5t-0.5 -18.5v-11t1 -9v-5.5
v-2.5v1z" />
    <glyph glyph-name="three" unicode="3" horiz-adv-x="598" 
d="M334 748v-3q66 -2 113.5 -49t48.5 -113v-1.5v-0.5q0 -33 -16 -64t-36 -53q-11 -12 -21 -20.5t-17 -13.5l-33 -21l43 -4q62 -7 107 -46t48 -101v-4v-4q0 -43 -19 -76t-57 -57l-141 -92q-9 -7 -17.5 -12.5t-17.5 -10.5q-15 -7 -30.5 -12t-34.5 -5h-3h-3q-2 1 -3.5 1h-3.5
q-33 2 -64.5 10.5t-55.5 19.5q-9 3 -16 7t-13 7l-48 28q-1 -1 -1.5 -0.5l-1.5 1.5q-4 2 -8 5.5t-5 8.5t2 9t6 7l1.5 1.5l0.5 0.5q0 1 1 1.5l1 0.5l74 73l40 -24q2 -2 20.5 -12.5t45.5 -21.5q17 -8 35.5 -14.5t37.5 -11.5q15 -4 29 -6t27 -2h0.5h1.5h1.5h0.5q55 1 72 37
t20 79v1.5v1.5v2v2v2v2q1 62 -48 93t-134 31l-94 1q-10 -1 -18.5 -1h-15.5q-7 -1 -10.5 0t-5.5 2q-2 3 8.5 10t23.5 15l1.5 1.5t1.5 0.5q4 3 8.5 5.5t8.5 5.5q7 5 12.5 9t11.5 8q6 3 11.5 7.5t12.5 8.5h4.5h9.5q7 0 16 0.5t19 1.5q8 0 15 1t13 3q62 20 76 52t13 78
q-1 42 -35.5 76.5t-76.5 47.5q-10 3 -20 4.5t-19 1.5q-11 0 -21.5 -2.5t-19.5 -7.5q-14 -9 -20 -23.5t-7 -30.5q-1 -3 -1 -6.5v-6.5q0 -7 0.5 -13.5t1.5 -12.5q0 -6 0.5 -11t0.5 -8v-1.5v-1.5q-1 -1 -1 -1.5v-0.5q-1 -3 -6.5 -7.5t-11.5 -8.5q-1 0 -2 -1t-2 -1
q-2 -2 -4.5 -3.5t-4.5 -2.5l-41 -26q-2 -2 -4.5 -4t-5.5 -4l-0.5 -0.5l-1.5 -1.5q-7 -5 -13 -8t-10 0l-0.5 1.5t-0.5 3.5q-1 2 -1 5.5t-1 6.5v5v4v27q0 7 2 20t7 27q2 7 5.5 14.5t7.5 13.5q8 13 17 22t20 16q4 3 9 6.5t10 6.5l100 69q8 5 16 9t15 8q16 7 32 10t36 3v1z" />
    <glyph glyph-name="four" unicode="4" horiz-adv-x="760" 
d="M732 307l-2 -3q-4 -6 -8 -10.5t-8 -9.5q-8 -8 -16 -15t-17 -14q-4 -2 -8 -5t-9 -6q-13 -9 -26 -16t-25 -12q-24 -10 -48.5 -15t-55.5 -5l-3 -144l-94 -44q-2 -2 -4 -3l-4 -2q-1 0 -1.5 -0.5t-1.5 -0.5q-6 -2 -11.5 -4t-10.5 -2h-1.5h-1.5q-4 1 -6 7t-2 14v6t1 7v6v6
l1 154q-24 0 -43.5 1t-38.5 3q-19 1 -38.5 2.5t-43.5 2.5q-12 1 -24 1.5t-24 1.5q-6 0 -11.5 0.5t-11.5 0.5q-36 2 -65.5 4.5t-40.5 6.5q-15 6 43 62t130 147q5 6 10 12.5t10 12.5q4 5 7.5 9.5t6.5 9.5q50 69 89 128.5t47 71.5q3 4 7 7.5t8 6.5q6 4 11.5 7t7.5 4l64 39
q3 0 5.5 1.5t5.5 3.5q6 3 11 6t8 3h1.5h0.5q6 -3 7.5 -7.5t1.5 -9.5v-4.5v-4.5v-442h112q9 -1 17 -0.5t15 1.5t13.5 2.5t14.5 3.5l14 3.5t13 3.5q5 2 10.5 4.5t11.5 4.5v1zM369 287l-2 2l5 267q-19 -21 -34.5 -38t-30.5 -33t-30.5 -33t-34.5 -37q-15 -16 -27.5 -29.5
t-24.5 -26.5q-1 0 -1.5 -0.5l-0.5 -0.5l-24 -26t-27 -28q15 -2 27.5 -3.5t24.5 -2.5q12 -2 24.5 -3t27.5 -2q18 -1 33.5 -2.5t30.5 -2.5q15 0 30.5 -1t33.5 -1v1z" />
    <glyph glyph-name="five" unicode="5" horiz-adv-x="598" 
d="M240 481l51 -3q9 -2 17.5 -2.5t17.5 -1.5q91 -12 166.5 -58.5t76.5 -136.5q1 -52 -27 -87t-72 -63l-171 -109q-10 -7 -19.5 -11.5t-19.5 -7.5q-12 -3 -25 -5t-27 -2q-10 0 -21 0.5t-23 2.5q-28 3 -50.5 9.5t-44.5 18.5q-9 5 -19 11.5t-20 14.5l90 88q1 -2 17.5 -10.5
t41.5 -17.5q20 -8 44.5 -15t49.5 -10q8 -2 17 -2.5t17 -0.5h1.5h1.5h0.5h1.5q60 2 90 35t31 97v2v2q0 81 -67.5 120t-149.5 49q-12 1 -24.5 2t-24.5 1l-60 3v287q5 2 9.5 4t8.5 5q3 1 5.5 2.5t4.5 2.5q6 4 11.5 7.5t12.5 7.5q5 3 10 6.5t9 6.5q2 1 4 2.5t4 2.5q5 4 10.5 8
t11.5 9q24 -4 44 -6.5t40 -4.5q20 -1 41 -2t46 -1q27 0 49 1t43 3q21 1 43 4.5t49 7.5q-3 -4 -7 -7.5t-8 -7.5q-16 -14 -37 -28t-46 -25q-10 -5 -19.5 -8t-19.5 -6q-13 -3 -27 -4.5t-31 -1.5l-128 3v-181v0z" />
    <glyph glyph-name="six" unicode="6" horiz-adv-x="606" 
d="M233 630l2 4q-32 -24 -53 -58.5t-33 -71.5q-17 -50 -21.5 -94.5t-4.5 -59.5v-4.5v-1.5l48 57q5 4 9 9t9 10q42 46 88.5 73.5t112.5 27.5h3.5h2.5q86 -2 137 -55t51 -129q0 -43 -11 -80t-43 -71l-111 -115q-32 -35 -71 -52.5t-81 -17.5q-18 0 -36.5 3t-38.5 10
q-88 31 -124.5 102.5t-36.5 159.5v3.5v3.5v3v3q5 179 130 315t306 136h4.5h4.5q13 0 23.5 -1t20.5 -3q9 -1 18 -2.5t19 -3.5q-6 -6 -11.5 -11t-10.5 -9q-2 -2 -4 -3.5t-4 -3.5q-5 -4 -10.5 -8.5t-12.5 -9.5q-3 -2 -5 -4t-5 -4t-6 -5l-6 -6q-7 -6 -15 -11.5t-20 -8.5v0v0h-1
v0q-4 0 -14 2t-25 4q-14 2 -30.5 4t-34.5 2q-10 0 -20 -0.5t-20 -2.5q-18 -3 -36 -9t-33 -17v1zM251 142l-1 -2q17 -8 35 -13.5t37 -7.5q7 -1 14.5 -1.5t14.5 -0.5q42 0 78.5 15.5t53.5 49.5q6 11 9 23t3 25q0 6 -0.5 12t-1.5 12q-10 45 -45 85.5t-75 60.5q-2 1 -3.5 1.5
t-2.5 1.5q-15 7 -30 10t-30 3q-46 0 -86.5 -22t-63.5 -49q-9 -10 -14.5 -19.5t-7.5 -18.5q-1 -2 -1 -4.5v-4.5q0 -14 7 -33t19 -38q16 -26 39.5 -49.5t51.5 -36.5v1z" />
    <glyph glyph-name="seven" unicode="7" horiz-adv-x="617" 
d="M218 80l1 -2q-3 -5 -13 -14t-21 -18q0 -1 -0.5 -1h-0.5q-4 -3 -7.5 -6t-6.5 -6q-8 -7 -15 -13l-14 -12q-2 -1 -3.5 -2.5l-2.5 -2.5q-7 -4 -13 -9t-14 -11l77 148l262 512l-253 17q-15 0 -27.5 1t-24.5 1q-7 1 -14 1h-14h-10.5h-10.5q-10 0 -19.5 -2.5t-17.5 -4.5
t-14 -4.5t-9 -2.5q-1 0 -2 0.5t-2 1.5q-1 3 12.5 18t38.5 32q13 10 29.5 19t34.5 16q12 5 30.5 7t39.5 2h7.5h6.5q4 -1 7.5 -1h6.5l167 -10q13 -2 24 -2.5t22 -0.5h4h4h10t10 1h11.5h11.5q13 0 23.5 1t20.5 1q10 1 19.5 2t21.5 2q-19 -30 -35 -55t-32 -49q-1 -2 -2.5 -4.5
t-2.5 -4.5q-15 -24 -30.5 -49.5t-34.5 -56.5q-11 -18 -22 -37.5t-21 -38.5q-8 -14 -16 -28.5t-16 -29.5q-56 -102 -101.5 -191.5t-59.5 -114.5v1z" />
    <glyph glyph-name="eight" unicode="8" horiz-adv-x="665" 
d="M453 432l40 -14q59 -19 100 -54t42 -111q0 -11 -1.5 -22t-5.5 -23q-9 -31 -30.5 -60.5t-55.5 -46.5l-157 -79q-19 -11 -40 -16.5t-42 -6.5q-5 -1 -10.5 -1h-10.5h-8h-7q-58 3 -112.5 32t-92.5 80q-6 8 -10.5 15.5t-8.5 15.5q-7 16 -10.5 31.5t-3.5 30.5q0 56 38 103
t90 76l38 22q-7 0 -23.5 6.5t-35.5 18.5q-23 16 -43 41t-20 59v2v2v2v2q4 53 34 89.5t79 53.5l152 54q17 5 34 7.5t34 2.5q65 1 120 -38t60 -116v-2.5v-3.5q1 -37 -26 -66t-62 -54l-45 -32v0zM207 153l-1 -3q19 -22 44.5 -37.5t52.5 -25.5q28 -10 55 -15.5t46 -5.5
q9 0 16 1.5t11 2.5q27 11 38.5 35.5t16.5 51.5q2 11 3 22l2 22q1 1 1 2.5v2.5v3.5t1 2.5v3.5v3.5q0 44 -25 78t-68 48l-114 39q-3 0 -6.5 1t-6.5 1q-7 2 -13.5 2.5t-12.5 0.5h-7.5t-6.5 -1q-30 -7 -52.5 -40.5t-22.5 -77.5q0 -17 4.5 -35.5t13.5 -37.5q6 -12 13.5 -23
t17.5 -22v1zM417 442l18 17q8 6 13.5 19.5t8.5 28.5q2 9 3 17.5t1 15.5v3v2q-1 2 -1 3v2q-6 59 -46 100t-101 43h-1.5h-1.5q-43 0 -74 -34.5t-31 -78.5q0 -46 37 -69t81 -38q4 -2 8.5 -3.5t8.5 -2.5l77 -25v0z" />
    <glyph glyph-name="nine" unicode="9" horiz-adv-x="611" 
d="M376 110v-2q32 21 51 52.5t30 65.5q13 38 16.5 73.5t3.5 56.5v9v7q-1 3 -1 4.5v1.5l-44 -46q-5 -6 -10.5 -12t-12.5 -11q-36 -33 -87.5 -60.5t-106.5 -28.5q-73 -1 -129.5 53t-56.5 130q0 14 2 29t6 29q7 30 23 59t40 54l59 62q44 46 94.5 74.5t106.5 29.5q5 0 10.5 -0.5
t10.5 -0.5q10 -1 20.5 -3t21.5 -6q86 -25 124 -97.5t39 -161.5v-5.5v-5.5q-1 -3 -1 -5.5v-5.5q-8 -179 -139 -316.5t-310 -135.5q-12 0 -22 0.5t-20 1.5q-9 1 -18 2.5t-20 3.5q7 6 13 11.5t12 10.5q2 2 4.5 4t4.5 4q5 4 9.5 7.5t9.5 7.5q4 3 7.5 6.5l6.5 6.5q2 2 3.5 4
t2.5 4q6 6 12.5 12t17.5 9v0h1v0v0q4 0 14.5 -2t25.5 -4q14 -2 31 -4t35 -2q9 0 17.5 0.5t17.5 1.5q20 2 39 8.5t36 18.5v1zM370 614h1q-18 7 -37.5 11.5t-39.5 5.5q-5 1 -10 1h-10q-49 1 -90 -18t-54 -58q-4 -12 -6 -24t-2 -26q0 -5 0.5 -9.5t0.5 -9.5q5 -44 33.5 -84.5
t83.5 -61.5q18 -7 36 -10t34 -3q49 0 87.5 22t59.5 49q7 9 12 18.5t7 17.5q1 3 1 6v7q0 15 -4.5 34.5t-14.5 39.5q-13 27 -35 52t-53 39v1z" />
    <glyph glyph-name="colon" unicode=":" horiz-adv-x="261" 
d="M156 189l1 3l61 -61q1 -2 2.5 -3.5l2.5 -2.5l1.5 -1.5l0.5 -0.5q5 -5 9 -10t5 -8q0 -3 -3 -7.5t-7 -9.5q-1 -1 -2.5 -2t-2.5 -3l-2.5 -2.5l-3.5 -3.5l-65 -67q-1 -2 -1.5 -2.5l-1.5 -1.5t-2.5 -2t-3.5 -2q-2 -2 -4.5 -3t-4.5 -1t-4 1l-4 2l-2 2l-2 2q-2 1 -3 2.5t-2 2.5
l-64 68q-2 1 -4 3l-4 4q-6 5 -11 10.5t-2 13.5q1 2 7.5 8.5l14.5 14.5h1v1q3 2 6 5l5 5l45 46q1 0 2.5 1.5t3.5 2.5q0 1 1 1.5t1 1.5q4 3 8.5 6t7.5 3v0h1v0v0q2 0 4.5 -2t5.5 -4q1 -2 2.5 -3.5t2.5 -3.5l2 -2l2 -2v1zM157 504v2l61 -62q1 -2 2.5 -3.5l2.5 -2.5l1.5 -1.5
l0.5 -0.5q5 -5 9 -10t5 -8q0 -3 -3 -7.5t-7 -9.5q-1 -1 -2.5 -2t-2.5 -3l-2.5 -2.5l-3.5 -3.5l-65 -67q-1 -2 -1.5 -2.5l-1.5 -1.5t-2.5 -2t-3.5 -2q-2 -2 -4.5 -3.5t-4.5 -1.5t-4 1.5t-4 3.5q-1 1 -2 1.5t-2 1.5q-1 2 -2.5 3.5l-2.5 2.5l-63 61q-1 0 -2 1l-2 2
q-5 5 -9.5 10.5t-4.5 12.5v3.5t1 3.5t8 10.5t16 17.5q0 1 0.5 1.5l1.5 1.5l2.5 2.5l2.5 2.5l44 47q1 0 2 1.5t3 2.5q1 2 2.5 3.5l2.5 2.5q4 4 8 6.5t7 2.5q2 0 4.5 -2t5.5 -4q1 -2 2.5 -3.5t2.5 -3.5l2 -2l2 -2v1z" />
    <glyph glyph-name="semicolon" unicode=";" horiz-adv-x="263" 
d="M34 117v-3q6 6 11 12t10 11q2 3 4.5 5.5t4.5 5.5q5 4 10 9.5t11 10.5q7 6 12.5 11.5t11.5 10.5q1 2 2.5 3.5t3.5 2.5q5 4 10 8.5t11 9.5q38 -28 60.5 -62t23.5 -82q0 -14 -4 -29.5t-11 -30.5q-9 -21 -23.5 -42.5t-29.5 -41.5q-22 -28 -41 -49t-25 -29q-1 -2 -3 -4.5
t-4 -5.5q-2 -2 -4 -4.5t-4 -4.5q-3 -3 -6 -4.5t-5 -1.5h-0.5h-1.5t-1.5 0.5l-0.5 0.5q-1 1 -1 1.5v1.5q0 3 2.5 8.5t5.5 10.5q0 2 1 3t2 3t1.5 4t1.5 4q0 1 7 13.5t15 29.5q3 6 5.5 12.5t5.5 13.5q4 11 7.5 22.5t3.5 20.5v4v4q0 32 -12.5 58t-27.5 43q-13 16 -24.5 24.5
t-14.5 10.5v1zM151 502l1 3l61 -62q1 -2 2.5 -3.5l2.5 -2.5l1.5 -1.5l0.5 -0.5q5 -5 9 -10t5 -8q0 -3 -3 -7.5t-7 -9.5q-1 -1 -2.5 -2t-2.5 -3l-2.5 -2.5l-3.5 -3.5l-65 -67q-1 -2 -1.5 -2.5l-1.5 -1.5t-2.5 -2t-3.5 -2q-2 -2 -4.5 -3.5t-4.5 -1.5t-4 1t-4 3l-2 2l-2 2
q-2 1 -3 2.5t-2 2.5l-64 68q-2 1 -4 3l-4 4q-6 5 -11 10.5t-2 13.5q1 2 7.5 8.5l14.5 14.5h1v1q3 2 6 5l5 5l45 47q1 0 2.5 1.5t3.5 2.5q0 1 1 1.5t1 1.5q4 3 8.5 6t7.5 3v0h1v0v0q2 0 4.5 -2t5.5 -4q1 -2 2.5 -3.5t2.5 -3.5l2 -2l2 -2v1z" />
    <glyph glyph-name="less" unicode="&#x3c;" horiz-adv-x="576" 
d="M30 401l8 4l512 245v-65l-444 -217l444 -203v-60l-8 4l-512 234v58v0z" />
    <glyph glyph-name="equal" unicode="=" horiz-adv-x="506" 
d="M484 332v-51h-450v51h450v0zM484 458v-51h-450v51h450v0z" />
    <glyph glyph-name="greater" unicode="&#x3e;" horiz-adv-x="583" 
d="M32 650l8 -4l512 -245v-58l-8 -4l-512 -234v60l442 203l-442 217v65v0z" />
    <glyph glyph-name="question" unicode="?" horiz-adv-x="626" 
d="M341 163v1l44 -55q1 -2 2 -3t2 -3l2.5 -2.5l2.5 -2.5q3 -4 5 -8t2 -7v0v0v-1v0q-1 -5 -5 -9.5t-10 -8.5q-1 0 -2 -1l-2 -2l-65 -50q-1 -1 -1.5 -2t-1.5 -1q-2 -1 -4 -2.5t-4 -2.5q-4 -3 -8 -3.5t-7 -0.5t-5.5 2t-5.5 5l-4 4l-4 4q-1 2 -2 3l-2 2l-44 58q-1 1 -2.5 3
t-3.5 4l-0.5 0.5l-0.5 0.5l-6 10t-3 8v0.5v0.5v0.5v0.5q1 4 6 8l10 8q2 1 3.5 2.5t3.5 2.5l60 47q2 0 3.5 1.5l2.5 2.5t2 1.5t2 1.5q4 3 8 5t7 2q5 0 9.5 -5.5t9.5 -11.5q1 -2 3 -4t3 -4v1zM259 204l-1 3l105 182q32 55 56 108.5t33 105.5q2 14 3.5 27t1.5 26v5.5v5.5
q-4 55 -50 104.5t-99 72.5q-17 7 -33.5 11t-31.5 4q-16 0 -30 -4.5t-25 -14.5q-22 -19 -31.5 -43t-9.5 -51q0 -11 1.5 -22t3.5 -22q6 -22 15.5 -43.5t21.5 -41.5t29 -36.5t34 -28.5q12 -8 24 -14t22 -10l-91 -65q-2 -2 -4 -3.5t-3 -3.5q-1 0 -1.5 -1t-1.5 -1
q-4 -3 -7.5 -5.5t-8.5 -2.5h-1.5h-1.5q-10 2 -21 7.5t-23 14.5q-16 12 -31.5 28.5t-28.5 35.5q-23 33 -33.5 64t-10.5 59q-1 44 22.5 82t61.5 69l138 113q5 3 10.5 7t10.5 7q16 10 34 15.5t40 5.5q21 0 46.5 -9t52.5 -25q51 -31 94.5 -85t53.5 -122q1 -2 1 -5v-6
q0 -20 -7.5 -47.5t-21.5 -56.5q-7 -15 -15.5 -30.5t-17.5 -29.5l-145 -210q-5 -9 -10.5 -16t-10.5 -14t-10.5 -13.5t-11.5 -13.5q-6 -6 -12.5 -12t-14.5 -13q-6 -6 -12 -10.5t-12 -8.5q-3 -3 -7 -6t-9 -6q-4 -3 -9 -6l-10 -6v1z" />
    <glyph glyph-name="at" unicode="@" horiz-adv-x="811" 
d="M488 498l15 -24l19 66h88l-72 -270l-6 -19q-1 -5 -2 -9.5t-2 -8.5q-1 -5 -1.5 -9.5t-0.5 -8.5q0 -10 3.5 -17.5t12.5 -11.5q4 -1 7.5 -1.5t7.5 -0.5q9 0 19 3t20 9q32 20 62 64t45 92l6 24t4 24q2 11 2 20.5v19.5q0 89 -52.5 153t-168.5 91q-19 5 -37 7t-36 2
q-122 0 -213.5 -86.5t-102.5 -208.5q-1 -7 -1 -14.5v-15.5q-1 -119 77.5 -210.5t198.5 -109.5q12 -1 23.5 -2t22.5 -1q73 -1 134 26.5t96 60.5q12 11 20 21.5t13 19.5l11 21h64l-12 -20q-50 -89 -137 -133t-186 -45h-12t-12 1q-7 0 -13 0.5t-12 1.5q-143 13 -238.5 120
t-95.5 249v7.5v7.5q0 3 0.5 6.5t0.5 7.5q11 144 121.5 245.5t250.5 101.5q17 0 34 -1.5t34 -5.5q129 -27 205 -102t77 -188v-6v-6q0 -4 -0.5 -7t-0.5 -6q-8 -106 -79 -186.5t-169 -81.5q-19 0 -34.5 12t-24.5 27q-5 7 -7.5 14.5t-3.5 12.5l-3 21l-19 -25q-20 -28 -47 -43
t-57 -16q-4 0 -8.5 0.5t-8.5 0.5q-5 1 -9 2t-9 2q-51 14 -78 57.5t-27 95.5v10t1 11q0 5 1 10l2 10q14 64 63 114.5t104 68.5q13 4 26 6.5t26 2.5q8 0 15 -0.5t14 -2.5q20 -5 32.5 -16.5t19.5 -31.5v1zM321 192h-1q6 -3 12 -4t11 -1q36 -1 61.5 33.5t42.5 76.5q3 9 6.5 17.5
t6.5 17.5q5 12 8.5 25.5t6.5 26.5t4.5 26.5t1.5 25.5q0 25 -7.5 45.5t-26.5 31.5q-3 2 -6 3.5t-6 1.5q-4 1 -7 1.5t-6 0.5q-31 1 -60 -32t-49 -73q-4 -8 -7.5 -16t-6.5 -16q-6 -14 -10.5 -30t-7.5 -32q-2 -12 -3.5 -24t-1.5 -23q0 -29 10 -52t35 -31v1z" />
    <glyph glyph-name="A" unicode="A" horiz-adv-x="1003" 
d="M-96 -140v-2q16 13 28 24.5t23 23.5q8 8 16 16.5t15 16.5q11 13 21 26.5t22 29.5q10 12 17 22.5t13 20.5l2 4t3 4q8 14 18.5 32.5t27.5 48.5l74 127h-63l90 42l206 353q-13 0 -24 0.5t-22 1.5h-8.5h-9.5h-12h-13q-14 0 -25.5 -1t-22.5 -2q-10 0 -20.5 -1.5t-22.5 -2.5
l9 9l8 8q5 5 10.5 9.5t11.5 8.5q5 3 10.5 6.5t12.5 7.5q10 6 18 10.5t16 8.5q14 7 30.5 10t47.5 3l136 -1l69 -132l263 -512h87q9 -1 16 -1h14q6 1 12.5 1.5t13.5 1.5q6 1 11 2t11 3q5 1 10 2.5t11 3.5q-12 -14 -26 -25.5t-29 -21.5q-21 -14 -40.5 -23.5t-31.5 -15.5
q-11 -5 -30.5 -7t-42.5 -2h-5.5h-5.5q-17 0 -34 1t-30 2q-12 1 -20 2t-9 1l-134 252l-368 5l-110 -177q-6 -11 -12.5 -20.5t-13.5 -19.5q-14 -19 -31 -38t-38 -39q-14 -13 -26.5 -24t-24.5 -21q-14 -12 -29 -22.5t-33 -20.5q-8 -4 -17 -9t-19 -10h-1zM295 315l304 -1
l-139 264l-165 -263v0z" />
    <glyph glyph-name="B" unicode="B" horiz-adv-x="813" 
d="M189 45l-1 119l-4 512l-159 -3l131 74l335 5q9 -1 18.5 -1.5t18.5 -1.5q68 -6 126 -40t62 -95v-2v-2v-2v-2q0 -54 -39 -88t-91 -55l-44 -17l44 -9q74 -16 133.5 -56.5t63.5 -111.5v-2.5v-2.5v-3v-3q1 -105 -110.5 -167.5t-245.5 -82.5q-29 -4 -58 -6t-57 -2h-11h-10
q-71 -1 -86.5 3.5t-15.5 40.5v1zM360 383l-41 2v-286v-1.5v-1.5v-0.5v-0.5v-5.5t1 -6.5q1 -4 2 -7.5t3 -5.5q6 -7 15.5 -8t20.5 -1v0h1h2.5h2.5l111 1q4 -1 8 -1t8 1q58 4 107 40t49 88v3.5v2.5q-6 95 -83 135t-168 48q-10 1 -19.5 2t-19.5 1v1zM319 441l83 -1
q7 -1 14.5 -0.5t14.5 0.5q54 4 100.5 27t52.5 77v2.5t1 2.5v2.5v2.5q0 51 -46 79t-102 36q-11 1 -21.5 2t-21.5 1l-75 1v-232v0z" />
    <glyph glyph-name="C" unicode="C" horiz-adv-x="869" 
d="M782 129l-4 -1l20 11l-2 -15l-89 -56q-58 -38 -113 -54.5t-108 -16.5q-26 0 -52 3.5t-52 11.5q-35 10 -69.5 26.5t-70.5 37.5q-90 55 -152 131t-62 165v7.5v7.5q0 3 0.5 6.5t0.5 7.5q6 57 25.5 110t41.5 86q4 6 8 11t8 9q1 2 29.5 8.5t61.5 16.5q15 5 28.5 10t25.5 10
q7 3 14.5 7t15.5 8q7 5 14.5 9.5t14.5 9.5q25 16 44 30t24 14q18 2 39.5 3.5t43.5 1.5q25 0 51.5 -1.5t53.5 -3.5q98 -9 181.5 -29t91.5 -42q1 -1 1 -1.5v-1.5v-2.5v-2.5q0 -10 -3.5 -17.5t-9.5 -15.5l-69 -83q-2 -4 -4 -6.5t-5 -5.5q-1 -2 -2.5 -4t-2.5 -4q-6 -7 -11.5 -11
t-9.5 -1q-1 1 0.5 6.5t4.5 13.5q1 3 2 7.5t2 8.5q0 3 0.5 5.5t0.5 5.5v3.5v2.5q-5 24 -35 40.5t-66 25.5q-11 3 -22.5 5t-22.5 3l-168 19q-12 1 -24.5 1.5t-25.5 0.5h-2h-2q-42 0 -79.5 -9t-49.5 -28q-36 -59 -52 -110.5t-16 -95.5q0 -94 61 -158t149 -105l117 -53
q15 -8 29 -13t28 -9q13 -3 27 -4.5t29 -1.5h6t6 1h5h6q26 2 46.5 7.5t39.5 14.5q14 7 28.5 14.5t30.5 16.5v1z" />
    <glyph glyph-name="D" unicode="D" horiz-adv-x="918" 
d="M69 770l87 70q2 1 4.5 3t4.5 4q1 1 2.5 2t2.5 3q4 3 7.5 5t6.5 2q2 0 3.5 -0.5t2.5 -1.5q6 -4 2 -11t-11 -14l-1.5 -1.5l-1.5 -1.5q-6 -6 -11 -12t-4 -10q1 -3 11 -6t22 -5q4 -1 8.5 -1.5t8.5 -1.5l449 -71q93 -16 160.5 -69.5t68.5 -166.5q2 -118 -15 -204t-101 -133
l-212 -119q-29 -17 -59 -24.5t-60 -7.5q-64 0 -126.5 30.5t-118.5 79.5q-46 41 -73 99.5t-35 121.5q-2 12 -2.5 24t-0.5 24q-1 66 21.5 124t67.5 89l120 85l-228 38q-3 0 -6.5 0.5t-6.5 0.5q-11 2 -19 5.5t-9 9.5q0 4 6.5 11t15.5 14q1 1 3 2.5t4 3.5q3 2 6 4.5t6 4.5v1z
M326 671l-26 -20q-30 -29 -50 -91t-20 -134v-13.5t1 -13.5q3 -57 22.5 -110t60.5 -90l12 -10t13 -10q37 -27 89 -51t108 -30q8 -1 15.5 -1.5t15.5 -0.5q33 0 64.5 9t58.5 31q5 4 12.5 18t15.5 36q12 34 23 82.5t13 99.5v8v8q0 49 -12 94.5t-43 77.5q-28 29 -64 44.5
t-82 23.5l-227 43v0z" />
    <glyph glyph-name="E" unicode="E" horiz-adv-x="839" 
d="M96 623l-2 -1q5 3 33 11.5t60 20.5q12 4 24 9t23 10q11 6 22 13t21 14q20 14 37.5 26.5t31.5 13.5q4 1 8.5 1h9.5q13 0 28.5 -1t32.5 -3q4 -1 8 -1.5t8 -0.5l228 -23q4 -1 25 -4t46 -10q26 -7 48 -18t23 -28v0v-1q0 -7 -3.5 -14t-9.5 -14q-4 -6 -10 -12l-12 -12
q-5 -5 -9.5 -10t-8.5 -10q-8 -11 -14.5 -19.5t-13.5 -17.5q0 -1 -1 -2l-1 -1l-14 -18t-15 -19q4 10 6 19t2 18q0 13 -3.5 25.5t-11.5 25.5q-15 26 -41 33t-55 9q-5 1 -10 1t-10 1l-207 24q-18 1 -35 2.5t-34 1.5q-19 0 -36 -2.5t-34 -9.5q-21 -9 -37.5 -53t-23.5 -95
q-2 -12 -3 -24t-1 -23l-2 -49l435 -15q8 -1 16 -1h15h11.5h11.5q11 0 23 1.5t26 3.5q9 2 17 3.5t15 2.5q8 2 15.5 4t16.5 5l2 -8q-7 -4 -19 -10.5t-27 -12.5q-12 -6 -25.5 -11t-27.5 -9q-2 0 -4.5 -0.5t-4.5 -1.5q-54 -12 -113.5 -16t-130.5 -5l-222 -2q11 -18 31.5 -42
t46.5 -50q21 -20 44.5 -39t48.5 -35q23 -14 44.5 -26.5t43.5 -22.5q31 -15 62.5 -23.5t66.5 -8.5q14 0 29 1.5t31 4.5q8 2 17.5 5t18.5 7q7 4 14.5 7.5t14.5 7.5q22 12 38 21.5t16 5.5t-3 -9t-8 -10q-4 -4 -9 -8t-10 -7q-1 -1 -2.5 -2t-3.5 -2l-123 -76q-11 -8 -21.5 -13
t-20.5 -8q-20 -7 -40 -10t-46 -4h-6h-6q-26 0 -55.5 5.5t-59.5 18.5q-23 9 -45.5 22.5t-43.5 30.5l-117 96q-56 44 -82 97.5t-26 123.5v16t1 16q1 12 2.5 25t4.5 25q8 47 22.5 88t29.5 57q1 1 2 1.5t2 1.5v1z" />
    <glyph glyph-name="F" unicode="F" horiz-adv-x="716" 
d="M147 15l-1 147l-1 512l-116 3l105 59q2 0 4.5 1t4.5 2q4 2 8.5 3.5t9.5 2.5q6 1 11.5 2t10.5 2q7 0 13 0.5t14 0.5l479 1q-7 -6 -12.5 -10t-11.5 -7q-2 -2 -4.5 -3.5t-4.5 -2.5q-5 -3 -10.5 -6.5t-11.5 -6.5q-7 -4 -13.5 -7.5t-12.5 -7.5q-8 -4 -16 -7t-18 -6
q-6 -1 -11.5 -2t-10.5 -2q-7 0 -13.5 -0.5t-14.5 -0.5l-243 1v-329l149 -6q8 -1 16 -1.5t15 -0.5q8 -1 16.5 -1t16.5 -1h10.5h11.5h19t20 1q16 0 29.5 1t27.5 2q13 1 26.5 2.5t29.5 3.5q-7 -6 -13 -10.5t-12 -8.5q-7 -5 -14.5 -9.5t-15.5 -8.5q-4 -2 -7.5 -3.5t-7.5 -3.5
q-10 -5 -19 -8.5t-18 -6.5l-22 -6t-24 -5q-16 -3 -29 -4.5t-25 -1.5q-11 -1 -21 -1h-22h-6h-6h-121v-230q0 -14 -2 -24t-5 -20q-3 -6 -6.5 -13.5t-7.5 -15.5q-9 -19 -32 -38t-49 -38q-2 -2 -4 -3.5t-4 -2.5l-152 -116l-10 12l65 58q3 2 5.5 4.5l5.5 5.5q16 16 27 33.5
t19 40.5q4 11 6 20l4 18q1 11 1.5 21.5t0.5 24.5v1z" />
    <glyph glyph-name="G" unicode="G" horiz-adv-x="869" 
d="M235 93l-1 -2q-79 61 -139.5 130t-63.5 151v4.5v4.5v4.5v4.5q2 51 20 99t39 83q9 14 17.5 25.5t15.5 19.5q1 2 27 7.5t57 14.5q13 4 25.5 8t23.5 8q8 3 16 7t16 9q8 4 15.5 9t14.5 10q26 16 45.5 30t25.5 14h4.5t5.5 1h5h6q34 0 86 -4t107 -12q79 -10 147.5 -24.5
t87.5 -30.5q2 -2 3.5 -4t1.5 -4v-1.5v-1.5q0 -7 -3.5 -12t-7.5 -10q-1 -1 -1.5 -2t-1.5 -2q-2 -2 -3.5 -4t-3.5 -5l-57 -78l-4 -6l-4 -6q-2 -2 -4 -5t-4 -5q-6 -6 -10.5 -9t-8.5 0q-1 1 0.5 6.5t4.5 13.5q1 3 2 7.5t2 8.5q0 3 0.5 5.5t0.5 5.5v3.5v2.5q-5 24 -35 37.5
t-66 20.5q-11 2 -22.5 4t-22.5 3l-165 22q-7 0 -15 1t-15 2q-15 2 -30 3t-30 1q-34 0 -63 -10.5t-45 -40.5q-29 -55 -42 -99t-13 -81q-1 -76 43 -125.5t101 -90.5l103 -74q6 -5 14.5 -10t19.5 -11q22 -11 50.5 -20.5t58.5 -11.5q3 -1 5.5 -1h4.5h2.5h2.5h2.5h2.5
q11 0 21 0.5t19 2.5q11 2 21.5 5t23.5 7l14 238l-48 3h-11.5h-10.5h-6h-7q-7 0 -15 -0.5t-18 -1.5q-10 0 -19 -0.5t-18 -1.5t-18.5 -2t-21.5 -2q11 7 21 12l20 10q7 4 14 7l14 6l10 4l10 4q14 5 26.5 10.5t24.5 9.5q14 5 29 8t33 3l132 1l-35 -361v-8v-6q0 -7 -0.5 -13.5
t-1.5 -12.5q-2 -7 -4.5 -15.5t-5.5 -17.5q-7 -19 -18 -31t-24 -22q-8 -7 -16 -13.5t-16 -14.5q-2 -1 -3.5 -2.5t-2.5 -3.5q-5 -6 -11 -12t-11 -13l-2 -2l-2 -2q-18 -20 -33 -36.5t-20 -14.5v0v1q-1 0 -1 0.5v0.5q0 4 5 19t11 34q1 4 2.5 8.5t3.5 9.5q2 9 4.5 17.5t3.5 16.5
q4 24 7 43.5t4 38.5q0 8 0.5 17t0.5 18v20.5t-1 21.5q-6 -3 -18.5 -8t-26.5 -11q-5 -2 -9.5 -4.5t-8.5 -4.5q-15 -8 -29 -14.5t-29 -12.5q-21 -8 -42.5 -12t-44.5 -4q-46 0 -98.5 21t-118.5 73v1z" />
    <glyph glyph-name="H" unicode="H" horiz-adv-x="949" 
d="M208 -5v385v512l-177 6l107 69h209v-314l60 26q7 2 14 5t14 5q57 24 111 40t91 17v0h1v0v0q22 0 56.5 -17.5t70.5 -47.5q56 -46 103 -115.5t53 -144.5v-4t1 -4v-4v-4v-9.5t-1 -9.5q-4 -54 -27 -105.5t-49 -91.5q-19 -29 -36.5 -50.5t-28.5 -32.5l-131 -131l-11.5 -11.5
t-13.5 -12.5q-2 -3 -4 -5t-4 -3q-14 -14 -26.5 -24t-19.5 -10q-2 0 -3.5 1t-2.5 3q-2 6 12 22t31 35q0 1 1 2t2 1q5 7 10.5 13t10.5 12l29 35q62 75 90 152.5t31 160.5v3.5v2.5q0 67 -34.5 128t-75.5 102q-17 18 -34.5 31t-31.5 21l-63 36q-2 0 -6.5 1.5l-10.5 3.5
q-7 2 -15.5 4t-16.5 3h-3.5h-3.5h-4t-4 -1q-2 0 -4 -0.5t-4 -0.5q-46 -10 -83.5 -49.5t-43.5 -85.5q-1 -3 -1 -6.5v-6.5v-487l-134 -50v0z" />
    <glyph glyph-name="I" unicode="I" horiz-adv-x="365" 
d="M167 668v-161v-512l-137 68v162v512h201l104 -69h-168v0zM120 970l1 -2v-1h1q4 0 8 -3l8 -6q0 -1 1 -1.5t1 -1.5q2 -1 3.5 -2.5l2.5 -2.5l42 -35l6 -6t6 -5q0 -1 0.5 -1.5t1.5 -0.5q8 -8 14.5 -14t7.5 -8q1 -1 1 -2.5v-2.5q0 -6 -3.5 -10.5t-8.5 -8.5l-1 -1l-2 -2
q-2 -1 -3.5 -2.5l-2.5 -2.5l-56 -57q-1 -2 -2 -3.5t-3 -2.5l-2 -2t-1 -2q-3 -2 -5 -3t-4 -1q-2 1 -5.5 2.5t-6.5 4.5l-1.5 1.5t-1.5 0.5l-1.5 1.5l-1.5 1.5l-61 57q-2 0 -3.5 1.5l-3.5 3.5l-2 2l-2 2q-5 5 -8.5 9.5t-3.5 7.5q1 3 5 8t9 10l0.5 0.5l1.5 1.5l2.5 2.5l2.5 2.5
l51 57q1 0 1.5 0.5t0.5 1.5l4 4t4 3q2 3 4.5 4.5t4.5 1.5v1z" />
    <glyph glyph-name="J" unicode="J" horiz-adv-x="386" 
d="M279 -21l1 1q-22 -17 -38 -33t-31 -32q-16 -16 -32 -32.5t-38 -32.5q-13 -9 -23.5 -18t-20.5 -17q-14 -11 -29.5 -20t-35.5 -16q-24 -8 5.5 14t69.5 59q20 19 39 41t31 44q2 2 3 4.5t2 4.5q5 11 9.5 21.5t8.5 21.5q11 30 17 63.5t5 73.5l-1 30l-4 512h-189l125 75h201
v-198v-512q-9 -7 -16.5 -12t-14.5 -10q-3 -2 -5.5 -3.5t-4.5 -3.5q-8 -5 -16 -11t-18 -14v0zM285 951l1 2l51 -56q1 -2 2.5 -3.5l2.5 -2.5l1.5 -1.5l0.5 -0.5q5 -5 9 -10t5 -8t-3 -7.5t-9 -9.5l-2 -2l-2 -2l-3.5 -3.5t-3.5 -2.5l-61 -55q-1 -2 -1.5 -2.5l-1.5 -1.5
q-1 0 -1.5 -0.5l-1.5 -1.5q-3 -3 -6 -4.5t-6 -2.5q-2 0 -4 1t-4 3l-2 2l-2 2q-2 1 -3 2.5t-2 2.5l-56 59q-1 0 -2 1l-2 2l-0.5 0.5l-0.5 0.5q-5 4 -9 9t-4 12v2v2l0.5 1t0.5 2q1 2 6.5 7.5l12.5 12.5l2 2l2 2q2 2 5 4.5t5 4.5l42 37q1 0 2.5 1.5t3.5 2.5q0 1 1 1.5t1 1.5
q4 3 8.5 6t7.5 3v0h1v0v0q2 0 4.5 -1.5t5.5 -4.5l3 -3l4 -4q0 -1 0.5 -1.5l1.5 -1.5v1z" />
    <glyph glyph-name="K" unicode="K" horiz-adv-x="1094" 
d="M218 -1l-4 175l-10 512l-180 -2l90 56q2 0 4 1t3 2q6 3 11.5 5t12.5 3q3 1 5.5 1h4.5h2.5h2.5h6.5h7.5l169 -2l-1 -290q14 6 24 11l20 10q2 1 4.5 2t4.5 3q16 8 34.5 21.5t50.5 42.5q13 12 25 24t23 24q6 8 13 15.5t13 14.5q23 26 47.5 51t58.5 47q20 13 49 22t59 14
q10 2 20 3t19 2q-16 -14 -29 -26.5t-26 -24.5q-2 -2 -4 -3.5t-4 -3.5q-13 -12 -27 -24t-31 -26q-26 -22 -48.5 -40t-44.5 -35q-7 -5 -14 -10.5t-15 -10.5q-21 -16 -44 -32t-50 -34l277 -274q11 -12 27.5 -27t35.5 -30l28 -22t29 -20q21 -13 41.5 -22t37.5 -10h1.5h1.5h0.5
h1.5q8 0 16.5 1t17.5 3q8 1 16.5 3.5t16.5 4.5q16 5 28.5 9t19.5 4q3 0 4.5 -0.5t2.5 -2.5q2 -6 -20.5 -16t-49.5 -24q-10 -4 -19 -9t-17 -10q-14 -9 -26.5 -16.5t-24.5 -13.5q-16 -8 -33 -12.5t-37 -4.5h-6h-7q-41 3 -77.5 26t-71.5 57q-17 16 -34 33.5t-35 35.5l-2.5 2.5
l-3.5 3.5l-227 226q-1 0 -4 2.5t-7 4.5q-2 2 -3.5 3t-3.5 2q-3 2 -5.5 3t-4.5 1t-3.5 -1t-2.5 -3q-1 -1 -1 -3v-4v-2v-1v-2v-2l3 -332l-132 -59v0z" />
    <glyph glyph-name="L" unicode="L" horiz-adv-x="724" 
d="M154 -2l-3 381l-4 512h-126l71 54l4 2t4 3q3 2 5.5 4t6.5 3q4 2 7.5 2h7.5h4.5h5.5l146 -4l3 -362l3 -512l180 -11q19 -2 34 -2.5t29 -0.5q15 -1 30.5 0t34.5 3q24 2 38 6.5t26 10.5l14 8t16 9l7 -6q-8 -8 -23 -20t-34 -25q-11 -7 -23.5 -14.5t-25.5 -13.5
q-22 -11 -41.5 -17t-38.5 -9q-27 -5 -55 -5h-61l-242 4v0z" />
    <glyph glyph-name="M" unicode="M" horiz-adv-x="1378" 
d="M196 249l111 -182l-120 -66l-99 159q-10 15 -18.5 30t-14.5 29q-11 24 -17.5 49t-8.5 56v4v4q-1 2 -1 4v4q0 9 0.5 18.5t1.5 18.5q8 54 30.5 104.5t48.5 82.5q10 13 20 22t19 14l224 123q11 5 21 9.5t19 7.5q8 2 15 3.5t15 1.5q6 0 12 -0.5t13 -2.5q23 -6 50 -18.5
t54 -30.5q20 -14 40 -30t38 -34l27 -26q2 -3 3.5 -5t3.5 -4t3 -3.5t3 -3.5q6 -7 12.5 -12t16.5 -5q7 0 12.5 3t9.5 7l3 3t3 2q2 2 4 3.5t4 3.5l183 130q7 4 13.5 8t12.5 7q10 5 21.5 9t25.5 6h1.5h1.5q16 0 60.5 -18.5t94.5 -53.5q57 -40 106 -98t55 -131v-4t1 -3v-4v-4
q0 -11 -1.5 -22.5t-4.5 -23.5q-7 -22 -18 -45t-25 -47l-119 -200q13 -4 24 -5.5t22 -2.5q12 -1 24 -1.5t26 -0.5q16 0 29 1t25 3q11 1 22 3.5t24 5.5q-5 -6 -10 -11l-9 -9q-11 -10 -22.5 -18.5t-26.5 -15.5q-2 -1 -3.5 -2t-3.5 -2q-14 -7 -27 -12t-26 -8q-21 -5 -42 -7
t-47 -2h-6h-6q-14 0 -26.5 0.5t-24.5 2.5q-13 2 -26 5t-29 8l66 115q12 20 23.5 42t22.5 45q22 49 37 94t15 72q1 4 0.5 7.5t-1.5 6.5q-14 56 -55.5 104t-89.5 82q-37 26 -71 40.5t-55 14.5q-4 1 -7 0.5t-5 -1.5q-107 -35 -140 -133.5t-35 -210.5v-8v-8v-244l-135 -48l8 425
v1v2q0 24 -7.5 43t-22.5 37q-2 3 -4.5 6t-5.5 6q-76 78 -142 105.5t-98 27.5q-5 0 -9 -0.5t-7 -1.5q-37 -12 -65.5 -53.5t-46.5 -89.5q-15 -39 -23.5 -74.5t-8.5 -55.5v-6t1 -5q3 -11 4.5 -21.5t3.5 -19.5q2 -10 3.5 -19.5t4.5 -18.5q3 -10 7 -19.5t11 -20.5v1z" />
    <glyph glyph-name="N" unicode="N" horiz-adv-x="966" 
d="M203 0v153v512l-177 3l125 66h191v-101l30 20q14 8 29 17t30 17q49 27 94.5 45.5t77.5 23.5h2.5t2.5 1h2.5h2.5q27 0 64.5 -16.5t77.5 -44.5q70 -50 128 -129t58 -167q0 -59 -27 -114.5t-60 -99.5q-22 -29 -42 -50.5t-32 -33.5l-131 -127l-15 -15t-20 -18l-4 -4l-4 -4
q-18 -17 -33.5 -27.5t-17.5 -2.5q-2 6 11.5 23t29.5 36q0 1 0.5 1.5l1.5 1.5q6 7 11 13.5t10 12.5l41 53q20 25 38 51t32 52q30 51 47 103.5t19 107.5v3.5v2.5q0 66 -34 123.5t-74 96.5q-15 14 -30 25t-28 18l-63 36q-2 0 -8.5 2.5t-16.5 5.5q-8 3 -18.5 5.5t-21.5 3.5
q-4 1 -7.5 1h-6.5q-5 0 -10 -0.5t-10 -1.5q-41 -9 -77 -45t-49 -78q-2 -9 -3.5 -17.5t-1.5 -16.5v-473l-134 -50v0z" />
    <glyph glyph-name="O" unicode="O" horiz-adv-x="850" 
d="M560 736l-2 -1q118 -35 191 -122t74 -211v-2.5v-2.5v-3v-3q0 -81 -25.5 -146t-94.5 -110l-141 -92q-43 -29 -86 -42t-87 -13q-42 0 -84.5 11.5t-86.5 33.5q-91 48 -139.5 128.5t-48.5 178.5q0 17 1 33.5t4 32.5q13 80 44.5 137.5t100.5 98.5l141 85q22 12 53 18.5t67 6.5
q21 0 43.5 -2t45.5 -7q7 -2 15 -4t15 -4v1zM181 268l1 -1q5 -16 26.5 -38.5t55.5 -47.5q37 -27 84.5 -52t97.5 -39q20 -5 40 -8t39 -3q30 0 58 8.5t51 28.5q26 23 43 80t17 125q0 10 -0.5 20.5t-1.5 20.5q-4 50 -19 97.5t-45 84.5q-31 39 -80 64.5t-101 38.5
q-37 10 -72.5 14.5t-64.5 4.5q-28 0 -48 -3.5t-29 -9.5q-30 -20 -50.5 -91.5t-20.5 -154.5v-10v-11q1 -31 5.5 -61t13.5 -58v1z" />
    <glyph glyph-name="P" unicode="P" horiz-adv-x="772" 
d="M298 305l-3 -253l-129 -56v159v512l-141 -9l66 48q4 2 7.5 4t6.5 5q6 3 12.5 6t14.5 6q7 2 13.5 3.5t12.5 2.5t12.5 1.5t13.5 0.5l269 18q3 -1 5.5 -1t5.5 1h5.5h5.5q100 0 181 -55t90 -160v-2v-2v-2v-2q1 -76 -96 -135.5t-213 -80.5q-26 -5 -52 -7.5t-51 -2.5l-36 1v0z
M353 678l-56 -1v-321q2 -2 12.5 -4.5t25.5 -5.5q10 -2 22 -4t25 -4q9 -1 18 -1.5t18 -0.5h1.5h1.5h0.5h1.5q5 0 10 0.5t10 1.5q60 7 110 44.5t50 96.5v4.5v5.5q-9 106 -84 148t-166 40v1z" />
    <glyph glyph-name="Q" unicode="Q" horiz-adv-x="728" 
d="M373 218l-140 -88l-42 18q-64 27 -110 85t-51 137v4v4q-1 1 -1 3v4q0 53 19 100t43 72l2.5 2.5l3.5 3.5q17 14 52 31t79 51q14 10 25 20t21 19q14 12 29 22.5t36 17.5q8 3 20 4.5t26 1.5q27 0 60 -5.5t68 -16.5q72 -23 132 -74.5t60 -136.5v-3.5v-4.5q-3 -87 -22.5 -142
t-64.5 -103q-7 -8 -15 -15.5t-16 -15.5q-11 -10 -24 -20.5t-28 -20.5q-13 -9 -26.5 -18t-27.5 -18q-49 -31 -91 -53.5t-47 -23.5l47 -14l512 -155q18 -5 35 -10t34 -9q30 -7 61.5 -11.5t70.5 -6.5h7.5h7.5q28 0 54.5 4.5t46.5 12.5l62 27q3 1 7 3t7 4q1 0 1.5 0.5l0.5 0.5
q10 5 18.5 8t9.5 -2t-6 -10.5t-15 -9.5q-3 -2 -5 -3l-4 -2l-92 -50q-26 -14 -50 -23.5t-48 -15.5q-31 -8 -62.5 -10.5t-67.5 -2.5h-18.5h-19.5q-82 1 -154 14t-141 32q-61 18 -123 38.5t-131 41.5q-21 7 -43.5 13.5t-45.5 13.5q-43 12 -65 18.5t-40 10.5l-6 2t-6 1
q-9 2 -19 4t-23 5l-47 9q-1 0 -2 0.5t-2 0.5h-2h-2q-6 2 -11.5 3.5t-6.5 5.5v0.5v0.5v0.5v0.5v2t1 2q2 4 5 7t7 5q1 1 2 1.5t2 1.5l102 75q13 -6 25 -9t23 -5q10 -2 20.5 -3t22.5 -1h2.5h2.5h2.5h2.5q11 0 22 1.5t22 4.5q89 20 162.5 105t71.5 216q-1 86 -21 121.5t-83 60.5
q-2 0 -3 0.5l-3 1.5l-58 24q-12 4 -26 8t-29 8q-23 5 -45.5 8.5t-37.5 3.5q-8 0 -14 -1t-9 -3q-6 -4 -16.5 -16.5t-20.5 -30.5q-13 -21 -25 -48.5t-17 -56.5q-1 -8 -2 -15.5t-1 -14.5v-3.5t1 -3.5v-2.5v-3.5q5 -62 32.5 -109.5t85.5 -71.5l100 -40v0z" />
    <glyph glyph-name="R" unicode="R" horiz-adv-x="950" 
d="M300 667l-1 -113v-512l-131 -45l-2 161l-3 512l-142 -1q7 5 13.5 9.5t12.5 9.5q3 2 6.5 4t6.5 5q5 3 10.5 6.5t11.5 6.5q8 5 15.5 9t14.5 7q6 3 12.5 6t13.5 6q3 1 6.5 2.5t6.5 2.5h13h12q3 -1 6.5 -1h6.5h4.5h4.5h24.5t26.5 1q32 1 58 3.5t51 5.5q24 2 50.5 4.5
t57.5 3.5h1.5h1.5h0.5h1.5q22 0 53.5 -5t64.5 -16q53 -17 98.5 -53.5t53.5 -98.5q1 -4 1 -8v-8q0 -63 -55.5 -103t-121.5 -71q-9 -5 -18.5 -9t-18.5 -8l-17 -7q13 -18 24.5 -32.5t22.5 -27.5q3 -3 5.5 -6.5t5.5 -6.5q12 -14 25 -28.5t28 -31.5q14 -16 26 -28.5t24 -24.5
q1 0 1.5 -0.5l0.5 -0.5q12 -13 25 -26t28 -29l17 -17q2 -4 4.5 -6t4.5 -5q14 -13 29 -21t36 -9h2h2h2h2h4h4q15 1 29.5 5.5t26.5 9.5t20 9.5t9 4.5l7 -12l-67 -32q-9 -5 -17 -9t-16 -9q-10 -5 -19.5 -11t-18.5 -11q-18 -9 -37 -15t-42 -6h-2.5h-2.5h-3h-3q-34 2 -60.5 21
t-47.5 41q-3 4 -5.5 7t-5.5 6q-13 15 -25 27t-23 24h-0.5t-0.5 1q-12 12 -24.5 25t-27.5 29q-6 7 -22.5 26t-35.5 41q-1 1 -2.5 3t-2.5 3q-21 25 -37.5 46.5t-17.5 27.5v0v1v0v0q1 3 4 5t7 3q2 1 4.5 2t4.5 2l38 15q6 1 12.5 3.5t12.5 5.5q38 17 74 42.5t59 52.5
q15 16 23.5 32.5t8.5 30.5v6t-1 5q-18 73 -83 105.5t-142 36.5h-5.5t-4.5 1h-5.5h-4.5q-6 0 -11.5 -0.5t-11.5 -0.5q-9 -1 -18.5 -3t-20.5 -4v1z" />
    <glyph glyph-name="S" unicode="S" horiz-adv-x="666" 
d="M64 596h4q2 2 5 4t7 5q16 8 46 20t67 40q7 5 14.5 11t14.5 12q23 19 44 35.5t39 21.5l7.5 0.5t20.5 1.5q12 0 28 0.5t33 0.5h7.5h6.5q15 0 29 -1t27 -2q4 0 8.5 -0.5t8.5 -1.5h1.5h1.5q48 -4 90.5 -12.5t62.5 -36.5q5 -8 -5.5 -23.5t-28.5 -33.5q-4 -4 -9 -8.5t-10 -8.5
q-4 -3 -7.5 -6t-6.5 -7q-16 -15 -27.5 -28t-17.5 -14q-1 0 -2.5 1t-2.5 4v1.5t-1 1.5q0 3 1.5 6.5t2.5 6.5v0h1q1 3 2.5 6t1.5 6v1.5v1.5l-0.5 0.5t-0.5 1.5q-5 12 -36.5 21t-69.5 16l-24 4t-23 3q-13 2 -28 3t-30 1h-7.5h-7.5q-29 0 -53.5 -1.5t-35.5 -3.5l-4.5 -1.5
t-2.5 -0.5q-9 -7 -13.5 -18.5t-6.5 -23.5q-2 -7 -2.5 -14t-0.5 -13v-6.5t1 -5.5v-5v-3v-2v-3q3 -11 20 -23.5t61 -30.5l152 -58q55 -22 102 -48t72 -59q16 -20 28 -46.5t14 -54.5q1 -2 1 -4.5v-4.5q0 -8 -1.5 -16.5t-3.5 -16.5q-1 -4 -21 -18.5t-45 -31.5q-2 -2 -4.5 -3.5
t-4.5 -3.5q-7 -6 -14 -11t-13 -10q-1 -1 -2.5 -2t-2.5 -2q-9 -7 -17.5 -15t-16.5 -16q-24 -22 -44 -42t-32 -25q-13 -6 -24.5 -9t-22.5 -5q-13 -2 -26 -2.5t-28 -1.5h-6h-6h-2h-1h-2h-2q-17 0 -34.5 2t-34.5 5q-38 6 -73 18t-62 25q-22 10 -36.5 20.5t-16.5 17.5v1.5v0.5
q-1 1 -1 1.5v0.5q0 6 3.5 11t8.5 9q1 1 1.5 2t1.5 1l3.5 3.5l3.5 3.5l67 69q2 1 3.5 3t3.5 4q1 2 2.5 3.5l2.5 2.5q5 4 9 6t7 -3q1 -1 1 -2.5v-3.5l-2 -4t-3 -4q-2 -3 -3.5 -5.5t-1.5 -5.5v0v-1q0 -6 10.5 -14.5t28.5 -16.5q23 -11 54 -21t63 -16q19 -4 38 -6t36 -2
q38 0 71.5 4.5t55.5 18.5q2 2 3.5 9.5t1.5 19.5q0 10 -1 21.5t-4 24.5q-4 15 -10 29.5t-16 24.5q-9 10 -26 22t-74 35l-226 94q-1 -1 -2 -0.5t-2 1.5q-25 10 -46.5 23t-29.5 29q-5 12 -7.5 29t-3.5 35q-1 3 -1 6v6q0 23 3 42t7 26v1z" />
    <glyph glyph-name="T" unicode="T" horiz-adv-x="917" 
d="M159 600l114 68l-246 4q14 8 26 15l24 14q4 3 9 5.5t10 5.5q9 5 19 10l22 11q43 21 69 38.5t35 17.5q2 0 3 -0.5t2 -2.5q1 -3 -2 -7.5t-8 -9.5q-2 -2 -4.5 -4t-5.5 -5q-2 -1 -4.5 -3t-4.5 -3l-15 -10q45 -5 81.5 -7t72.5 -3q13 0 27 -0.5t28 -0.5q24 -1 49 -1.5t53 -1.5
q33 -1 62.5 -1.5t55.5 -0.5q83 0 133.5 3.5t78.5 8.5q25 4 35 8t12 4q-15 -9 -28 -17.5t-26 -15.5q-19 -10 -39 -17.5t-45 -13.5q-58 -14 -119.5 -17.5t-135.5 -3.5l-172 1q-3 -2 -6 -3.5t-6 -2.5q-11 -5 -21 -11t-18 -17q-17 -22 -29 -75t-12 -115v-8v-8q1 -35 6.5 -69
t16.5 -64q6 -16 34 -41.5t69 -53.5q31 -21 67.5 -41t73.5 -36q38 -15 74 -25t67 -10h10t9 1q34 4 62.5 15.5t50.5 24.5q25 16 41.5 28.5t23.5 13.5h1.5t1.5 -1q9 -6 -17.5 -31t-72.5 -54q-25 -16 -54 -31.5t-59 -27.5q-31 -13 -60.5 -20t-55.5 -7h-0.5h-1.5h-1.5h-0.5
q-30 1 -62 8.5t-65 20.5q-54 22 -106.5 55t-92.5 68q-33 30 -55 58.5t-26 50.5q-1 7 -4.5 21t-7.5 34q-5 24 -9 54.5t-4 61.5v2.5v3.5q1 48 16 93t57 69v1z" />
    <glyph glyph-name="U" unicode="U" horiz-adv-x="1061" 
d="M214 406l-1 -3q1 -12 3 -24t5 -23q22 -70 88 -135.5t141 -104.5q37 -20 74 -31.5t68 -11.5h2h2h2h2q40 2 65 12.5t39 22.5q16 14 21 25l5 11v509l-180 2l68 50q3 1 5.5 3t5.5 4q5 3 10.5 6t11.5 5l8 2l8 2t9 1.5t11 0.5l182 1l2 -146l3 -512l162 -6l-71 -54
q-1 -2 -2.5 -3t-3.5 -2q-4 -3 -8.5 -5t-10.5 -4q-4 -1 -7.5 -2t-6.5 -1h-7h-7h-2.5h-3.5l-173 3v102l-104 -60q-10 -7 -19.5 -12t-19.5 -9q-38 -19 -76 -28.5t-73 -9.5q-7 0 -14.5 0.5t-15.5 1.5q-24 3 -66 26t-87 60q-62 50 -114.5 119t-61.5 141q-1 5 -1.5 9.5t-0.5 8.5v3
v2q0 56 32 114t70 122q2 2 3.5 4.5t2.5 4.5l33 57l-191 3q10 8 23 17t26 16q26 15 48 25t25 11q7 2 20 3t29 1q11 0 23.5 -0.5t25.5 -0.5l28 -2t27 -2q20 -2 34.5 -3.5t15.5 -1.5q-2 -1 -23.5 -36t-46.5 -83q-8 -13 -15 -27.5t-14 -28.5q-17 -38 -29.5 -74.5t-12.5 -61.5
v-0.5v-1.5v-1.5v-0.5v1z" />
    <glyph glyph-name="V" unicode="V" horiz-adv-x="958" 
d="M609 170l-2 -2q-11 -16 -23.5 -32.5t-25.5 -34.5q-1 -2 -2.5 -3.5t-2.5 -3.5q-32 -43 -60 -76.5t-39 -34.5h-1.5t-1.5 1t-2 1.5t-2 1.5h-0.5t-0.5 1q-3 1 -5 3t-4 5l-29 59l-249 512q-2 3 -4 7l-4 8q-8 16 -17.5 29t-27.5 18q-1 0 -2 0.5t-2 0.5h-2h-2q-4 0 -7.5 -1
t-7.5 -2q-6 -2 -11.5 -5t-10.5 -6q-12 -7 -22 -12t-14 1q-1 1 -1 1.5v1.5q-1 6 11.5 14.5t28.5 17.5q2 2 5 3.5t6 3.5q4 3 7.5 5.5t6.5 4.5q7 6 14.5 12t14.5 12q23 19 44.5 35.5t40.5 16.5v0h1v0v0q27 0 43 -22t29 -48q0 -1 0.5 -1.5t0.5 -1.5l10 -19l246 -512
q23 31 41 57.5t33 51.5q6 9 11 17.5t10 16.5q11 20 23 41t25 46q21 39 37.5 72t30.5 65q9 18 16.5 37t15.5 38q8 20 16 42t17 47l-246 12l96 56q2 0 4 1t4 1q4 2 8 3l8 2q6 2 11 2h9q4 1 7.5 0.5t6.5 -0.5h4h4l204 1q-10 -26 -62 -133.5t-124 -230.5q-32 -54 -65.5 -106.5
t-68.5 -98.5v1z" />
    <glyph glyph-name="W" unicode="W" horiz-adv-x="1545" 
d="M753 74l-35 31l-99 -53q-5 -4 -21.5 -13t-39.5 -19q-19 -8 -41.5 -15.5t-45.5 -11.5q-9 -2 -18 -3t-18 -1h-3h-3q-2 1 -3.5 1h-3.5q-53 5 -92 23.5t-75 55.5q-2 1 -3.5 2.5t-2.5 3.5l-116 123q-2 1 -4 3t-4 5q-23 27 -42 69t-19 90q0 31 10 60t22 53q5 9 10 17.5t9 15.5
l93 155q-12 1 -24 2.5t-24 1.5q-6 1 -12 1h-12h-17t-19 -1t-19 -2t-18 -3q-9 -1 -17.5 -3t-19.5 -5q4 5 13 14t21 18q6 6 13 11l14 10q1 0 2 0.5t2 1.5q8 5 14 9.5t12 7.5q8 5 18 8t26 3l156 1q1 -1 1.5 -1h1.5h0.5h1.5q4 0 7.5 -0.5t5.5 -4.5q3 -4 0.5 -8.5t-6.5 -9.5
q-1 -1 -2.5 -3t-2.5 -4l-60 -107l-14.5 -29t-13.5 -30q-16 -37 -26 -71t-11 -48v-4.5v-4.5q0 -41 11.5 -73.5t36.5 -63.5l6.5 -6.5t6.5 -7.5l78 -83q17 -20 36.5 -35.5t39.5 -27.5q36 -22 69 -34t53 -13h6h6q17 0 35 3t37 10q7 2 14.5 5.5t14.5 7.5l45 27l-84 102
q-8 8 -14.5 17t-12.5 18q-16 25 -24.5 51t-9.5 60q0 26 6 46.5t15 40.5q8 15 17 31t19 34l77 144q-5 -1 -9.5 -1t-9.5 1h-8.5h-8.5h-7.5h-7.5h-22t-25 1h-10h-10h-5h-5h-13.5h-12.5q-14 -1 -29 -1.5t-33 -1.5l83 50q5 2 9.5 4t8.5 4q6 3 13 5t15 4q6 1 10.5 2t9.5 2
q5 0 9.5 0.5t10.5 0.5l189 1l-77 -135q-1 -3 -2.5 -5.5t-2.5 -4.5q-10 -16 -19.5 -30.5t-16.5 -28.5q-12 -21 -19.5 -42.5t-7.5 -47.5v-4t1 -4v-4v-4q2 -23 6.5 -41t13.5 -36q4 -7 8.5 -14.5t10.5 -15.5l59 -76q27 -37 61.5 -67t70.5 -52q31 -18 61.5 -28.5t56.5 -10.5h1.5
h1.5q36 1 64 7.5t55 21.5q10 6 20.5 13t21.5 15v13v512q-11 -1 -20 -0.5t-18 0.5q-10 1 -20 1h-22q-10 0 -21.5 -0.5t-23.5 -0.5q-9 0 -18.5 -0.5t-18.5 -0.5q-19 -1 -32.5 -2l-13.5 -1l110 60l6 2l6 2q3 2 7 3t9 2q2 1 4 1t4 1q4 0 8 0.5t8 0.5l185 1v-143v-512l190 1
l-90 -56q-5 -4 -9.5 -6.5t-8.5 -4.5q-6 -3 -13 -5.5t-15 -4.5q-6 -1 -11.5 -2t-10.5 -2q-6 -1 -11.5 -1h-11.5l-149 -3l-1 113l-120 -68q-18 -11 -33.5 -19.5t-31.5 -15.5q-19 -9 -38 -13.5t-42 -4.5h-4h-4q-3 1 -5 1h-4q-33 2 -58.5 12.5t-48.5 27.5q-12 9 -24 18.5
t-25 20.5v1z" />
    <glyph glyph-name="X" unicode="X" horiz-adv-x="1156" 
d="M429 428l-195 247h-206l99 55q4 1 7 2.5t6 3.5q4 2 8.5 3.5t9.5 2.5q4 1 7.5 2t6.5 2q3 0 6.5 0.5t7.5 0.5l171 1l166 -206l77 77q7 6 21.5 19t33.5 26q13 10 27 19.5t29 16.5q28 15 52.5 26t48.5 18q22 6 43.5 9.5t46.5 3.5q26 0 55 -3.5t64 -11.5l-135 -62
q-1 -1 -6.5 0t-14.5 2q-10 2 -23.5 3t-28.5 1q-16 0 -32 -1.5t-29 -6.5q-21 -7 -34.5 -18t-26.5 -25q-6 -8 -13.5 -16t-15.5 -17l-99 -107q19 -27 35 -48.5t32 -41.5q1 -1 2.5 -3t2.5 -4q16 -20 32.5 -41.5t36.5 -46.5q26 -33 47.5 -60t42.5 -52q2 -3 4.5 -6t5.5 -6
q21 -26 44 -53.5t51 -59.5q14 -1 25.5 -1.5t23.5 -0.5q11 -1 22.5 -1h25.5q20 0 36.5 0.5t32.5 1.5t31.5 2t34.5 3q-10 -7 -18.5 -12.5t-16.5 -10.5q-7 -4 -13.5 -7.5t-13.5 -6.5q-6 -3 -11.5 -5.5t-12.5 -5.5q-13 -6 -24.5 -11t-22.5 -10q-14 -5 -29 -8t-33 -3h-145l-40 40
t-151 178q-20 24 -36 44.5t-32 39.5q-1 2 -2 3t-2 3q-15 18 -30.5 38t-33.5 44l-325 -348q-2 -3 -16 -17t-32 -29q-5 -5 -10 -9l-10 -8l-8 -6l-8 -6q-6 -5 -12 -8.5t-12 -6.5l-18 -8t-19 -7q-3 -1 -6.5 -2t-6.5 -2q8 6 14 11.5t13 10.5q2 1 3.5 2.5l3.5 3.5q7 6 14.5 12.5
t15.5 13.5q5 5 11 10t12 9l2 2l2 2q17 16 31 29t16 16l310 376v0z" />
    <glyph glyph-name="Y" unicode="Y" horiz-adv-x="938" 
d="M179 570l53 92l-212 3l99 57q4 1 7 2.5t7 2.5q5 3 11 4.5t13 2.5q5 1 10 1.5t9 0.5h3.5h3.5h6.5t7.5 -1l161 -7l-113 -216q-5 -11 -9 -20.5t-7 -18.5q-3 -12 -5.5 -24t-3.5 -27v-4.5v-4.5q0 -22 7.5 -46t20.5 -48q30 -52 80.5 -101.5t105.5 -85.5q42 -27 82 -43t71 -16
q18 0 32.5 1.5t28.5 6.5q8 2 17 6t18 9l48 28v27v512h-201l90 56q2 0 3.5 1t3.5 3q1 1 2.5 1.5t2.5 1.5q3 3 6.5 5t8.5 4q3 1 6.5 2t6.5 2q4 1 9 1.5t10 0.5l188 1v-161v-512v-10.5t1 -9.5v-8.5v-9.5q0 -14 -3.5 -27t-14.5 -26q-5 -5 -30 -25t-57 -42q-3 -3 -6.5 -5.5
t-6.5 -4.5q-11 -7 -21 -14.5t-20 -13.5q-21 -14 -38 -27.5t-34 -25.5q-23 -17 -48 -30t-59 -20h-2t-2 -1h-2h-2q-22 0 -68 12t-98 29q-17 5 -34 11.5t-33 12.5q-4 1 -7.5 2.5t-6.5 2.5q-15 6 -31.5 12.5t-33.5 12.5q-17 7 -33.5 14t-31.5 13q-34 15 -57.5 30t-25.5 28v0v0v1
v0q-1 12 21.5 31t51.5 40q4 3 7.5 5.5t6.5 4.5q10 7 19 13.5t18 12.5q2 1 4 3t4 3q2 2 4 3t4 3l8 4t8 2h2t2 -1l1 -0.5t2 -1.5q3 -3 2.5 -6.5t-3.5 -6.5q-2 -2 -5 -4t-6 -5q-5 -4 -9.5 -9t-4.5 -11q1 -15 12.5 -21.5t25.5 -11.5h0.5h0.5q3 -1 5.5 -2t5.5 -2l152 -60
q4 -1 28 -9.5t59 -18.5q16 -5 34.5 -9.5t36.5 -8.5q23 -4 45 -7t41 -3q9 0 17.5 0.5t15.5 2.5q28 6 39.5 31.5t12.5 54.5q1 4 1 8.5v8.5v110l-159 -84q-13 -8 -24.5 -12.5t-23.5 -8.5q-17 -6 -35 -9.5t-40 -6.5h-2t-2 -1h-3h-2q-29 0 -69.5 23.5t-83.5 61.5
q-29 26 -57.5 56.5t-53.5 61.5q-41 51 -67 97.5t-26 75.5v5.5t1 4.5q8 38 19 67.5t25 57.5q11 20 23.5 41.5t27.5 45.5v1z" />
    <glyph glyph-name="Z" unicode="Z" horiz-adv-x="939" 
d="M616 674l-4 3l-512 15q6 1 12 3.5t12 4.5q4 2 8.5 4t8.5 4l18 8t19 9q8 4 15 7t13 7q3 1 5.5 2.5t5.5 2.5q8 4 16 9t18 10q49 -3 90 -5.5t80 -4.5q40 -2 81.5 -3.5t91.5 -2.5q33 -1 60.5 -1.5t54.5 -0.5h53.5h60.5q-19 -27 -35 -50t-32 -44q-5 -6 -9.5 -12t-9.5 -12
q-17 -23 -36 -46.5t-42 -50.5q-32 -38 -61 -68.5t-57 -57.5l-9.5 -9.5l-9.5 -9.5q-29 -28 -60.5 -58.5t-66.5 -68.5q-21 -23 -38.5 -42t-34.5 -38q-1 0 -1.5 -1t-1.5 -2q-17 -18 -34 -37.5t-38 -42.5l146 -16q78 -10 146.5 -15.5t132.5 -5.5q32 0 62.5 1.5t60.5 4.5
q19 2 35.5 8t30.5 13q20 10 32.5 17.5t15.5 3.5l0.5 -0.5t0.5 -1.5t0.5 -1.5l0.5 -0.5q0 -7 -9 -16t-23 -18q-6 -4 -12.5 -8t-12.5 -8q-8 -5 -15.5 -9t-14.5 -8q-19 -10 -37 -18t-35 -13q-39 -11 -79 -14.5t-88 -4.5q-62 0 -113 3.5t-100 8.5q-5 1 -9.5 1.5t-9.5 0.5
q-43 4 -89 8t-101 5q-15 0 -28 0.5t-25 0.5q-11 1 -23 1h-25h-6t-7 1q-10 1 -17 7.5t6 23.5q17 21 32.5 39.5t30.5 36.5q4 4 8 9t8 9q19 22 39 43.5t43 47.5q45 50 85 89.5t79 77.5q2 2 4.5 4t4.5 5q39 37 78.5 77.5t83.5 91.5q12 13 21.5 24.5t18.5 22.5q1 0 1.5 1t1.5 2
q9 11 18.5 22t20.5 25v1z" />
    <glyph glyph-name="bracketleft" unicode="[" horiz-adv-x="278" 
d="M42 -79l6 35q4 31 4 101.5v154.5q-1 18 -1 35.5v35.5v50.5v49.5v54v56q-1 98 -3 184t-4 110l-3 25h16q5 -1 15.5 -2t23.5 -2q5 -1 11 -1.5t12 -0.5q5 0 9.5 -0.5t9.5 -0.5h5.5h5.5q3 -1 5.5 -1h5.5q12 0 24 0.5t23 1.5q10 0 18 0.5t12 0.5l19 1v-33h-22q-3 -1 -8.5 -1
h-12.5h-11.5t-12.5 -1q-12 -1 -23 -4t-17 -10q-8 -8 -9.5 -17.5t-1.5 -20.5v-2v-2l1 -188l1 -512q0 -14 2.5 -24.5t11.5 -20.5q7 -7 19.5 -10t26.5 -4h6h6h10h9q4 1 7 1h5h14l1 -35h-19q-4 0 -12.5 0.5t-19.5 0.5q-9 0 -20 0.5t-21 0.5h-4h-4h-8.5h-9.5t-9.5 -0.5t-9.5 -0.5
q-6 0 -11.5 -0.5t-10.5 -0.5q-13 -1 -23.5 -2t-16.5 -1h-17v0z" />
    <glyph glyph-name="backslash" unicode="\" horiz-adv-x="639" 
d="M524 82l1 1q-8 7 -15.5 14.5t-13.5 14.5l-6 6t-5 6q-6 7 -12.5 14.5t-13.5 16.5l-55 75l-375 512q10 -6 18 -11l16 -10l4 -2l4 -2q9 -6 18 -11.5t20 -12.5q9 -6 18 -11t17 -9q13 -8 25.5 -16.5t24.5 -21.5q11 -12 52.5 -77t89.5 -139q15 -24 30 -47.5t29 -45.5
q27 -40 48.5 -71t41.5 -60q0 -1 1 -1.5t1 -1.5q27 -39 57 -83t72 -110q-11 8 -20.5 15.5t-17.5 14.5q-4 4 -8 7.5t-8 7.5q-9 8 -18.5 17t-19.5 20v1z" />
    <glyph glyph-name="bracketright" unicode="]" horiz-adv-x="266" 
d="M233 -48l2 -35h-17q-5 0 -15.5 1t-23.5 2q-6 0 -11.5 0.5t-11.5 0.5q-4 0 -8.5 0.5t-9.5 0.5h-7.5h-7.5h-6.5h-6.5q-10 0 -19.5 -0.5t-17.5 -0.5q-11 0 -20 -0.5t-13 -0.5h-19l2 35h13h5.5t7.5 -1h8.5h9.5h6h6q14 1 27.5 3.5t20.5 10.5q2 2 3 3.5t2 3.5q6 9 7 17.5
t1 19.5l1 190l1 512v1v2q0 11 -1 20.5t-9 17.5q-7 7 -18.5 10t-24.5 4q-5 1 -10 1h-10h-12.5h-9.5l-22 1v33h19q5 -1 16.5 -1.5t26.5 -1.5q7 0 15 -0.5t16 -0.5h6t6 1h6h6q5 0 9.5 0.5t9.5 0.5q6 0 12 0.5t11 1.5q13 1 23.5 2t15.5 1l17 1l-3 -24q-2 -25 -4 -111t-3 -184
v-56v-54v-49.5v-50.5q0 -18 -0.5 -35.5t-0.5 -35.5q-1 -84 -1 -154.5t5 -101.5v0z" />
    <glyph glyph-name="asciicircum" unicode="^" horiz-adv-x="633" 
d="M258 717l104 21q2 -1 4 -0.5t3 0.5q2 1 4 1t4 1h2h2h3t3 -1q1 0 2.5 -0.5t2.5 -0.5q8 -3 28.5 -18t45.5 -32q3 -2 5.5 -4t5.5 -4q7 -5 13.5 -9.5t13.5 -8.5l44 -27.5t40 -24.5q4 -3 8 -5.5t9 -4.5q17 -10 35 -20.5t39 -21.5h-7h-13q-18 0 -46.5 1t-59.5 5q-15 2 -30.5 5
t-29.5 7l-6 2l-6 2q-11 3 -21 6.5t-19 7.5q-11 5 -21.5 10t-23.5 11l-104 55l-81 -52q-4 -3 -7 -5.5t-7 -4.5q-5 -3 -10 -5.5t-11 -4.5q-7 -3 -13 -5t-12 -3q-5 -2 -10 -3l-10 -2q-2 -1 -4.5 -1t-5.5 -1l-86 -15q-4 -1 -7.5 -2t-7.5 -2h-2.5t-2.5 -1q-7 -1 -13 -2.5
t-10 -1.5h-3t-1 1v0.5t-1 0.5v1v0q0 2 1.5 4.5t4.5 5.5l5 5t7 5q2 1 4 2.5t4 2.5l164 99q4 1 7.5 3t6.5 4q5 3 9.5 5t9.5 4q6 2 11.5 4t10.5 4q6 2 12 3.5t14 2.5v1z" />
    <glyph glyph-name="underscore" unicode="_" horiz-adv-x="694" 
d="M-8 -169v16h218h512v-16h-218h-512v0z" />
    <glyph glyph-name="grave" unicode="`" horiz-adv-x="458" 
d="M252 613h1q-3 0 -6 1l-6 2q-11 3 -21 6.5t-19 7.5q-11 5 -21.5 10t-23.5 11l-110 58q-1 0 -2 0.5t-2 0.5q-7 4 -12.5 9t-5.5 11q0 3 4 5.5t10 4.5q5 2 10 3.5t11 3.5l63 22q1 -1 2.5 -0.5t2.5 1.5q4 2 8.5 3.5t8.5 1.5h2h2l1 -0.5t2 -0.5q8 -3 28.5 -18t44.5 -32
q3 -2 5 -3.5t4 -2.5q7 -6 14.5 -10.5t14.5 -9.5l44 -27.5t40 -24.5q4 -3 8 -5.5t9 -4.5q17 -10 35 -20.5t39 -21.5h-7h-13q-18 0 -46 1t-57 5q-16 2 -32 5t-30 7v1z" />
    <glyph glyph-name="a" unicode="a" horiz-adv-x="1003" 
d="M-96 -140v-2q16 13 28 24.5t23 23.5q8 8 16 16.5t15 16.5q11 13 21 26.5t22 29.5q10 12 17 22.5t13 20.5l2 4t3 4q8 14 18.5 32.5t27.5 48.5l74 127h-63l90 42l206 353q-13 0 -24 0.5t-22 1.5h-8.5h-9.5h-12h-13q-14 0 -25.5 -1t-22.5 -2q-10 0 -20.5 -1.5t-22.5 -2.5
l9 9l8 8q5 5 10.5 9.5t11.5 8.5q5 3 10.5 6.5t12.5 7.5q10 6 18 10.5t16 8.5q14 7 30.5 10t47.5 3l136 -1l69 -132l263 -512h87q9 -1 16 -1h14q6 1 12.5 1.5t13.5 1.5q6 1 11 2t11 3q5 1 10 2.5t11 3.5q-12 -14 -26 -25.5t-29 -21.5q-21 -14 -40.5 -23.5t-31.5 -15.5
q-11 -5 -30.5 -7t-42.5 -2h-5.5h-5.5q-17 0 -34 1t-30 2q-12 1 -20 2t-9 1l-134 252l-368 5l-110 -177q-6 -11 -12.5 -20.5t-13.5 -19.5q-14 -19 -31 -38t-38 -39q-14 -13 -26.5 -24t-24.5 -21q-14 -12 -29 -22.5t-33 -20.5q-8 -4 -17 -9t-19 -10h-1zM295 315l304 -1
l-139 264l-165 -263v0z" />
    <glyph glyph-name="b" unicode="b" horiz-adv-x="813" 
d="M189 45l-1 119l-4 512l-159 -3l131 74l335 5q9 -1 18.5 -1.5t18.5 -1.5q68 -6 126 -40t62 -95v-2v-2v-2v-2q0 -54 -39 -88t-91 -55l-44 -17l44 -9q74 -16 133.5 -56.5t63.5 -111.5v-2.5v-2.5v-3v-3q1 -105 -110.5 -167.5t-245.5 -82.5q-29 -4 -58 -6t-57 -2h-11h-10
q-71 -1 -86.5 3.5t-15.5 40.5v1zM360 383l-41 2v-286v-1.5v-1.5v-0.5v-0.5v-5.5t1 -6.5q1 -4 2 -7.5t3 -5.5q6 -7 15.5 -8t20.5 -1v0h1h2.5h2.5l111 1q4 -1 8 -1t8 1q58 4 107 40t49 88v3.5v2.5q-6 95 -83 135t-168 48q-10 1 -19.5 2t-19.5 1v1zM319 441l83 -1
q7 -1 14.5 -0.5t14.5 0.5q54 4 100.5 27t52.5 77v2.5t1 2.5v2.5v2.5q0 51 -46 79t-102 36q-11 1 -21.5 2t-21.5 1l-75 1v-232v0z" />
    <glyph glyph-name="c" unicode="c" horiz-adv-x="869" 
d="M782 129l-4 -1l20 11l-2 -15l-89 -56q-58 -38 -113 -54.5t-108 -16.5q-26 0 -52 3.5t-52 11.5q-35 10 -69.5 26.5t-70.5 37.5q-90 55 -152 131t-62 165v7.5v7.5q0 3 0.5 6.5t0.5 7.5q6 57 25.5 110t41.5 86q4 6 8 11t8 9q1 2 29.5 8.5t61.5 16.5q15 5 28.5 10t25.5 10
q7 3 14.5 7t15.5 8q7 5 14.5 9.5t14.5 9.5q25 16 44 30t24 14q18 2 39.5 3.5t43.5 1.5q25 0 51.5 -1.5t53.5 -3.5q98 -9 181.5 -29t91.5 -42q1 -1 1 -1.5v-1.5v-2.5v-2.5q0 -10 -3.5 -17.5t-9.5 -15.5l-69 -83q-2 -4 -4 -6.5t-5 -5.5q-1 -2 -2.5 -4t-2.5 -4q-6 -7 -11.5 -11
t-9.5 -1q-1 1 0.5 6.5t4.5 13.5q1 3 2 7.5t2 8.5q0 3 0.5 5.5t0.5 5.5v3.5v2.5q-5 24 -35 40.5t-66 25.5q-11 3 -22.5 5t-22.5 3l-168 19q-12 1 -24.5 1.5t-25.5 0.5h-2h-2q-42 0 -79.5 -9t-49.5 -28q-36 -59 -52 -110.5t-16 -95.5q0 -94 61 -158t149 -105l117 -53
q15 -8 29 -13t28 -9q13 -3 27 -4.5t29 -1.5h6t6 1h5h6q26 2 46.5 7.5t39.5 14.5q14 7 28.5 14.5t30.5 16.5v1z" />
    <glyph glyph-name="d" unicode="d" horiz-adv-x="918" 
d="M69 770l87 70q2 1 4.5 3t4.5 4q1 1 2.5 2t2.5 3q4 3 7.5 5t6.5 2q2 0 3.5 -0.5t2.5 -1.5q6 -4 2 -11t-11 -14l-1.5 -1.5l-1.5 -1.5q-6 -6 -11 -12t-4 -10q1 -3 11 -6t22 -5q4 -1 8.5 -1.5t8.5 -1.5l449 -71q93 -16 160.5 -69.5t68.5 -166.5q2 -118 -15 -204t-101 -133
l-212 -119q-29 -17 -59 -24.5t-60 -7.5q-64 0 -126.5 30.5t-118.5 79.5q-46 41 -73 99.5t-35 121.5q-2 12 -2.5 24t-0.5 24q-1 66 21.5 124t67.5 89l120 85l-228 38q-3 0 -6.5 0.5t-6.5 0.5q-11 2 -19 5.5t-9 9.5q0 4 6.5 11t15.5 14q1 1 3 2.5t4 3.5q3 2 6 4.5t6 4.5v1z
M326 671l-26 -20q-30 -29 -50 -91t-20 -134v-13.5t1 -13.5q3 -57 22.5 -110t60.5 -90l12 -10t13 -10q37 -27 89 -51t108 -30q8 -1 15.5 -1.5t15.5 -0.5q33 0 64.5 9t58.5 31q5 4 12.5 18t15.5 36q12 34 23 82.5t13 99.5v8v8q0 49 -12 94.5t-43 77.5q-28 29 -64 44.5
t-82 23.5l-227 43v0z" />
    <glyph glyph-name="e" unicode="e" horiz-adv-x="839" 
d="M96 623l-2 -1q5 3 33 11.5t60 20.5q12 4 24 9t23 10q11 6 22 13t21 14q20 14 37.5 26.5t31.5 13.5q4 1 8.5 1h9.5q13 0 28.5 -1t32.5 -3q4 -1 8 -1.5t8 -0.5l228 -23q4 -1 25 -4t46 -10q26 -7 48 -18t23 -28v0v-1q0 -7 -3.5 -14t-9.5 -14q-4 -6 -10 -12l-12 -12
q-5 -5 -9.5 -10t-8.5 -10q-8 -11 -14.5 -19.5t-13.5 -17.5q0 -1 -1 -2l-1 -1l-14 -18t-15 -19q4 10 6 19t2 18q0 13 -3.5 25.5t-11.5 25.5q-15 26 -41 33t-55 9q-5 1 -10 1t-10 1l-207 24q-18 1 -35 2.5t-34 1.5q-19 0 -36 -2.5t-34 -9.5q-21 -9 -37.5 -53t-23.5 -95
q-2 -12 -3 -24t-1 -23l-2 -49l435 -15q8 -1 16 -1h15h11.5h11.5q11 0 23 1.5t26 3.5q9 2 17 3.5t15 2.5q8 2 15.5 4t16.5 5l2 -8q-7 -4 -19 -10.5t-27 -12.5q-12 -6 -25.5 -11t-27.5 -9q-2 0 -4.5 -0.5t-4.5 -1.5q-54 -12 -113.5 -16t-130.5 -5l-222 -2q11 -18 31.5 -42
t46.5 -50q21 -20 44.5 -39t48.5 -35q23 -14 44.5 -26.5t43.5 -22.5q31 -15 62.5 -23.5t66.5 -8.5q14 0 29 1.5t31 4.5q8 2 17.5 5t18.5 7q7 4 14.5 7.5t14.5 7.5q22 12 38 21.5t16 5.5t-3 -9t-8 -10q-4 -4 -9 -8t-10 -7q-1 -1 -2.5 -2t-3.5 -2l-123 -76q-11 -8 -21.5 -13
t-20.5 -8q-20 -7 -40 -10t-46 -4h-6h-6q-26 0 -55.5 5.5t-59.5 18.5q-23 9 -45.5 22.5t-43.5 30.5l-117 96q-56 44 -82 97.5t-26 123.5v16t1 16q1 12 2.5 25t4.5 25q8 47 22.5 88t29.5 57q1 1 2 1.5t2 1.5v1z" />
    <glyph glyph-name="f" unicode="f" horiz-adv-x="716" 
d="M147 15l-1 147l-1 512l-116 3l105 59q2 0 4.5 1t4.5 2q4 2 8.5 3.5t9.5 2.5q6 1 11.5 2t10.5 2q7 0 13 0.5t14 0.5l479 1q-7 -6 -12.5 -10t-11.5 -7q-2 -2 -4.5 -3.5t-4.5 -2.5q-5 -3 -10.5 -6.5t-11.5 -6.5q-7 -4 -13.5 -7.5t-12.5 -7.5q-8 -4 -16 -7t-18 -6
q-6 -1 -11.5 -2t-10.5 -2q-7 0 -13.5 -0.5t-14.5 -0.5l-243 1v-329l149 -6q8 -1 16 -1.5t15 -0.5q8 -1 16.5 -1t16.5 -1h10.5h11.5h19t20 1q16 0 29.5 1t27.5 2q13 1 26.5 2.5t29.5 3.5q-7 -6 -13 -10.5t-12 -8.5q-7 -5 -14.5 -9.5t-15.5 -8.5q-4 -2 -7.5 -3.5t-7.5 -3.5
q-10 -5 -19 -8.5t-18 -6.5l-22 -6t-24 -5q-16 -3 -29 -4.5t-25 -1.5q-11 -1 -21 -1h-22h-6h-6h-121v-230q0 -14 -2 -24t-5 -20q-3 -6 -6.5 -13.5t-7.5 -15.5q-9 -19 -32 -38t-49 -38q-2 -2 -4 -3.5t-4 -2.5l-152 -116l-10 12l65 58q3 2 5.5 4.5l5.5 5.5q16 16 27 33.5
t19 40.5q4 11 6 20l4 18q1 11 1.5 21.5t0.5 24.5v1z" />
    <glyph glyph-name="g" unicode="g" horiz-adv-x="869" 
d="M235 93l-1 -2q-79 61 -139.5 130t-63.5 151v4.5v4.5v4.5v4.5q2 51 20 99t39 83q9 14 17.5 25.5t15.5 19.5q1 2 27 7.5t57 14.5q13 4 25.5 8t23.5 8q8 3 16 7t16 9q8 4 15.5 9t14.5 10q26 16 45.5 30t25.5 14h4.5t5.5 1h5h6q34 0 86 -4t107 -12q79 -10 147.5 -24.5
t87.5 -30.5q2 -2 3.5 -4t1.5 -4v-1.5v-1.5q0 -7 -3.5 -12t-7.5 -10q-1 -1 -1.5 -2t-1.5 -2q-2 -2 -3.5 -4t-3.5 -5l-57 -78l-4 -6l-4 -6q-2 -2 -4 -5t-4 -5q-6 -6 -10.5 -9t-8.5 0q-1 1 0.5 6.5t4.5 13.5q1 3 2 7.5t2 8.5q0 3 0.5 5.5t0.5 5.5v3.5v2.5q-5 24 -35 37.5
t-66 20.5q-11 2 -22.5 4t-22.5 3l-165 22q-7 0 -15 1t-15 2q-15 2 -30 3t-30 1q-34 0 -63 -10.5t-45 -40.5q-29 -55 -42 -99t-13 -81q-1 -76 43 -125.5t101 -90.5l103 -74q6 -5 14.5 -10t19.5 -11q22 -11 50.5 -20.5t58.5 -11.5q3 -1 5.5 -1h4.5h2.5h2.5h2.5h2.5
q11 0 21 0.5t19 2.5q11 2 21.5 5t23.5 7l14 238l-48 3h-11.5h-10.5h-6h-7q-7 0 -15 -0.5t-18 -1.5q-10 0 -19 -0.5t-18 -1.5t-18.5 -2t-21.5 -2q11 7 21 12l20 10q7 4 14 7l14 6l10 4l10 4q14 5 26.5 10.5t24.5 9.5q14 5 29 8t33 3l132 1l-35 -361v-8v-6q0 -7 -0.5 -13.5
t-1.5 -12.5q-2 -7 -4.5 -15.5t-5.5 -17.5q-7 -19 -18 -31t-24 -22q-8 -7 -16 -13.5t-16 -14.5q-2 -1 -3.5 -2.5t-2.5 -3.5q-5 -6 -11 -12t-11 -13l-2 -2l-2 -2q-18 -20 -33 -36.5t-20 -14.5v0v1q-1 0 -1 0.5v0.5q0 4 5 19t11 34q1 4 2.5 8.5t3.5 9.5q2 9 4.5 17.5t3.5 16.5
q4 24 7 43.5t4 38.5q0 8 0.5 17t0.5 18v20.5t-1 21.5q-6 -3 -18.5 -8t-26.5 -11q-5 -2 -9.5 -4.5t-8.5 -4.5q-15 -8 -29 -14.5t-29 -12.5q-21 -8 -42.5 -12t-44.5 -4q-46 0 -98.5 21t-118.5 73v1z" />
    <glyph glyph-name="h" unicode="h" horiz-adv-x="949" 
d="M208 -5v385v512l-177 6l107 69h209v-314l60 26q7 2 14 5t14 5q57 24 111 40t91 17v0h1v0v0q22 0 56.5 -17.5t70.5 -47.5q56 -46 103 -115.5t53 -144.5v-4t1 -4v-4v-4v-9.5t-1 -9.5q-4 -54 -27 -105.5t-49 -91.5q-19 -29 -36.5 -50.5t-28.5 -32.5l-131 -131l-11.5 -11.5
t-13.5 -12.5q-2 -3 -4 -5t-4 -3q-14 -14 -26.5 -24t-19.5 -10q-2 0 -3.5 1t-2.5 3q-2 6 12 22t31 35q0 1 1 2t2 1q5 7 10.5 13t10.5 12l29 35q62 75 90 152.5t31 160.5v3.5v2.5q0 67 -34.5 128t-75.5 102q-17 18 -34.5 31t-31.5 21l-63 36q-2 0 -6.5 1.5l-10.5 3.5
q-7 2 -15.5 4t-16.5 3h-3.5h-3.5h-4t-4 -1q-2 0 -4 -0.5t-4 -0.5q-46 -10 -83.5 -49.5t-43.5 -85.5q-1 -3 -1 -6.5v-6.5v-487l-134 -50v0z" />
    <glyph glyph-name="i" unicode="i" horiz-adv-x="365" 
d="M196 -5v161v512h-168l104 69h201v-162v-512l-137 -68v0zM262 955l1 2l51 -56q1 -2 2.5 -3.5l2.5 -2.5l1.5 -1.5l0.5 -0.5q5 -5 9 -10t5 -8t-3 -7.5t-9 -9.5l-2 -2l-2 -2l-3.5 -3.5t-3.5 -2.5l-61 -55q-1 -2 -1.5 -2.5l-1.5 -1.5q-1 0 -1.5 -0.5l-1.5 -1.5q-3 -3 -6 -4.5
t-6 -2.5q-2 0 -4 1t-4 3l-2 2l-2 2q-2 1 -3 2.5t-2 2.5l-56 59q-1 0 -2.5 1.5t-3.5 2.5l-2 2t-3 2q-4 4 -7 8t-3 9v3.5t1 2.5q1 2 7.5 8t14.5 14q1 0 1.5 0.5t0.5 1.5q3 2 6 5t6 5l42 37q1 0 2.5 1.5t3.5 2.5q0 1 1 1.5t1 1.5q4 3 8.5 6t7.5 3v0h1v0v0q2 0 4.5 -1.5
t5.5 -4.5l3 -3l4 -4q0 -1 0.5 -1.5l1.5 -1.5v1z" />
    <glyph glyph-name="j" unicode="j" horiz-adv-x="386" 
d="M279 -21l1 1q-22 -17 -38 -33t-31 -32q-16 -16 -32 -32.5t-38 -32.5q-13 -9 -23.5 -18t-20.5 -17q-14 -11 -29.5 -20t-35.5 -16q-24 -8 5.5 14t69.5 59q20 19 39 41t31 44q2 2 3 4.5t2 4.5q5 11 9.5 21.5t8.5 21.5q11 30 17 63.5t5 73.5l-1 30l-4 512h-189l125 75h201
v-198v-512q-9 -7 -16.5 -12t-14.5 -10q-3 -2 -5.5 -3.5t-4.5 -3.5q-8 -5 -16 -11t-18 -14v0zM285 951l1 2l51 -56q1 -2 2.5 -3.5l2.5 -2.5l1.5 -1.5l0.5 -0.5q5 -5 9 -10t5 -8t-3 -7.5t-9 -9.5l-2 -2l-2 -2l-3.5 -3.5t-3.5 -2.5l-61 -55q-1 -2 -1.5 -2.5l-1.5 -1.5
q-1 0 -1.5 -0.5l-1.5 -1.5q-3 -3 -6 -4.5t-6 -2.5q-2 0 -4 1t-4 3l-2 2l-2 2q-2 1 -3 2.5t-2 2.5l-56 59q-1 0 -2 1l-2 2l-0.5 0.5l-0.5 0.5q-5 4 -9 9t-4 12v2v2l0.5 1t0.5 2q1 2 6.5 7.5l12.5 12.5l2 2l2 2q2 2 5 4.5t5 4.5l42 37q1 0 2.5 1.5t3.5 2.5q0 1 1 1.5t1 1.5
q4 3 8.5 6t7.5 3v0h1v0v0q2 0 4.5 -1.5t5.5 -4.5l3 -3l4 -4q0 -1 0.5 -1.5l1.5 -1.5v1z" />
    <glyph glyph-name="k" unicode="k" horiz-adv-x="1094" 
d="M218 -1l-4 175l-10 512l-180 -2l90 56q2 0 4 1t3 2q6 3 11.5 5t12.5 3q3 1 5.5 1h4.5h2.5h2.5h6.5h7.5l169 -2l-1 -290q14 6 24 11l20 10q2 1 4.5 2t4.5 3q16 8 34.5 21.5t50.5 42.5q13 12 25 24t23 24q6 8 13 15.5t13 14.5q23 26 47.5 51t58.5 47q20 13 49 22t59 14
q10 2 20 3t19 2q-16 -14 -29 -26.5t-26 -24.5q-2 -2 -4 -3.5t-4 -3.5q-13 -12 -27 -24t-31 -26q-26 -22 -48.5 -40t-44.5 -35q-7 -5 -14 -10.5t-15 -10.5q-21 -16 -44 -32t-50 -34l277 -274q11 -12 27.5 -27t35.5 -30l28 -22t29 -20q21 -13 41.5 -22t37.5 -10h1.5h1.5h0.5
h1.5q8 0 16.5 1t17.5 3q8 1 16.5 3.5t16.5 4.5q16 5 28.5 9t19.5 4q3 0 4.5 -0.5t2.5 -2.5q2 -6 -20.5 -16t-49.5 -24q-10 -4 -19 -9t-17 -10q-14 -9 -26.5 -16.5t-24.5 -13.5q-16 -8 -33 -12.5t-37 -4.5h-6h-7q-41 3 -77.5 26t-71.5 57q-17 16 -34 33.5t-35 35.5l-2.5 2.5
l-3.5 3.5l-227 226q-1 0 -4 2.5t-7 4.5q-2 2 -3.5 3t-3.5 2q-3 2 -5.5 3t-4.5 1t-3.5 -1t-2.5 -3q-1 -1 -1 -3v-4v-2v-1v-2v-2l3 -332l-132 -59v0z" />
    <glyph glyph-name="l" unicode="l" horiz-adv-x="724" 
d="M154 -2l-3 381l-4 512h-126l71 54l4 2t4 3q3 2 5.5 4t6.5 3q4 2 7.5 2h7.5h4.5h5.5l146 -4l3 -362l3 -512l180 -11q19 -2 34 -2.5t29 -0.5q15 -1 30.5 0t34.5 3q24 2 38 6.5t26 10.5l14 8t16 9l7 -6q-8 -8 -23 -20t-34 -25q-11 -7 -23.5 -14.5t-25.5 -13.5
q-22 -11 -41.5 -17t-38.5 -9q-27 -5 -55 -5h-61l-242 4v0z" />
    <glyph glyph-name="m" unicode="m" horiz-adv-x="1378" 
d="M196 249l111 -182l-120 -66l-99 159q-10 15 -18.5 30t-14.5 29q-11 24 -17.5 49t-8.5 56v4v4q-1 2 -1 4v4q0 9 0.5 18.5t1.5 18.5q8 54 30.5 104.5t48.5 82.5q10 13 20 22t19 14l224 123q11 5 21 9.5t19 7.5q8 2 15 3.5t15 1.5q6 0 12 -0.5t13 -2.5q23 -6 50 -18.5
t54 -30.5q20 -14 40 -30t38 -34l27 -26q2 -3 3.5 -5t3.5 -4t3 -3.5t3 -3.5q6 -7 12.5 -12t16.5 -5q7 0 12.5 3t9.5 7l3 3t3 2q2 2 4 3.5t4 3.5l183 130q7 4 13.5 8t12.5 7q10 5 21.5 9t25.5 6h1.5h1.5q16 0 60.5 -18.5t94.5 -53.5q57 -40 106 -98t55 -131v-4t1 -3v-4v-4
q0 -11 -1.5 -22.5t-4.5 -23.5q-7 -22 -18 -45t-25 -47l-119 -200q13 -4 24 -5.5t22 -2.5q12 -1 24 -1.5t26 -0.5q16 0 29 1t25 3q11 1 22 3.5t24 5.5q-5 -6 -10 -11l-9 -9q-11 -10 -22.5 -18.5t-26.5 -15.5q-2 -1 -3.5 -2t-3.5 -2q-14 -7 -27 -12t-26 -8q-21 -5 -42 -7
t-47 -2h-6h-6q-14 0 -26.5 0.5t-24.5 2.5q-13 2 -26 5t-29 8l66 115q12 20 23.5 42t22.5 45q22 49 37 94t15 72q1 4 0.5 7.5t-1.5 6.5q-14 56 -55.5 104t-89.5 82q-37 26 -71 40.5t-55 14.5q-4 1 -7 0.5t-5 -1.5q-107 -35 -140 -133.5t-35 -210.5v-8v-8v-244l-135 -48l8 425
v1v2q0 24 -7.5 43t-22.5 37q-2 3 -4.5 6t-5.5 6q-76 78 -142 105.5t-98 27.5q-5 0 -9 -0.5t-7 -1.5q-37 -12 -65.5 -53.5t-46.5 -89.5q-15 -39 -23.5 -74.5t-8.5 -55.5v-6t1 -5q3 -11 4.5 -21.5t3.5 -19.5q2 -10 3.5 -19.5t4.5 -18.5q3 -10 7 -19.5t11 -20.5v1z" />
    <glyph glyph-name="n" unicode="n" horiz-adv-x="966" 
d="M203 0v153v512l-177 3l125 66h191v-101l30 20q14 8 29 17t30 17q49 27 94.5 45.5t77.5 23.5h2.5t2.5 1h2.5h2.5q27 0 64.5 -16.5t77.5 -44.5q70 -50 128 -129t58 -167q0 -59 -27 -114.5t-60 -99.5q-22 -29 -42 -50.5t-32 -33.5l-131 -127l-15 -15t-20 -18l-4 -4l-4 -4
q-18 -17 -33.5 -27.5t-17.5 -2.5q-2 6 11.5 23t29.5 36q0 1 0.5 1.5l1.5 1.5q6 7 11 13.5t10 12.5l41 53q20 25 38 51t32 52q30 51 47 103.5t19 107.5v3.5v2.5q0 66 -34 123.5t-74 96.5q-15 14 -30 25t-28 18l-63 36q-2 0 -8.5 2.5t-16.5 5.5q-8 3 -18.5 5.5t-21.5 3.5
q-4 1 -7.5 1h-6.5q-5 0 -10 -0.5t-10 -1.5q-41 -9 -77 -45t-49 -78q-2 -9 -3.5 -17.5t-1.5 -16.5v-473l-134 -50v0z" />
    <glyph glyph-name="o" unicode="o" horiz-adv-x="850" 
d="M560 736l-2 -1q118 -35 191 -122t74 -211v-2.5v-2.5v-3v-3q0 -81 -25.5 -146t-94.5 -110l-141 -92q-43 -29 -86 -42t-87 -13q-42 0 -84.5 11.5t-86.5 33.5q-91 48 -139.5 128.5t-48.5 178.5q0 17 1 33.5t4 32.5q13 80 44.5 137.5t100.5 98.5l141 85q22 12 53 18.5t67 6.5
q21 0 43.5 -2t45.5 -7q7 -2 15 -4t15 -4v1zM181 268l1 -1q5 -16 26.5 -38.5t55.5 -47.5q37 -27 84.5 -52t97.5 -39q20 -5 40 -8t39 -3q30 0 58 8.5t51 28.5q26 23 43 80t17 125q0 10 -0.5 20.5t-1.5 20.5q-4 50 -19 97.5t-45 84.5q-31 39 -80 64.5t-101 38.5
q-37 10 -72.5 14.5t-64.5 4.5q-28 0 -48 -3.5t-29 -9.5q-30 -20 -50.5 -91.5t-20.5 -154.5v-10v-11q1 -31 5.5 -61t13.5 -58v1z" />
    <glyph glyph-name="p" unicode="p" horiz-adv-x="772" 
d="M298 305l-3 -253l-129 -56v159v512l-141 -9l66 48q4 2 7.5 4t6.5 5q6 3 12.5 6t14.5 6q7 2 13.5 3.5t12.5 2.5t12.5 1.5t13.5 0.5l269 18q3 -1 5.5 -1t5.5 1h5.5h5.5q100 0 181 -55t90 -160v-2v-2v-2v-2q1 -76 -96 -135.5t-213 -80.5q-26 -5 -52 -7.5t-51 -2.5l-36 1v0z
M353 678l-56 -1v-321q2 -2 12.5 -4.5t25.5 -5.5q10 -2 22 -4t25 -4q9 -1 18 -1.5t18 -0.5h1.5h1.5h0.5h1.5q5 0 10 0.5t10 1.5q60 7 110 44.5t50 96.5v4.5v5.5q-9 106 -84 148t-166 40v1z" />
    <glyph glyph-name="q" unicode="q" horiz-adv-x="728" 
d="M373 218l-140 -88l-42 18q-64 27 -110 85t-51 137v4v4q-1 1 -1 3v4q0 53 19 100t43 72l2.5 2.5l3.5 3.5q17 14 52 31t79 51q14 10 25 20t21 19q14 12 29 22.5t36 17.5q8 3 20 4.5t26 1.5q27 0 60 -5.5t68 -16.5q72 -23 132 -74.5t60 -136.5v-3.5v-4.5q-3 -87 -22.5 -142
t-64.5 -103q-7 -8 -15 -15.5t-16 -15.5q-11 -10 -24 -20.5t-28 -20.5q-13 -9 -26.5 -18t-27.5 -18q-49 -31 -91 -53.5t-47 -23.5l47 -14l512 -155q18 -5 35 -10t34 -9q30 -7 61.5 -11.5t70.5 -6.5h7.5h7.5q28 0 54.5 4.5t46.5 12.5l62 27q3 1 7 3t7 4q1 0 1.5 0.5l0.5 0.5
q10 5 18.5 8t9.5 -2t-6 -10.5t-15 -9.5q-3 -2 -5 -3l-4 -2l-92 -50q-26 -14 -50 -23.5t-48 -15.5q-31 -8 -62.5 -10.5t-67.5 -2.5h-18.5h-19.5q-82 1 -154 14t-141 32q-61 18 -123 38.5t-131 41.5q-21 7 -43.5 13.5t-45.5 13.5q-43 12 -65 18.5t-40 10.5l-6 2t-6 1
q-9 2 -19 4t-23 5l-47 9q-1 0 -2 0.5t-2 0.5h-2h-2q-6 2 -11.5 3.5t-6.5 5.5v0.5v0.5v0.5v0.5v2t1 2q2 4 5 7t7 5q1 1 2 1.5t2 1.5l102 75q13 -6 25 -9t23 -5q10 -2 20.5 -3t22.5 -1h2.5h2.5h2.5h2.5q11 0 22 1.5t22 4.5q89 20 162.5 105t71.5 216q-1 86 -21 121.5t-83 60.5
q-2 0 -3 0.5l-3 1.5l-58 24q-12 4 -26 8t-29 8q-23 5 -45.5 8.5t-37.5 3.5q-8 0 -14 -1t-9 -3q-6 -4 -16.5 -16.5t-20.5 -30.5q-13 -21 -25 -48.5t-17 -56.5q-1 -8 -2 -15.5t-1 -14.5v-3.5t1 -3.5v-2.5v-3.5q5 -62 32.5 -109.5t85.5 -71.5l100 -40v0z" />
    <glyph glyph-name="r" unicode="r" horiz-adv-x="950" 
d="M300 667l-1 -113v-512l-131 -45l-2 161l-3 512l-142 -1q7 5 13.5 9.5t12.5 9.5q3 2 6.5 4t6.5 5q5 3 10.5 6.5t11.5 6.5q8 5 15.5 9t14.5 7q6 3 12.5 6t13.5 6q3 1 6.5 2.5t6.5 2.5h13h12q3 -1 6.5 -1h6.5h4.5h4.5h24.5t26.5 1q32 1 58 3.5t51 5.5q24 2 50.5 4.5
t57.5 3.5h1.5h1.5h0.5h1.5q22 0 53.5 -5t64.5 -16q53 -17 98.5 -53.5t53.5 -98.5q1 -4 1 -8v-8q0 -63 -55.5 -103t-121.5 -71q-9 -5 -18.5 -9t-18.5 -8l-17 -7q13 -18 24.5 -32.5t22.5 -27.5q3 -3 5.5 -6.5t5.5 -6.5q12 -14 25 -28.5t28 -31.5q14 -16 26 -28.5t24 -24.5
q1 0 1.5 -0.5l0.5 -0.5q12 -13 25 -26t28 -29l17 -17q2 -4 4.5 -6t4.5 -5q14 -13 29 -21t36 -9h2h2h2h2h4h4q15 1 29.5 5.5t26.5 9.5t20 9.5t9 4.5l7 -12l-67 -32q-9 -5 -17 -9t-16 -9q-10 -5 -19.5 -11t-18.5 -11q-18 -9 -37 -15t-42 -6h-2.5h-2.5h-3h-3q-34 2 -60.5 21
t-47.5 41q-3 4 -5.5 7t-5.5 6q-13 15 -25 27t-23 24h-0.5t-0.5 1q-12 12 -24.5 25t-27.5 29q-6 7 -22.5 26t-35.5 41q-1 1 -2.5 3t-2.5 3q-21 25 -37.5 46.5t-17.5 27.5v0v1v0v0q1 3 4 5t7 3q2 1 4.5 2t4.5 2l38 15q6 1 12.5 3.5t12.5 5.5q38 17 74 42.5t59 52.5
q15 16 23.5 32.5t8.5 30.5v6t-1 5q-18 73 -83 105.5t-142 36.5h-5.5t-4.5 1h-5.5h-4.5q-6 0 -11.5 -0.5t-11.5 -0.5q-9 -1 -18.5 -3t-20.5 -4v1z" />
    <glyph glyph-name="s" unicode="s" horiz-adv-x="660" 
d="M64 596h4q2 2 5 4t7 5q16 8 46 20t67 40q7 5 14.5 11t14.5 12q23 19 44 35.5t39 21.5l7.5 0.5t20.5 1.5q12 0 28 0.5t33 0.5h7.5h6.5q15 0 29 -1t27 -2q4 0 8.5 -0.5t8.5 -1.5h1.5h1.5q48 -4 90.5 -12.5t62.5 -36.5q5 -8 -5.5 -23.5t-28.5 -33.5q-4 -4 -9 -8.5t-10 -8.5
q-4 -3 -7.5 -6t-6.5 -7q-16 -15 -27.5 -28t-17.5 -14q-1 0 -2.5 1t-2.5 4v1.5t-1 1.5q0 3 1.5 6.5t2.5 6.5v0h1q1 3 2.5 6t1.5 6v1.5v1.5l-0.5 0.5t-0.5 1.5q-5 12 -36.5 21t-69.5 16l-24 4t-23 3q-13 2 -28 3t-30 1h-7.5h-7.5q-29 0 -53.5 -1.5t-35.5 -3.5l-4.5 -1.5
t-2.5 -0.5q-9 -7 -13.5 -18.5t-6.5 -23.5q-2 -7 -2.5 -14t-0.5 -13v-6.5t1 -5.5v-5v-3v-2v-3q3 -11 20 -23.5t61 -30.5l152 -58q55 -22 102 -48t72 -59q16 -20 28 -46.5t14 -54.5q1 -2 1 -4.5v-4.5q0 -8 -1.5 -16.5t-3.5 -16.5q-1 -4 -21 -18.5t-45 -31.5q-2 -2 -4.5 -3.5
t-4.5 -3.5q-7 -6 -14 -11t-13 -10q-1 -1 -2.5 -2t-2.5 -2q-9 -7 -17.5 -15t-16.5 -16q-24 -22 -44 -42t-32 -25q-13 -6 -24.5 -9t-22.5 -5q-13 -2 -26 -2.5t-28 -1.5h-6h-6h-2h-1h-2h-2q-17 0 -34.5 2t-34.5 5q-38 6 -73 18t-62 25q-22 10 -36.5 20.5t-16.5 17.5v1.5v0.5
q-1 1 -1 1.5v0.5q0 6 3.5 11t8.5 9q1 1 1.5 2t1.5 1l3.5 3.5l3.5 3.5l67 69q2 1 3.5 3t3.5 4q1 2 2.5 3.5l2.5 2.5q5 4 9 6t7 -3q1 -1 1 -2.5v-3.5l-2 -4t-3 -4q-2 -3 -3.5 -5.5t-1.5 -5.5v0v-1q0 -6 10.5 -14.5t28.5 -16.5q23 -11 54 -21t63 -16q19 -4 38 -6t36 -2
q38 0 71.5 4.5t55.5 18.5q2 2 3.5 9.5t1.5 19.5q0 10 -1 21.5t-4 24.5q-4 15 -10 29.5t-16 24.5q-9 10 -26 22t-74 35l-226 94q-1 -1 -2 -0.5t-2 1.5q-25 10 -46.5 23t-29.5 29q-5 12 -7.5 29t-3.5 35q-1 3 -1 6v6q0 23 3 42t7 26v1z" />
    <glyph glyph-name="t" unicode="t" horiz-adv-x="917" 
d="M159 600l114 68l-246 4q14 8 26 15l24 14q4 3 9 5.5t10 5.5q9 5 19 10l22 11q43 21 69 38.5t35 17.5q2 0 3 -0.5t2 -2.5q1 -3 -2 -7.5t-8 -9.5q-2 -2 -4.5 -4t-5.5 -5q-2 -1 -4.5 -3t-4.5 -3l-15 -10q45 -5 81.5 -7t72.5 -3q13 0 27 -0.5t28 -0.5q24 -1 49 -1.5t53 -1.5
q33 -1 62.5 -1.5t55.5 -0.5q83 0 133.5 3.5t78.5 8.5q25 4 35 8t12 4q-15 -9 -28 -17.5t-26 -15.5q-19 -10 -39 -17.5t-45 -13.5q-58 -14 -119.5 -17.5t-135.5 -3.5l-172 1q-3 -2 -6 -3.5t-6 -2.5q-11 -5 -21 -11t-18 -17q-17 -22 -29 -75t-12 -115v-8v-8q1 -35 6.5 -69
t16.5 -64q6 -16 34 -41.5t69 -53.5q31 -21 67.5 -41t73.5 -36q38 -15 74 -25t67 -10h10t9 1q34 4 62.5 15.5t50.5 24.5q25 16 41.5 28.5t23.5 13.5h1.5t1.5 -1q9 -6 -17.5 -31t-72.5 -54q-25 -16 -54 -31.5t-59 -27.5q-31 -13 -60.5 -20t-55.5 -7h-0.5h-1.5h-1.5h-0.5
q-30 1 -62 8.5t-65 20.5q-54 22 -106.5 55t-92.5 68q-33 30 -55 58.5t-26 50.5q-1 7 -4.5 21t-7.5 34q-5 24 -9 54.5t-4 61.5v2.5v3.5q1 48 16 93t57 69v1z" />
    <glyph glyph-name="u" unicode="u" horiz-adv-x="1061" 
d="M214 406l-1 -3q1 -12 3 -24t5 -23q22 -70 88 -135.5t141 -104.5q37 -20 74 -31.5t68 -11.5h2h2h2h2q40 2 65 12.5t39 22.5q16 14 21 25l5 11v509l-180 2l68 50q3 1 5.5 3t5.5 4q5 3 10.5 6t11.5 5l8 2l8 2t9 1.5t11 0.5l182 1l2 -146l3 -512l162 -6l-71 -54
q-1 -2 -2.5 -3t-3.5 -2q-4 -3 -8.5 -5t-10.5 -4q-4 -1 -7.5 -2t-6.5 -1h-7h-7h-2.5h-3.5l-173 3v102l-104 -60q-10 -7 -19.5 -12t-19.5 -9q-38 -19 -76 -28.5t-73 -9.5q-7 0 -14.5 0.5t-15.5 1.5q-24 3 -66 26t-87 60q-62 50 -114.5 119t-61.5 141q-1 5 -1.5 9.5t-0.5 8.5v3
v2q0 56 32 114t70 122q2 2 3.5 4.5t2.5 4.5l33 57l-191 3q10 8 23 17t26 16q26 15 48 25t25 11q7 2 20 3t29 1q11 0 23.5 -0.5t25.5 -0.5l28 -2t27 -2q20 -2 34.5 -3.5t15.5 -1.5q-2 -1 -23.5 -36t-46.5 -83q-8 -13 -15 -27.5t-14 -28.5q-17 -38 -29.5 -74.5t-12.5 -61.5
v-0.5v-1.5v-1.5v-0.5v1z" />
    <glyph glyph-name="v" unicode="v" horiz-adv-x="958" 
d="M609 170l-2 -2q-11 -16 -23.5 -32.5t-25.5 -34.5q-1 -2 -2.5 -3.5t-2.5 -3.5q-32 -43 -60 -76.5t-39 -34.5h-1.5t-1.5 1t-2 1.5t-2 1.5h-0.5t-0.5 1q-3 1 -5 3t-4 5l-29 59l-249 512q-2 3 -4 7l-4 8q-8 16 -17.5 29t-27.5 18q-1 0 -2 0.5t-2 0.5h-2h-2q-4 0 -7.5 -1
t-7.5 -2q-6 -2 -11.5 -5t-10.5 -6q-12 -7 -22 -12t-14 1q-1 1 -1 1.5v1.5q-1 6 11.5 14.5t28.5 17.5q2 2 5 3.5t6 3.5q4 3 7.5 5.5t6.5 4.5q7 6 14.5 12t14.5 12q23 19 44.5 35.5t40.5 16.5v0h1v0v0q27 0 43 -22t29 -48q0 -1 0.5 -1.5t0.5 -1.5l10 -19l246 -512
q23 31 41 57.5t33 51.5q6 9 11 17.5t10 16.5q11 20 23 41t25 46q21 39 37.5 72t30.5 65q9 18 16.5 37t15.5 38q8 20 16 42t17 47l-246 12l96 56q2 0 4 1t4 1q4 2 8 3l8 2q6 2 11 2h9q4 1 7.5 0.5t6.5 -0.5h4h4l204 1q-10 -26 -62 -133.5t-124 -230.5q-32 -54 -65.5 -106.5
t-68.5 -98.5v1z" />
    <glyph glyph-name="w" unicode="w" horiz-adv-x="1545" 
d="M753 74l-35 31l-99 -53q-5 -4 -21.5 -13t-39.5 -19q-19 -8 -41.5 -15.5t-45.5 -11.5q-9 -2 -18 -3t-18 -1h-3h-3q-2 1 -3.5 1h-3.5q-53 5 -92 23.5t-75 55.5q-2 1 -3.5 2.5t-2.5 3.5l-116 123q-2 1 -4 3t-4 5q-23 27 -42 69t-19 90q0 31 10 60t22 53q5 9 10 17.5t9 15.5
l93 155q-12 1 -24 2.5t-24 1.5q-6 1 -12 1h-12h-17t-19 -1t-19 -2t-18 -3q-9 -1 -17.5 -3t-19.5 -5q4 5 13 14t21 18q6 6 13 11l14 10q1 0 2 0.5t2 1.5q8 5 14 9.5t12 7.5q8 5 18 8t26 3l156 1q1 -1 1.5 -1h1.5h0.5h1.5q4 0 7.5 -0.5t5.5 -4.5q3 -4 0.5 -8.5t-6.5 -9.5
q-1 -1 -2.5 -3t-2.5 -4l-60 -107l-14.5 -29t-13.5 -30q-16 -37 -26 -71t-11 -48v-4.5v-4.5q0 -41 11.5 -73.5t36.5 -63.5l6.5 -6.5t6.5 -7.5l78 -83q17 -20 36.5 -35.5t39.5 -27.5q36 -22 69 -34t53 -13h6h6q17 0 35 3t37 10q7 2 14.5 5.5t14.5 7.5l45 27l-84 102
q-8 8 -14.5 17t-12.5 18q-16 25 -24.5 51t-9.5 60q0 26 6 46.5t15 40.5q8 15 17 31t19 34l77 144q-5 -1 -9.5 -1t-9.5 1h-8.5h-8.5h-7.5h-7.5h-22t-25 1h-10h-10h-5h-5h-13.5h-12.5q-14 -1 -29 -1.5t-33 -1.5l83 50q5 2 9.5 4t8.5 4q6 3 13 5t15 4q6 1 10.5 2t9.5 2
q5 0 9.5 0.5t10.5 0.5l189 1l-77 -135q-1 -3 -2.5 -5.5t-2.5 -4.5q-10 -16 -19.5 -30.5t-16.5 -28.5q-12 -21 -19.5 -42.5t-7.5 -47.5v-4t1 -4v-4v-4q2 -23 6.5 -41t13.5 -36q4 -7 8.5 -14.5t10.5 -15.5l59 -76q27 -37 61.5 -67t70.5 -52q31 -18 61.5 -28.5t56.5 -10.5h1.5
h1.5q36 1 64 7.5t55 21.5q10 6 20.5 13t21.5 15v13v512q-11 -1 -20 -0.5t-18 0.5q-10 1 -20 1h-22q-10 0 -21.5 -0.5t-23.5 -0.5q-9 0 -18.5 -0.5t-18.5 -0.5q-19 -1 -32.5 -2l-13.5 -1l110 60l6 2l6 2q3 2 7 3t9 2q2 1 4 1t4 1q4 0 8 0.5t8 0.5l185 1v-143v-512l190 1
l-90 -56q-5 -4 -9.5 -6.5t-8.5 -4.5q-6 -3 -13 -5.5t-15 -4.5q-6 -1 -11.5 -2t-10.5 -2q-6 -1 -11.5 -1h-11.5l-149 -3l-1 113l-120 -68q-18 -11 -33.5 -19.5t-31.5 -15.5q-19 -9 -38 -13.5t-42 -4.5h-4h-4q-3 1 -5 1h-4q-33 2 -58.5 12.5t-48.5 27.5q-12 9 -24 18.5
t-25 20.5v1z" />
    <glyph glyph-name="x" unicode="x" horiz-adv-x="1156" 
d="M429 428l-195 247h-206l99 55q4 1 7 2.5t6 3.5q4 2 8.5 3.5t9.5 2.5q4 1 7.5 2t6.5 2q3 0 6.5 0.5t7.5 0.5l171 1l166 -206l77 77q7 6 21.5 19t33.5 26q13 10 27 19.5t29 16.5q28 15 52.5 26t48.5 18q22 6 43.5 9.5t46.5 3.5q26 0 55 -3.5t64 -11.5l-135 -62
q-1 -1 -6.5 0t-14.5 2q-10 2 -23.5 3t-28.5 1q-16 0 -32 -1.5t-29 -6.5q-21 -7 -34.5 -18t-26.5 -25q-6 -8 -13.5 -16t-15.5 -17l-99 -107q19 -27 35 -48.5t32 -41.5q1 -1 2.5 -3t2.5 -4q16 -20 32.5 -41.5t36.5 -46.5q26 -33 47.5 -60t42.5 -52q2 -3 4.5 -6t5.5 -6
q21 -26 44 -53.5t51 -59.5q14 -1 25.5 -1.5t23.5 -0.5q11 -1 22.5 -1h25.5q20 0 36.5 0.5t32.5 1.5t31.5 2t34.5 3q-10 -7 -18.5 -12.5t-16.5 -10.5q-7 -4 -13.5 -7.5t-13.5 -6.5q-6 -3 -11.5 -5.5t-12.5 -5.5q-13 -6 -24.5 -11t-22.5 -10q-14 -5 -29 -8t-33 -3h-145l-40 40
t-151 178q-20 24 -36 44.5t-32 39.5q-1 2 -2 3t-2 3q-15 18 -30.5 38t-33.5 44l-325 -348q-2 -3 -16 -17t-32 -29q-5 -5 -10 -9l-10 -8l-8 -6l-8 -6q-6 -5 -12 -8.5t-12 -6.5l-18 -8t-19 -7q-3 -1 -6.5 -2t-6.5 -2q8 6 14 11.5t13 10.5q2 1 3.5 2.5l3.5 3.5q7 6 14.5 12.5
t15.5 13.5q5 5 11 10t12 9l2 2l2 2q17 16 31 29t16 16l310 376v0z" />
    <glyph glyph-name="y" unicode="y" horiz-adv-x="938" 
d="M179 570l53 92l-212 3l99 57q4 1 7 2.5t7 2.5q5 3 11 4.5t13 2.5q5 1 10 1.5t9 0.5h3.5h3.5h6.5t7.5 -1l161 -7l-113 -216q-5 -11 -9 -20.5t-7 -18.5q-3 -12 -5.5 -24t-3.5 -27v-4.5v-4.5q0 -22 7.5 -46t20.5 -48q30 -52 80.5 -101.5t105.5 -85.5q42 -27 82 -43t71 -16
q18 0 32.5 1.5t28.5 6.5q8 2 17 6t18 9l48 28v27v512h-201l90 56q2 0 3.5 1t3.5 3q1 1 2.5 1.5t2.5 1.5q3 3 6.5 5t8.5 4q3 1 6.5 2t6.5 2q4 1 9 1.5t10 0.5l188 1v-161v-512v-10.5t1 -9.5v-8.5v-9.5q0 -14 -3.5 -27t-14.5 -26q-5 -5 -30 -25t-57 -42q-3 -3 -6.5 -5.5
t-6.5 -4.5q-11 -7 -21 -14.5t-20 -13.5q-21 -14 -38 -27.5t-34 -25.5q-23 -17 -48 -30t-59 -20h-2t-2 -1h-2h-2q-22 0 -68 12t-98 29q-17 5 -34 11.5t-33 12.5q-4 1 -7.5 2.5t-6.5 2.5q-15 6 -31.5 12.5t-33.5 12.5q-17 7 -33.5 14t-31.5 13q-34 15 -57.5 30t-25.5 28v0v0v1
v0q-1 12 21.5 31t51.5 40q4 3 7.5 5.5t6.5 4.5q10 7 19 13.5t18 12.5q2 1 4 3t4 3q2 2 4 3t4 3l8 4t8 2h2t2 -1l1 -0.5t2 -1.5q3 -3 2.5 -6.5t-3.5 -6.5q-2 -2 -5 -4t-6 -5q-5 -4 -9.5 -9t-4.5 -11q1 -15 12.5 -21.5t25.5 -11.5h0.5h0.5q3 -1 5.5 -2t5.5 -2l152 -60
q4 -1 28 -9.5t59 -18.5q16 -5 34.5 -9.5t36.5 -8.5q23 -4 45 -7t41 -3q9 0 17.5 0.5t15.5 2.5q28 6 39.5 31.5t12.5 54.5q1 4 1 8.5v8.5v110l-159 -84q-13 -8 -24.5 -12.5t-23.5 -8.5q-17 -6 -35 -9.5t-40 -6.5h-2t-2 -1h-3h-2q-29 0 -69.5 23.5t-83.5 61.5
q-29 26 -57.5 56.5t-53.5 61.5q-41 51 -67 97.5t-26 75.5v5.5t1 4.5q8 38 19 67.5t25 57.5q11 20 23.5 41.5t27.5 45.5v1z" />
    <glyph glyph-name="z" unicode="z" horiz-adv-x="939" 
d="M616 674l-4 3l-512 15q6 1 12 3.5t12 4.5q4 2 8.5 4t8.5 4l18 8t19 9q8 4 15 7t13 7q3 1 5.5 2.5t5.5 2.5q8 4 16 9t18 10q49 -3 90 -5.5t80 -4.5q40 -2 81.5 -3.5t91.5 -2.5q33 -1 60.5 -1.5t54.5 -0.5h53.5h60.5q-19 -27 -35 -50t-32 -44q-5 -6 -9.5 -12t-9.5 -12
q-17 -23 -36 -46.5t-42 -50.5q-32 -38 -61 -68.5t-57 -57.5l-9.5 -9.5l-9.5 -9.5q-29 -28 -60.5 -58.5t-66.5 -68.5q-21 -23 -38.5 -42t-34.5 -38q-1 0 -1.5 -1t-1.5 -2q-17 -18 -34 -37.5t-38 -42.5l146 -16q78 -10 146.5 -15.5t132.5 -5.5q32 0 62.5 1.5t60.5 4.5
q19 2 35.5 8t30.5 13q20 10 32.5 17.5t15.5 3.5l0.5 -0.5t0.5 -1.5t0.5 -1.5l0.5 -0.5q0 -7 -9 -16t-23 -18q-6 -4 -12.5 -8t-12.5 -8q-8 -5 -15.5 -9t-14.5 -8q-19 -10 -37 -18t-35 -13q-39 -11 -79 -14.5t-88 -4.5q-62 0 -113 3.5t-100 8.5q-5 1 -9.5 1.5t-9.5 0.5
q-43 4 -89 8t-101 5q-15 0 -28 0.5t-25 0.5q-11 1 -23 1h-25h-6t-7 1q-10 1 -17 7.5t6 23.5q17 21 32.5 39.5t30.5 36.5q4 4 8 9t8 9q19 22 39 43.5t43 47.5q45 50 85 89.5t79 77.5q2 2 4.5 4t4.5 5q39 37 78.5 77.5t83.5 91.5q12 13 21.5 24.5t18.5 22.5q1 0 1.5 1t1.5 2
q9 11 18.5 22t20.5 25v1z" />
    <glyph glyph-name="braceleft" unicode="{" horiz-adv-x="296" 
d="M116 377l-16 -5l17 -7q2 -2 3 -2.5l3 -1.5q9 -4 16.5 -9t14.5 -13q1 -1 2 -2.5t2 -2.5q2 -3 4.5 -6.5t4.5 -6.5q4 -7 6 -15t2 -18v-251q0 -24 4 -42t19 -35q2 -2 3.5 -4t3.5 -4q7 -7 14.5 -12t18.5 -8l19 -6h-31q-10 0 -20.5 1t-21.5 4q-15 4 -30.5 11.5t-29.5 21.5
q-13 13 -18 34.5t-7 45.5v28v25v10.5v8.5v170v14q0 10 -3 18.5t-8 16.5q-2 2 -4 4.5t-4 4.5q-1 2 -2.5 3t-3.5 3q-5 4 -10 6.5t-10 5.5q-3 1 -6.5 2.5t-6.5 2.5l-13 7l13 6q3 0 5.5 1t5.5 3q10 4 18.5 9.5t16.5 15.5q2 3 4.5 6t3.5 6q5 8 7.5 16t3.5 19l1 13l7 234
q0 2 0.5 5.5t0.5 7.5q2 17 8 33.5t20 30.5q19 20 40.5 27t48.5 7l39 1l-20 -8q-12 -5 -19.5 -11t-15.5 -14q-1 -2 -2.5 -4t-3.5 -4q-4 -6 -7 -12.5t-5 -13.5q-4 -12 -5.5 -23.5t-1.5 -18.5l-6 -212v-17q0 -5 -2 -17t-6 -26q-3 -7 -6.5 -14.5t-8.5 -13.5q-2 -2 -4 -4.5
t-4 -4.5q-8 -7 -17 -12t-21 -9v1z" />
    <glyph glyph-name="bar" unicode="|" horiz-adv-x="223" 
d="M79 -259v490v512h72v-491v-511h-72v0z" />
    <glyph glyph-name="braceright" unicode="}" horiz-adv-x="295" 
d="M195 372l-16 5q-15 4 -25.5 10.5t-20.5 18.5q-5 6 -8.5 13.5t-6.5 14.5q-4 14 -6 26t-2 16v18l-6 213q0 6 -1.5 17.5t-5.5 23.5q-2 7 -5 13.5t-7 12.5q-2 2 -3.5 4.5t-3.5 4.5q-7 8 -14.5 13.5t-18.5 9.5l-20 9h39q27 -1 48.5 -8t40.5 -27q14 -14 20 -30.5t8 -33.5
q0 -4 0.5 -7.5t0.5 -6.5l6 -233l2 -12q1 -12 3 -20t7 -16q1 -3 3.5 -6t4.5 -6q8 -10 16 -15.5t19 -9.5q2 -2 5 -3l6 -2l12 -5l-13 -6q-3 -2 -6.5 -3.5t-6.5 -2.5q-5 -3 -10 -5.5t-10 -6.5l-3 -3l-3 -3t-4 -4.5t-4 -4.5q-5 -8 -8 -16.5t-3 -19.5v-13v-169v-9.5v-10.5v-25v-28
q-2 -24 -7 -45.5t-18 -34.5q-13 -14 -29 -21.5t-31 -11.5q-11 -3 -21.5 -4t-20.5 -1h-31l19 6q10 3 17 7t14 11l4.5 4.5l5.5 5.5q15 17 19 35t4 41v253q0 9 2 17t6 15q2 3 4.5 6.5t4.5 6.5q7 10 15.5 16t19.5 11q2 1 3.5 1.5t2.5 1.5l17 8v0z" />
    <glyph glyph-name="asciitilde" unicode="~" horiz-adv-x="714" 
d="M36 593l2 -1q4 5 7.5 9t6.5 7q1 1 2 2.5t3 2.5q2 2 4 3.5t4 3.5l83 73q7 5 12.5 10t11.5 10q12 10 24.5 17t29.5 10q4 1 8 1.5t8 0.5q2 0 3.5 0.5t3.5 0.5q11 0 20.5 -2t19.5 -5q9 -3 19 -7.5t20 -9.5l93 -44q8 -5 15 -7.5t15 -3.5q7 -2 14 -2.5t15 -0.5h14.5t15.5 1
q36 2 64 11.5t54 27.5q8 5 16 11.5t16 13.5q2 2 4 3l4 2q7 5 13.5 4.5t6.5 -4.5q0 -2 -1.5 -5t-6.5 -8q-6 -6 -11 -11.5t-10 -9.5l-4 -4l-4 -4q-4 -4 -9 -8t-11 -9l-77 -61q-9 -8 -17 -14.5t-16 -11.5q-17 -12 -35 -19.5t-41 -10.5q-6 -1 -12 -1.5t-12 -0.5q-15 0 -28 2.5
t-26 6.5q-11 4 -22.5 9.5t-24.5 12.5l-96 53q-5 1 -9 3l-8 4q-8 2 -15.5 3.5t-17.5 1.5h-2.5h-3.5q-22 0 -39 -8t-33 -21q-9 -8 -19 -17.5t-21 -19.5q-13 -10 -17.5 -7.5t-4.5 8.5q0 2 0.5 4.5t1.5 3.5v1z" />
    <glyph glyph-name="Adieresis" unicode="&#xc4;" horiz-adv-x="1052" 
d="M-137 -140v-2q16 13 28 24.5t23 23.5q8 8 16 16.5t15 16.5q11 13 21.5 26.5t22.5 29.5q10 12 16.5 22.5t12.5 20.5l2 4t3 4q8 14 18.5 32.5t27.5 48.5l74 127h-63l90 42l206 353q-13 0 -24 0.5t-22 1.5h-8.5h-9.5h-12h-13q-14 0 -25.5 -1t-22.5 -2q-10 0 -20.5 -1.5
t-22.5 -2.5l9 9l8 8q5 5 10.5 9.5t11.5 8.5q5 3 10.5 6.5t12.5 7.5q10 6 18 10.5t16 8.5q14 7 30.5 10t47.5 3l136 -1l69 -132l263 -512h87q9 -1 16 -1h14q6 1 12.5 1.5t13.5 1.5q6 1 11 2t11 3q5 1 10 2.5t11 3.5q-12 -14 -26 -25.5t-29 -21.5q-21 -14 -40.5 -23.5
t-31.5 -15.5q-11 -5 -30.5 -7t-42.5 -2h-5.5h-5.5q-17 0 -34 1t-30 2q-12 1 -20 2t-9 1l-134 252l-368 5l-110 -177q-6 -11 -12.5 -20.5t-13.5 -19.5q-14 -19 -31 -38t-38 -39q-13 -13 -25.5 -24t-24.5 -21q-15 -12 -30 -22.5t-33 -20.5q-8 -4 -17 -9t-19 -10h-1zM254 315
l304 -1l-139 264l-165 -263v0zM296 993v2l58 -54q1 -2 2 -3t3 -2q1 -2 2.5 -3t2.5 -3q4 -4 7.5 -8t3.5 -7t-3 -7.5t-7 -9.5q-1 -1 -2.5 -2t-2.5 -3l-2.5 -2.5l-3.5 -3.5l-64 -64q-1 -2 -1.5 -2.5l-1.5 -1.5t-2.5 -2t-3.5 -2q-2 -2 -4.5 -3.5t-4.5 -1.5t-4 1t-4 3l-2 2l-2 2
q-2 1 -3 2.5t-2 2.5l-64 67q-1 0 -2.5 1.5t-3.5 2.5l-2 2t-3 2q-4 4 -7 8t-3 9v3.5t1 2.5q0 1 6 7t14 13l2 2l2 2q3 3 6 5.5t6 4.5l44 37q1 0 2.5 1.5t3.5 2.5q0 1 1 1.5t1 1.5q4 3 8.5 6t7.5 3v0h1v0v0q3 -1 7 -4t7 -7q2 -1 3.5 -2.5l2.5 -2.5v1zM568 995v2l58 -54
q1 -2 2 -3t3 -2q1 -2 2.5 -3t2.5 -3q4 -4 7.5 -8t3.5 -7t-3 -7.5t-7 -9.5q-1 -1 -2.5 -2t-2.5 -3l-2.5 -2.5l-3.5 -3.5l-64 -64q-1 -2 -1.5 -2.5l-1.5 -1.5t-2.5 -2t-3.5 -2q-2 -2 -4.5 -3.5t-4.5 -1.5t-4 1t-4 3l-2 2l-2 2q-2 1 -3 2.5t-2 2.5l-65 67q-1 0 -2.5 1.5
t-3.5 2.5l-2 2t-3 2q-4 4 -7 8t-3 9v3.5t1 2.5q0 1 6 7t14 13l2 2l2 2q3 3 6 5.5t6 4.5l45 37q1 0 2.5 1.5t3.5 2.5q0 1 1 1.5t1 1.5q4 3 8.5 6t7.5 3v0h1v0v0q3 -1 7 -4t7 -7q2 -1 3.5 -2.5l2.5 -2.5v1z" />
    <glyph glyph-name="Aring" unicode="&#xc5;" horiz-adv-x="1045" 
d="M-137 -140v-2q16 13 28 24.5t23 23.5q8 8 16 16.5t15 16.5q11 13 21.5 26.5t22.5 29.5q10 12 16.5 22.5t12.5 20.5l2 4t3 4q8 14 18.5 32.5t27.5 48.5l74 127h-63l90 42l206 353q-13 0 -24 0.5t-22 1.5h-8.5h-9.5h-12h-13q-14 0 -25.5 -1t-22.5 -2q-10 0 -20.5 -1.5
t-22.5 -2.5l9 9l8 8q5 5 10.5 9.5t11.5 8.5q5 3 10.5 6.5t12.5 7.5q10 6 18 10.5t16 8.5q14 7 30.5 10t47.5 3l136 -1l69 -132l263 -512h87q9 -1 16 -1h14q6 1 12.5 1.5t13.5 1.5q6 1 11 2t11 3q5 1 10 2.5t11 3.5q-12 -14 -26 -25.5t-29 -21.5q-21 -14 -40.5 -23.5
t-31.5 -15.5q-11 -5 -30.5 -7t-42.5 -2h-5.5h-5.5q-17 0 -34 1t-30 2q-12 1 -20 2t-9 1l-134 252l-368 5l-110 -177q-6 -11 -12.5 -20.5t-13.5 -19.5q-14 -19 -31 -38t-38 -39q-13 -13 -25.5 -24t-24.5 -21q-15 -12 -30 -22.5t-33 -20.5q-8 -4 -17 -9t-19 -10h-1zM254 315
l304 -1l-139 264l-165 -263v0zM506 964v-1q5 -8 6.5 -16.5t2.5 -16.5q0 -20 -11 -38.5t-31 -29.5l-74 -38q-8 -5 -16.5 -7t-17.5 -2q-19 0 -35.5 9t-26.5 26q-4 7 -6 14.5t-2 14.5v4.5t1 4.5q3 21 18.5 40.5t36.5 29.5l53 27q7 2 14 4.5t14 3.5q3 0 7 0.5t7 0.5q18 0 34 -7
t26 -24v1zM369 885v-1q7 -14 19.5 -23t26.5 -9q5 0 9.5 1t8.5 3q9 5 13 13.5t4 18.5q0 3 -0.5 6.5t-0.5 6.5q-2 11 -6.5 21t-10.5 16q-8 9 -19 15t-22 6h-4t-4 -1q-3 0 -5 -1l-4 -2q-8 -4 -11.5 -12.5t-3.5 -17.5q0 -11 3 -22t7 -19v1z" />
    <glyph glyph-name="Ccedilla" unicode="&#xc7;" horiz-adv-x="869" 
d="M238 81l-6 4q-85 57 -145.5 130t-60.5 162v7.5v7.5q0 3 0.5 6.5t0.5 7.5q6 57 25.5 110t41.5 86q4 6 8 11t8 9q1 2 29.5 8.5t61.5 16.5q15 5 28.5 10t25.5 10q7 3 14.5 7t15.5 8q7 5 14.5 9.5t14.5 9.5q25 16 44 30t24 14q18 2 39.5 3.5t43.5 1.5q25 0 51.5 -1.5
t53.5 -3.5q98 -9 181.5 -29t91.5 -42q1 -1 1 -1.5v-1.5v-2.5v-2.5q0 -10 -3.5 -17.5t-9.5 -15.5l-69 -83q-2 -4 -4 -6.5t-5 -5.5q-1 -2 -2.5 -4t-2.5 -4q-6 -7 -11.5 -11t-9.5 -1q-1 1 0.5 6.5t4.5 13.5q1 3 2 7.5t2 8.5q0 3 0.5 5.5t0.5 5.5v3.5v2.5q-5 24 -35 40.5
t-66 25.5q-11 3 -22.5 5t-22.5 3l-168 19q-12 1 -24.5 1.5t-25.5 0.5h-2h-2q-42 0 -79.5 -9t-49.5 -28q-36 -59 -52 -110.5t-16 -95.5q0 -94 61 -158t149 -105l116 -53q17 -8 31.5 -13.5t28.5 -8.5q13 -3 26 -4.5t28 -1.5h6t6 1h5h6q26 2 46.5 7.5t39.5 14.5q14 7 28.5 14.5
t30.5 16.5l20 12l-2 -15l-89 -56q-14 -10 -26 -16.5t-23 -12.5q-15 -7 -30.5 -12.5t-34.5 -11.5q-9 -2 -20 -5t-23 -6q-18 -4 -34 -6t-32 -2h-4.5h-4.5q-17 1 -34 3t-37 6l-39 -54q8 1 15.5 2t14.5 1q5 0 9.5 -0.5t9.5 -0.5q9 -1 18.5 -3.5t19.5 -4.5q2 -1 10 -4t17 -7
q1 0 2 -0.5t2 -1.5q3 -1 5.5 -2t4.5 -2q3 -1 6 -2.5t6 -3.5q1 0 2 -0.5t2 -1.5q9 -4 16 -7.5t7 -4.5l1.5 -1.5l1.5 -1.5q7 -9 13.5 -25t8.5 -33v-3v-2v-1.5v-1.5v-0.5v-1.5q0 -26 -18.5 -47.5t-44.5 -37.5q-9 -6 -17.5 -10t-17.5 -7t-17.5 -4.5t-17.5 -1.5q-15 -1 -31 4
t-33 16l-25 16l-1 4l6 -3q5 -3 9 -5.5t8 -4.5l12 -4t13 -2h2h2h1h2q3 0 6.5 0.5t6.5 0.5q4 1 9 2.5t10 4.5l33 15q26 12 44 30.5t18 45.5q0 13 -4.5 28t-15.5 32q-3 5 -13.5 7.5t-23.5 2.5h-8.5t-8.5 -1l-48 -5l-49 -11l-20 24l36 87q-32 11 -49.5 18t-28.5 13q-3 1 -6 3
l-6 4q-8 4 -15.5 9.5t-19.5 13.5v1z" />
    <glyph glyph-name="Eacute" unicode="&#xc9;" horiz-adv-x="837" 
d="M96 623l-2 -1q5 3 33 11.5t60 20.5q12 4 24 9t23 10q11 6 22 13t21 14q20 14 37.5 26.5t31.5 13.5q4 1 8.5 1h9.5q13 0 28.5 -1t32.5 -3q4 -1 8 -1.5t8 -0.5l228 -23q4 -1 25 -4t46 -10q26 -7 48 -18t23 -28v0v-1q0 -7 -3.5 -14t-9.5 -14q-4 -6 -10 -12l-12 -12
q-5 -5 -9.5 -10t-8.5 -10q-8 -11 -14.5 -19.5t-13.5 -17.5q0 -1 -1 -2l-1 -1l-14 -18t-15 -19q4 10 6 19t2 18q0 13 -3.5 25.5t-11.5 25.5q-15 26 -41 33t-55 9q-5 1 -10 1t-10 1l-207 24q-18 1 -35 2.5t-34 1.5q-19 0 -36 -2.5t-34 -9.5q-21 -9 -37.5 -53t-23.5 -95
q-2 -12 -3 -24t-1 -23l-2 -49l435 -15q8 -1 16 -1h15h11.5h11.5q11 0 23 1.5t26 3.5q9 2 17 3.5t15 2.5q8 2 15.5 4t16.5 5l2 -8q-7 -4 -19 -10.5t-27 -12.5q-12 -6 -25.5 -11t-27.5 -9q-2 0 -4.5 -0.5t-4.5 -1.5q-54 -12 -113.5 -16t-130.5 -5l-222 -2q11 -18 31.5 -42
t46.5 -50q21 -20 44.5 -39t48.5 -35q23 -14 44.5 -26.5t43.5 -22.5q31 -15 62.5 -23.5t66.5 -8.5q14 0 29 1.5t31 4.5q8 2 17.5 5t18.5 7q7 4 14.5 7.5t14.5 7.5q22 12 38 21.5t16 5.5t-3 -9t-8 -10q-4 -4 -9 -8t-10 -7q-1 -1 -2.5 -2t-3.5 -2l-123 -76q-11 -8 -21.5 -13
t-20.5 -8q-20 -7 -40 -10t-46 -4h-6h-6q-26 0 -55.5 5.5t-59.5 18.5q-23 9 -45.5 22.5t-43.5 30.5l-117 96q-56 44 -82 97.5t-26 123.5v16t1 16q1 12 2.5 25t4.5 25q8 47 22.5 88t29.5 57q1 1 2 1.5t2 1.5v1zM517 976l-1 3l95 15q3 -1 6 -0.5t6 1.5h2h1q6 1 10.5 2t7.5 1
h3.5t1.5 -1q1 -1 -2.5 -4.5t-9.5 -6.5q0 -1 -1 -1.5l-1 -0.5q-3 -2 -5 -3.5t-4 -2.5l-159 -100q-4 -3 -7 -5.5t-7 -4.5q-5 -3 -10 -5.5t-11 -4.5q-7 -3 -13 -5t-12 -3q-5 -2 -10 -3l-10 -2q-2 -1 -4.5 -1t-5.5 -1l-86 -15q-4 -2 -8 -2.5t-8 -1.5q-1 0 -1.5 -0.5l-0.5 -0.5
q-7 -1 -13.5 -2.5t-11.5 -1.5h-2.5t-2.5 1q-3 3 -1 6.5t7 7.5q2 1 4.5 3t5.5 4q2 2 5 3.5l5 2.5l164 99q4 1 7.5 3.5t6.5 4.5q4 3 8.5 5.5t9.5 4.5t10 3.5t10 2.5t9 1.5t9 1.5q3 0 6.5 0.5t7.5 1.5v1z" />
    <glyph glyph-name="Ntilde" unicode="&#xd1;" horiz-adv-x="969" 
d="M203 0v153v512l-177 3l125 66h191v-101l30 20q14 8 29 17t30 17q49 27 94.5 45.5t77.5 23.5h2.5t2.5 1h2.5h2.5q27 0 64.5 -16.5t77.5 -44.5q70 -50 128 -129t58 -167q0 -59 -27 -114.5t-60 -99.5q-22 -29 -42 -50.5t-32 -33.5l-131 -127l-15 -15t-20 -18l-4 -4l-4 -4
q-18 -17 -33.5 -27.5t-17.5 -2.5q-2 6 11.5 23t29.5 36q0 1 0.5 1.5l1.5 1.5q6 7 11 13.5t10 12.5l41 53q20 25 38 51t32 52q30 51 47 103.5t19 107.5v3.5v2.5q0 66 -34 123.5t-74 96.5q-15 14 -30 25t-28 18l-63 36q-2 0 -8.5 2.5t-16.5 5.5q-8 3 -18.5 5.5t-21.5 3.5
q-4 1 -7.5 1h-6.5q-5 0 -10 -0.5t-10 -1.5q-41 -9 -77 -45t-49 -78q-2 -9 -3.5 -17.5t-1.5 -16.5v-473l-134 -50v0zM199 866l2 -1q4 5 7.5 9t6.5 7q1 1 2 2.5t3 2.5q2 2 4 3.5t4 3.5l83 73q7 5 12.5 10t11.5 10q12 10 24.5 17t29.5 10q4 1 8 1.5t8 0.5q2 0 3.5 0.5t3.5 0.5
q11 0 20.5 -2t19.5 -5q9 -3 19 -7.5t20 -9.5l94 -44q8 -5 15 -7.5t15 -3.5q7 -2 14 -2.5t15 -0.5h14t15 1q36 2 64 11.5t54 27.5q8 5 16 11.5t16 13.5q2 2 4 3l4 2q7 5 13.5 4.5t6.5 -4.5q0 -2 -1.5 -5t-6.5 -8q-6 -6 -11 -11.5t-10 -9.5l-4 -4l-4 -4q-4 -4 -9 -8t-11 -9
l-77 -61q-9 -8 -17.5 -14.5t-16.5 -12.5q-16 -11 -33.5 -18.5t-40.5 -10.5q-6 -1 -12 -1.5t-12 -0.5q-15 0 -28.5 2.5t-26.5 6.5q-11 4 -22.5 9.5t-24.5 12.5l-96 53q-5 1 -9 3l-8 4q-8 2 -15.5 3.5t-17.5 1.5h-2.5h-3.5q-22 0 -39 -8t-33 -21q-9 -8 -19 -17.5t-21 -19.5
q-13 -10 -17.5 -7.5t-4.5 8.5q0 2 0.5 4.5t1.5 3.5v1z" />
    <glyph glyph-name="Odieresis" unicode="&#xd6;" horiz-adv-x="853" 
d="M560 736l-2 -1q118 -35 191 -122t74 -211v-2.5v-2.5v-3v-3q0 -81 -25.5 -146t-94.5 -110l-141 -92q-43 -29 -86 -42t-87 -13q-42 0 -84.5 11.5t-86.5 33.5q-91 48 -139.5 128.5t-48.5 178.5q0 17 1 33.5t4 32.5q13 80 44.5 137.5t100.5 98.5l141 85q22 12 53 18.5t67 6.5
q21 0 43.5 -2t45.5 -7q7 -2 15 -4t15 -4v1zM181 268l1 -1q5 -16 26.5 -38.5t55.5 -47.5q37 -27 84.5 -52t97.5 -39q20 -5 40 -8t39 -3q30 0 58 8.5t51 28.5q26 23 43 80t17 125q0 10 -0.5 20.5t-1.5 20.5q-4 50 -19 97.5t-45 84.5q-31 39 -80 64.5t-101 38.5
q-37 10 -72.5 14.5t-64.5 4.5q-28 0 -48 -3.5t-29 -9.5q-30 -20 -50.5 -91.5t-20.5 -154.5v-10v-11q1 -31 5.5 -61t13.5 -58v1zM309 1003v2l58 -54q1 -2 2 -3t3 -2q1 -2 2.5 -3t2.5 -3q4 -4 7.5 -8t3.5 -7t-3 -7.5t-7 -9.5q-1 -1 -2.5 -2t-2.5 -3l-2.5 -2.5l-3.5 -3.5
l-64 -64q-1 -2 -1.5 -2.5l-1.5 -1.5t-2.5 -2t-3.5 -2q-2 -2 -4.5 -3.5t-4.5 -1.5t-4 1t-4 3l-2 2l-2 2q-2 1 -3 2.5t-2 2.5l-64 67q-1 0 -2.5 1.5t-3.5 2.5l-2 2t-3 2q-4 4 -7 8t-3 9v3.5t1 2.5q0 1 6 7t14 13l2 2l2 2q3 3 6 5.5t6 4.5l44 37q1 0 2.5 1.5t3.5 2.5q0 1 1 1.5
t1 1.5q4 3 8.5 6t7.5 3v0h1v0v0q3 -1 7 -4t7 -7q2 -1 3.5 -2.5l2.5 -2.5v1zM581 1005v2l58 -54q1 -2 2 -3t3 -2q1 -2 2.5 -3t2.5 -3q4 -4 7.5 -8t3.5 -7t-3 -7.5t-7 -9.5q-1 -1 -2.5 -2t-2.5 -3l-2.5 -2.5l-3.5 -3.5l-64 -64q-1 -2 -1.5 -2.5l-1.5 -1.5t-2.5 -2t-3.5 -2
q-2 -2 -4.5 -3.5t-4.5 -1.5t-4 1t-4 3l-2 2l-2 2q-2 1 -3 2.5t-2 2.5l-65 67q-1 0 -2.5 1.5t-3.5 2.5l-2 2t-3 2q-4 4 -7 8t-3 9v3.5t1 2.5q0 1 6 7t14 13l2 2l2 2q3 3 6 5.5t6 4.5l45 37q1 0 2.5 1.5t3.5 2.5q0 1 1 1.5t1 1.5q4 3 8.5 6t7.5 3v0h1v0v0q3 -1 7 -4t7 -7
q2 -1 3.5 -2.5l2.5 -2.5v1z" />
    <glyph glyph-name="Udieresis" unicode="&#xdc;" horiz-adv-x="1057" 
d="M214 406l-1 -3q1 -12 3 -24t5 -23q22 -70 88 -135.5t141 -104.5q37 -20 74 -31.5t68 -11.5h2h2h2h2q40 2 65 12.5t39 22.5q16 14 21 25l5 11v509l-180 2l68 50q3 1 5.5 3t5.5 4q5 3 10.5 6t11.5 5l8 2l8 2t9 1.5t11 0.5l182 1l2 -146l3 -512l162 -6l-71 -54
q-1 -2 -2.5 -3t-3.5 -2q-4 -3 -8.5 -5t-10.5 -4q-4 -1 -7.5 -2t-6.5 -1h-7h-7h-2.5h-3.5l-173 3v102l-104 -60q-10 -7 -19.5 -12t-19.5 -9q-38 -19 -76 -28.5t-73 -9.5q-7 0 -14.5 0.5t-15.5 1.5q-24 3 -66 26t-87 60q-62 50 -114.5 119t-61.5 141q-1 5 -1.5 9.5t-0.5 8.5v3
v2q0 56 32 114t70 122q2 2 3.5 4.5t2.5 4.5l33 57l-191 3q10 8 23 17t26 16q26 15 48 25t25 11q7 2 20 3t29 1q11 0 23.5 -0.5t25.5 -0.5l28 -2t27 -2q20 -2 34.5 -3.5t15.5 -1.5q-2 -1 -23.5 -36t-46.5 -83q-8 -13 -15 -27.5t-14 -28.5q-17 -38 -29.5 -74.5t-12.5 -61.5
v-0.5v-1.5v-1.5v-0.5v1zM394 1002v2l58 -54q1 -2 2 -3t3 -2q1 -2 2.5 -3t2.5 -3q4 -4 7.5 -8t3.5 -7t-3 -7.5t-7 -9.5q-1 -1 -2.5 -2t-2.5 -3l-2.5 -2.5l-3.5 -3.5l-64 -64q-1 -2 -1.5 -2.5l-1.5 -1.5t-2.5 -2t-3.5 -2q-2 -2 -4.5 -3.5t-4.5 -1.5t-4 1t-4 3l-2 2l-2 2
q-2 1 -3 2.5t-2 2.5l-64 67q-1 0 -2.5 1.5t-3.5 2.5l-2 2t-3 2q-4 4 -7 8t-3 9v3.5t1 2.5q0 1 6 7t14 13l2 2l2 2q3 3 6 5.5t6 4.5l44 37q1 0 2.5 1.5t3.5 2.5q0 1 1 1.5t1 1.5q4 3 8.5 6t7.5 3v0h1v0v0q3 -1 7 -4t7 -7q2 -1 3.5 -2.5l2.5 -2.5v1zM666 1004v2l58 -54
q1 -2 2 -3t3 -2q1 -2 2.5 -3t2.5 -3q4 -4 7.5 -8t3.5 -7t-3 -7.5t-7 -9.5q-1 -1 -2.5 -2t-2.5 -3l-2.5 -2.5l-3.5 -3.5l-64 -64q-1 -2 -1.5 -2.5l-1.5 -1.5t-2.5 -2t-3.5 -2q-2 -2 -4.5 -3.5t-4.5 -1.5t-4 1t-4 3l-2 2l-2 2q-2 1 -3 2.5t-2 2.5l-64 67q-1 0 -2.5 1.5
t-3.5 2.5l-2 2t-3 2q-4 4 -7 8t-3 9v3.5t1 2.5q0 1 6 7t14 13l2 2l2 2q3 3 6 5.5t6 4.5l44 37q1 0 2.5 1.5t3.5 2.5q0 1 1 1.5t1 1.5q4 3 8.5 6t7.5 3v0h1v0v0q3 -1 7 -4t7 -7q2 -1 3.5 -2.5l2.5 -2.5v1z" />
    <glyph glyph-name="aacute" unicode="&#xe1;" horiz-adv-x="1050" 
d="M-93 -138v-2q16 13 28 24.5t23 23.5q8 8 16 16.5t15 16.5q11 13 21 26.5t22 29.5q10 12 17 22.5t13 20.5l2 4t3 4q8 14 18.5 32.5t27.5 48.5l74 127h-63l90 42l206 353q-13 0 -24 0.5t-22 1.5h-8.5h-9.5h-12h-13q-14 0 -25.5 -1t-22.5 -2q-10 0 -20.5 -1.5t-22.5 -2.5
l9 9l8 8q5 5 10.5 9.5t11.5 8.5q5 3 10.5 6.5t12.5 7.5q10 6 18 10.5t16 8.5q14 7 30.5 10t47.5 3l136 -1l69 -132l263 -512h87q9 -1 16 -1h14q6 1 12.5 1.5t13.5 1.5q6 1 11 2t11 3q5 1 10 2.5t11 3.5q-12 -14 -26 -25.5t-29 -21.5q-21 -14 -40.5 -23.5t-31.5 -15.5
q-11 -5 -30.5 -7t-42.5 -2h-5.5h-5.5q-17 0 -34 0.5t-30 2.5q-12 1 -20 2t-9 1l-134 252l-368 5l-110 -177q-6 -11 -12.5 -20.5t-13.5 -19.5q-14 -19 -31 -38t-38 -39q-14 -13 -26.5 -24t-24.5 -21q-14 -12 -29 -22.5t-33 -20.5q-8 -4 -17 -9t-19 -10h-1zM298 317l304 -1
l-139 264l-165 -263v0zM550 977l-1 3l95 15q3 -1 6 -0.5t6 1.5h2h1q6 1 10.5 2t7.5 1h3.5t1.5 -1q1 -1 -2.5 -4.5t-9.5 -6.5q0 -1 -1 -1.5l-1 -0.5q-3 -2 -5 -3.5t-4 -2.5l-158 -100q-5 -4 -9.5 -6.5t-8.5 -5.5q-4 -2 -8.5 -4t-9.5 -4q-7 -3 -13 -5t-12 -3q-5 -2 -10 -3
l-10 -2q-2 -1 -4.5 -1t-5.5 -1l-86 -15q-4 -2 -8 -2.5t-8 -1.5q-1 0 -1.5 -0.5l-0.5 -0.5q-7 -1 -13.5 -2.5t-11.5 -1.5h-2.5t-2.5 1q-3 3 -1 6.5t7 7.5q2 1 4.5 3t5.5 4q2 2 5 3.5l5 2.5l164 99q4 1 7.5 3.5t6.5 4.5q4 3 8.5 5.5t9.5 4.5q7 3 13.5 4.5t12.5 2.5q3 1 6 1.5
t7 0.5q3 0 6 0.5t7 1.5v1z" />
    <glyph glyph-name="agrave" unicode="&#xe0;" horiz-adv-x="1050" 
d="M-137 -140v-2q16 13 28 24.5t23 23.5q8 8 16 16.5t15 16.5q11 13 21.5 26.5t22.5 29.5q10 12 16.5 22.5t12.5 20.5l2 4t3 4q8 14 18.5 32.5t27.5 48.5l74 127h-63l90 42l206 353q-13 0 -24 0.5t-22 1.5h-8.5h-9.5h-12h-13q-14 0 -25.5 -1t-22.5 -2q-10 0 -20.5 -1.5
t-22.5 -2.5l9 9l8 8q5 5 10.5 9.5t11.5 8.5q5 3 10.5 6.5t12.5 7.5q10 6 18 10.5t16 8.5q14 7 30.5 10t47.5 3l136 -1l69 -132l263 -512h87q9 -1 16 -1h14q6 1 12.5 1.5t13.5 1.5q6 1 11 2t11 3q5 1 10 2.5t11 3.5q-12 -14 -26 -25.5t-29 -21.5q-21 -14 -40.5 -23.5
t-31.5 -15.5q-11 -5 -30.5 -7t-42.5 -2h-5.5h-5.5q-17 0 -34 1t-30 2q-12 1 -20 2t-9 1l-134 252l-368 5l-110 -177q-6 -11 -12.5 -20.5t-13.5 -19.5q-14 -19 -31 -38t-38 -39q-13 -13 -25.5 -24t-24.5 -21q-15 -12 -30 -22.5t-33 -20.5q-8 -4 -17 -9t-19 -10h-1zM254 315
l304 -1l-139 264l-165 -263v0zM434 843h1q-3 0 -6 1l-6 2q-11 3 -21 6.5t-19 7.5q-11 5 -21.5 10t-23.5 11l-110 58q-1 0 -2 0.5t-2 0.5q-7 4 -12.5 9t-5.5 11q0 3 4 5.5t10 4.5q5 2 10 3.5t11 3.5l63 22q1 -1 2.5 -0.5t2.5 1.5q4 2 8.5 3.5t8.5 1.5h2h2l1 -0.5t2 -0.5
q8 -3 28.5 -18t44.5 -32q3 -2 5 -3.5t4 -2.5q7 -6 14.5 -10.5t14.5 -9.5q25 -15 45.5 -28t40.5 -25q4 -2 8 -4.5t8 -4.5q17 -10 35 -20.5t39 -21.5h-7h-13q-18 0 -46.5 1t-59.5 5q-15 2 -30.5 5t-29.5 7v1z" />
    <glyph glyph-name="acircumflex" unicode="&#xe2;" horiz-adv-x="1050" 
d="M-137 -140v-2q16 13 28 24.5t23 23.5q8 8 16 16.5t15 16.5q11 13 21.5 26.5t22.5 29.5q10 12 16.5 22.5t12.5 20.5l2 4t3 4q8 14 18.5 32.5t27.5 48.5l74 127h-63l90 42l206 353q-13 0 -24 0.5t-22 1.5h-8.5h-9.5h-12h-13q-14 0 -25.5 -1t-22.5 -2q-10 0 -20.5 -1.5
t-22.5 -2.5l9 9l8 8q5 5 10.5 9.5t11.5 8.5q5 3 10.5 6.5t12.5 7.5q10 6 18 10.5t16 8.5q14 7 30.5 10t47.5 3l136 -1l69 -132l263 -512h87q9 -1 16 -1h14q6 1 12.5 1.5t13.5 1.5q6 1 11 2t11 3q5 1 10 2.5t11 3.5q-12 -14 -26 -25.5t-29 -21.5q-21 -14 -40.5 -23.5
t-31.5 -15.5q-11 -5 -30.5 -7t-42.5 -2h-5.5h-5.5q-17 0 -34 1t-30 2q-12 1 -20 2t-9 1l-134 252l-368 5l-110 -177q-6 -11 -12.5 -20.5t-13.5 -19.5q-14 -19 -31 -38t-38 -39q-13 -13 -25.5 -24t-24.5 -21q-15 -12 -30 -22.5t-33 -20.5q-8 -4 -17 -9t-19 -10h-1zM254 315
l304 -1l-139 264l-165 -263v0zM365 971l104 21q2 -1 4 -0.5t3 0.5q2 1 4 1t4 1h2h2h3t3 -1q1 0 2.5 -0.5t2.5 -0.5q8 -3 29 -18t45 -32q2 -2 4.5 -3.5t4.5 -2.5q7 -5 14.5 -10t14.5 -10l44 -27.5t40 -24.5q4 -3 8 -5.5t9 -4.5q17 -10 35 -20.5t39 -21.5h-7h-13q-18 0 -46 1
t-57 5q-16 2 -32 5t-30 7l-6 2l-6 2q-11 3 -21 6.5t-19 7.5q-11 5 -21.5 10t-23.5 11l-105 55l-81 -52q-4 -3 -7 -5.5t-7 -4.5q-5 -3 -10 -5.5t-11 -4.5q-7 -3 -13 -5t-12 -3q-5 -2 -10 -3l-10 -2q-2 -1 -4.5 -1t-5.5 -1l-86 -15q-4 -1 -7.5 -2t-7.5 -2h-2.5t-2.5 -1
q-7 -1 -13.5 -2.5t-10.5 -1.5h-2.5t-1.5 1v0.5v0.5l-1 1v0q0 2 1.5 4.5t4.5 5.5q2 2 5.5 5t7.5 5q2 1 4 2.5t4 2.5l164 99q4 1 7.5 3t6.5 4q5 3 9.5 5t9.5 4q6 2 11.5 4t10.5 4q6 2 12 3.5t14 2.5v1z" />
    <glyph glyph-name="adieresis" unicode="&#xe4;" horiz-adv-x="1048" 
d="M-137 -140v-2q16 13 28 24.5t23 23.5q8 8 16 16.5t15 16.5q11 13 21.5 26.5t22.5 29.5q10 12 16.5 22.5t12.5 20.5l2 4t3 4q8 14 18.5 32.5t27.5 48.5l74 127h-63l90 42l206 353q-13 0 -24 0.5t-22 1.5h-8.5h-9.5h-12h-13q-14 0 -25.5 -1t-22.5 -2q-10 0 -20.5 -1.5
t-22.5 -2.5l9 9l8 8q5 5 10.5 9.5t11.5 8.5q5 3 10.5 6.5t12.5 7.5q10 6 18 10.5t16 8.5q14 7 30.5 10t47.5 3l136 -1l69 -132l263 -512h87q9 -1 16 -1h14q6 1 12.5 1.5t13.5 1.5q6 1 11 2t11 3q5 1 10 2.5t11 3.5q-12 -14 -26 -25.5t-29 -21.5q-21 -14 -40.5 -23.5
t-31.5 -15.5q-11 -5 -30.5 -7t-42.5 -2h-5.5h-5.5q-17 0 -34 1t-30 2q-12 1 -20 2t-9 1l-134 252l-368 5l-110 -177q-6 -11 -12.5 -20.5t-13.5 -19.5q-14 -19 -31 -38t-38 -39q-13 -13 -25.5 -24t-24.5 -21q-15 -12 -30 -22.5t-33 -20.5q-8 -4 -17 -9t-19 -10h-1zM254 315
l304 -1l-139 264l-165 -263v0zM293 1002v2l58 -54q1 -2 2 -3t3 -2q1 -2 2.5 -3t2.5 -3q4 -4 7.5 -8t3.5 -7t-3 -7.5t-7 -9.5q-1 -1 -2.5 -2t-2.5 -3l-2.5 -2.5l-3.5 -3.5l-64 -64q-1 -2 -1.5 -2.5l-1.5 -1.5t-2.5 -2t-3.5 -2q-2 -2 -4.5 -3.5t-4.5 -1.5t-4 1t-4 3l-2 2l-2 2
q-2 1 -3 2.5t-2 2.5l-64 67q-1 0 -2.5 1.5t-3.5 2.5l-2 2t-3 2q-4 4 -7 8t-3 9v3.5t1 2.5q0 1 6 7t14 13l2 2l2 2q3 3 6 5.5t6 4.5l44 37q1 0 2.5 1.5t3.5 2.5q0 1 1 1.5t1 1.5q4 3 8.5 6t7.5 3v0h1v0v0q3 -1 7 -4t7 -7q2 -1 3.5 -2.5l2.5 -2.5v1zM565 1004v2l58 -54
q1 -2 2 -3t3 -2q1 -2 2.5 -3t2.5 -3q4 -4 7.5 -8t3.5 -7t-3 -7.5t-7 -9.5q-1 -1 -2.5 -2t-2.5 -3l-2.5 -2.5l-3.5 -3.5l-64 -64q-1 -2 -1.5 -2.5l-1.5 -1.5t-2.5 -2t-3.5 -2q-2 -2 -4.5 -3.5t-4.5 -1.5t-4 1t-4 3l-2 2l-2 2q-2 1 -3 2.5t-2 2.5l-65 67q-1 0 -2.5 1.5
t-3.5 2.5l-2 2t-3 2q-4 4 -7 8t-3 9v3.5t1 2.5q0 1 6 7t14 13l2 2l2 2q3 3 6 5.5t6 4.5l45 37q1 0 2.5 1.5t3.5 2.5q0 1 1 1.5t1 1.5q4 3 8.5 6t7.5 3v0h1v0v0q3 -1 7 -4t7 -7q2 -1 3.5 -2.5l2.5 -2.5v1z" />
    <glyph glyph-name="atilde" unicode="&#xe3;" horiz-adv-x="1050" 
d="M-137 -140v-2q16 13 28 24.5t23 23.5q8 8 16 16.5t15 16.5q11 13 21.5 26.5t22.5 29.5q10 12 16.5 22.5t12.5 20.5l2 4t3 4q8 14 18.5 32.5t27.5 48.5l74 127h-63l90 42l206 353q-13 0 -24 0.5t-22 1.5h-8.5h-9.5h-12h-13q-14 0 -25.5 -1t-22.5 -2q-10 0 -20.5 -1.5
t-22.5 -2.5l9 9l8 8q5 5 10.5 9.5t11.5 8.5q5 3 10.5 6.5t12.5 7.5q10 6 18 10.5t16 8.5q14 7 30.5 10t47.5 3l136 -1l69 -132l263 -512h87q9 -1 16 -1h14q6 1 12.5 1.5t13.5 1.5q6 1 11 2t11 3q5 1 10 2.5t11 3.5q-12 -14 -26 -25.5t-29 -21.5q-21 -14 -40.5 -23.5
t-31.5 -15.5q-11 -5 -30.5 -7t-42.5 -2h-5.5h-5.5q-17 0 -34 1t-30 2q-12 1 -20 2t-9 1l-134 252l-368 5l-110 -177q-6 -11 -12.5 -20.5t-13.5 -19.5q-14 -19 -31 -38t-38 -39q-13 -13 -25.5 -24t-24.5 -21q-15 -12 -30 -22.5t-33 -20.5q-8 -4 -17 -9t-19 -10h-1zM254 315
l304 -1l-139 264l-165 -263v0zM121 860l2 -1q4 5 7.5 9t6.5 7q1 1 2 2.5t3 2.5q2 2 4 3.5t4 3.5l83 73q7 5 12.5 10t11.5 10q12 10 24.5 17t29.5 10q4 1 8 1.5t8 0.5q2 0 3.5 0.5t3.5 0.5q11 0 20.5 -2t19.5 -5q9 -3 19 -7.5t20 -9.5l94 -44q8 -5 15 -7.5t15 -3.5
q7 -2 14 -2.5t15 -0.5h14t15 1q36 2 64 11.5t54 27.5q8 5 16 11.5t16 13.5q2 2 4 3l4 2q7 5 13.5 4.5t6.5 -4.5q0 -2 -1.5 -5t-6.5 -8q-6 -6 -11 -11.5t-10 -9.5l-4 -4l-4 -4q-4 -4 -9 -8t-11 -9l-77 -61q-9 -8 -17.5 -14.5t-16.5 -12.5q-16 -11 -33.5 -18.5t-40.5 -10.5
q-7 -1 -13 -1.5t-11 -0.5q-16 0 -30 2.5t-27 7.5q-11 4 -22 9.5l-23 11.5l-96 53q-5 1 -9 3l-8 4q-8 2 -15.5 3.5t-17.5 1.5h-2.5h-3.5q-22 0 -39 -8t-33 -21q-9 -8 -19 -17.5t-21 -19.5q-13 -10 -17.5 -7.5t-4.5 8.5q0 2 0.5 4.5t1.5 3.5v1z" />
    <glyph glyph-name="aring" unicode="&#xe5;" horiz-adv-x="1053" 
d="M-130 -143v-2q16 13 28 24.5t23 23.5q8 8 16 16.5t15 16.5q11 13 21.5 26.5t22.5 29.5q9 12 16 22.5t13 20.5l2 4t3 4q8 14 18.5 32.5t27.5 48.5l74 127h-63l90 42l206 353q-13 0 -24 0.5t-22 1.5h-8.5h-9.5h-12h-13q-14 0 -25.5 -1t-22.5 -2q-10 0 -20.5 -1.5
t-22.5 -2.5l9 9l8 8q5 5 10.5 9.5t11.5 8.5q5 3 10.5 6.5t12.5 7.5q10 6 18 10.5t16 8.5q14 7 30.5 10t47.5 3l136 -1l69 -132l263 -512h87q9 -1 16 -1h14q6 1 12.5 1.5t13.5 1.5q6 1 11 2t11 3q5 1 10 2.5t11 3.5q-12 -14 -26 -25.5t-29 -21.5q-21 -14 -40.5 -23.5
t-31.5 -15.5q-11 -4 -30.5 -6.5t-42.5 -2.5h-5.5h-5.5q-17 0 -34 1t-30 3q-12 1 -20 1.5t-9 0.5l-134 252l-368 5l-110 -177q-6 -11 -12.5 -20.5t-13.5 -19.5q-14 -19 -31 -38t-38 -39q-14 -13 -26 -24t-24 -21q-15 -12 -30 -22.5t-33 -20.5q-8 -4 -17 -9t-19 -10h-1z
M261 312l304 -1l-139 264l-165 -263v0zM507 965v-1q5 -8 6.5 -16.5t2.5 -16.5q0 -20 -11 -38.5t-31 -29.5l-74 -38q-8 -5 -16.5 -7t-17.5 -2q-19 0 -35.5 9t-26.5 26q-4 7 -6 14.5t-2 14.5v4.5t1 4.5q3 21 18.5 40.5t36.5 29.5l53 27q7 2 14 4.5t14 3.5q3 0 7 0.5t7 0.5
q18 0 34 -7t26 -24v1zM370 886v-1q7 -14 19.5 -23t26.5 -9q5 0 9.5 1t8.5 3q9 5 13 13.5t4 18.5q0 3 -0.5 6.5t-0.5 6.5q-2 11 -6.5 21t-10.5 16q-8 9 -19 15t-22 6h-4t-4 -1q-3 0 -5 -1l-4 -2q-8 -4 -11.5 -12.5t-3.5 -17.5q0 -11 3 -22t7 -19v1z" />
    <glyph glyph-name="ccedilla" unicode="&#xe7;" horiz-adv-x="869" 
d="M238 81l-6 4q-85 57 -145.5 130t-60.5 162v7.5v7.5q0 3 0.5 6.5t0.5 7.5q6 57 25.5 110t41.5 86q4 6 8 11t8 9q1 2 29.5 8.5t61.5 16.5q15 5 28.5 10t25.5 10q7 3 14.5 7t15.5 8q7 5 14.5 9.5t14.5 9.5q25 16 44 30t24 14q18 2 39.5 3.5t43.5 1.5q25 0 51.5 -1.5
t53.5 -3.5q98 -9 181.5 -29t91.5 -42q1 -1 1 -1.5v-1.5v-2.5v-2.5q0 -10 -3.5 -17.5t-9.5 -15.5l-69 -83q-2 -4 -4 -6.5t-5 -5.5q-1 -2 -2.5 -4t-2.5 -4q-6 -7 -11.5 -11t-9.5 -1q-1 1 0.5 6.5t4.5 13.5q1 3 2 7.5t2 8.5q0 3 0.5 5.5t0.5 5.5v3.5v2.5q-5 24 -35 40.5
t-66 25.5q-11 3 -22.5 5t-22.5 3l-168 19q-12 1 -24.5 1.5t-25.5 0.5h-2h-2q-42 0 -79.5 -9t-49.5 -28q-36 -59 -52 -110.5t-16 -95.5q0 -94 61 -158t149 -105l116 -53q17 -8 31.5 -13.5t28.5 -8.5q13 -3 26 -4.5t28 -1.5h6t6 1h5h6q26 2 46.5 7.5t39.5 14.5q14 7 28.5 14.5
t30.5 16.5l20 12l-2 -15l-89 -56q-14 -10 -26 -16.5t-23 -12.5q-15 -7 -30.5 -12.5t-34.5 -11.5q-9 -2 -20 -5t-23 -6q-18 -4 -34 -6t-32 -2h-4.5h-4.5q-17 1 -34 3t-37 6l-39 -54q8 1 15.5 2t14.5 1q5 0 9.5 -0.5t9.5 -0.5q9 -1 18.5 -3.5t19.5 -4.5q2 -1 10 -4t17 -7
q1 0 2 -0.5t2 -1.5q3 -1 5.5 -2t4.5 -2q3 -1 6 -2.5t6 -3.5q1 0 2 -0.5t2 -1.5q9 -4 16 -7.5t7 -4.5l1.5 -1.5l1.5 -1.5q7 -9 13.5 -25t8.5 -33v-3v-2v-1.5v-1.5v-0.5v-1.5q0 -26 -18.5 -47.5t-44.5 -37.5q-9 -6 -17.5 -10t-17.5 -7t-17.5 -4.5t-17.5 -1.5q-15 -1 -31 4
t-33 16l-25 16l-1 4l6 -3q5 -3 9 -5.5t8 -4.5l12 -4t13 -2h2h2h1h2q3 0 6.5 0.5t6.5 0.5q4 1 9 2.5t10 4.5l33 15q26 12 44 30.5t18 45.5q0 13 -4.5 28t-15.5 32q-3 5 -13.5 7.5t-23.5 2.5h-8.5t-8.5 -1l-48 -5l-49 -11l-20 24l36 87q-32 11 -49.5 18t-28.5 13q-3 1 -6 3
l-6 4q-8 4 -15.5 9.5t-19.5 13.5v1z" />
    <glyph glyph-name="eacute" unicode="&#xe9;" horiz-adv-x="841" 
d="M96 623l-2 -1q5 3 33 11.5t60 20.5q12 4 24 9t23 10q11 6 22 13t21 14q20 14 37.5 26.5t31.5 13.5q4 1 8.5 1h9.5q13 0 28.5 -1t32.5 -3q4 -1 8 -1.5t8 -0.5l228 -23q4 -1 25 -4t46 -10q26 -7 48 -18t23 -28v0v-1q0 -7 -3.5 -14t-9.5 -14q-4 -6 -10 -12l-12 -12
q-5 -5 -9.5 -10t-8.5 -10q-8 -11 -14.5 -19.5t-13.5 -17.5q0 -1 -1 -2l-1 -1l-14 -18t-15 -19q4 10 6 19t2 18q0 13 -3.5 25.5t-11.5 25.5q-15 26 -41 33t-55 9q-5 1 -10 1t-10 1l-207 24q-18 1 -35 2.5t-34 1.5q-19 0 -36 -2.5t-34 -9.5q-21 -9 -37.5 -53t-23.5 -95
q-2 -12 -3 -24t-1 -23l-2 -49l435 -15q8 -1 16 -1h15h11.5h11.5q11 0 23 1.5t26 3.5q9 2 17 3.5t15 2.5q8 2 15.5 4t16.5 5l2 -8q-7 -4 -19 -10.5t-27 -12.5q-12 -6 -25.5 -11t-27.5 -9q-2 0 -4.5 -0.5t-4.5 -1.5q-54 -12 -113.5 -16t-130.5 -5l-222 -2q11 -18 31.5 -42
t46.5 -50q21 -20 44.5 -39t48.5 -35q23 -14 44.5 -26.5t43.5 -22.5q31 -15 62.5 -23.5t66.5 -8.5q14 0 29 1.5t31 4.5q8 2 17.5 5t18.5 7q7 4 14.5 7.5t14.5 7.5q22 12 38 21.5t16 5.5t-3 -9t-8 -10q-4 -4 -9 -8t-10 -7q-1 -1 -2.5 -2t-3.5 -2l-123 -76q-11 -8 -21.5 -13
t-20.5 -8q-20 -7 -40 -10t-46 -4h-6h-6q-26 0 -55.5 5.5t-59.5 18.5q-23 9 -45.5 22.5t-43.5 30.5l-117 96q-56 44 -82 97.5t-26 123.5v16t1 16q1 12 2.5 25t4.5 25q8 47 22.5 88t29.5 57q1 1 2 1.5t2 1.5v1zM511 976l-1 3l95 15q3 -1 6 -0.5t6 1.5h2h1q6 1 10.5 2t7.5 1
h3.5t1.5 -1q1 -1 -2.5 -4.5t-9.5 -6.5q0 -1 -1 -1.5l-1 -0.5q-3 -2 -5 -3.5t-4 -2.5l-159 -100q-4 -3 -7 -5.5t-7 -4.5q-5 -3 -10 -5.5t-11 -4.5q-7 -3 -13 -5t-12 -3q-5 -2 -10 -3l-10 -2q-2 -1 -4.5 -1t-5.5 -1l-86 -15q-4 -2 -8 -2.5t-8 -1.5q-1 0 -1.5 -0.5l-0.5 -0.5
q-7 -1 -13.5 -2.5t-11.5 -1.5h-2.5t-2.5 1q-3 3 -1 6.5t7 7.5q2 1 4.5 3t5.5 4q2 2 5 3.5l5 2.5l164 99q4 1 7.5 3.5t6.5 4.5q4 3 8.5 5.5t9.5 4.5t10 3.5t10 2.5t9 1.5t9 1.5q3 0 6.5 0.5t7.5 1.5v1z" />
    <glyph glyph-name="egrave" unicode="&#xe8;" horiz-adv-x="841" 
d="M96 623l-2 -1q5 3 33 11.5t60 20.5q12 4 24 9t23 10q11 6 22 13t21 14q20 14 37.5 26.5t31.5 13.5q4 1 8.5 1h9.5q13 0 28.5 -1t32.5 -3q4 -1 8 -1.5t8 -0.5l228 -23q4 -1 25 -4t46 -10q26 -7 48 -18t23 -28v0v-1q0 -7 -3.5 -14t-9.5 -14q-4 -6 -10 -12l-12 -12
q-5 -5 -9.5 -10t-8.5 -10q-8 -11 -14.5 -19.5t-13.5 -17.5q0 -1 -1 -2l-1 -1l-14 -18t-15 -19q4 10 6 19t2 18q0 13 -3.5 25.5t-11.5 25.5q-15 26 -41 33t-55 9q-5 1 -10 1t-10 1l-207 24q-18 1 -35 2.5t-34 1.5q-19 0 -36 -2.5t-34 -9.5q-21 -9 -37.5 -53t-23.5 -95
q-2 -12 -3 -24t-1 -23l-2 -49l435 -15q8 -1 16 -1h15h11.5h11.5q11 0 23 1.5t26 3.5q9 2 17 3.5t15 2.5q8 2 15.5 4t16.5 5l2 -8q-7 -4 -19 -10.5t-27 -12.5q-12 -6 -25.5 -11t-27.5 -9q-2 0 -4.5 -0.5t-4.5 -1.5q-54 -12 -113.5 -16t-130.5 -5l-222 -2q11 -18 31.5 -42
t46.5 -50q21 -20 44.5 -39t48.5 -35q23 -14 44.5 -26.5t43.5 -22.5q31 -15 62.5 -23.5t66.5 -8.5q14 0 29 1.5t31 4.5q8 2 17.5 5t18.5 7q7 4 14.5 7.5t14.5 7.5q22 12 38 21.5t16 5.5t-3 -9t-8 -10q-4 -4 -9 -8t-10 -7q-1 -1 -2.5 -2t-3.5 -2l-123 -76q-11 -8 -21.5 -13
t-20.5 -8q-20 -7 -40 -10t-46 -4h-6h-6q-26 0 -55.5 5.5t-59.5 18.5q-23 9 -45.5 22.5t-43.5 30.5l-117 96q-56 44 -82 97.5t-26 123.5v16t1 16q1 12 2.5 25t4.5 25q8 47 22.5 88t29.5 57q1 1 2 1.5t2 1.5v1zM434 842h1q-3 0 -6 1l-6 2q-11 3 -21 6.5t-19 7.5
q-11 5 -21.5 10t-23.5 11l-110 58q-1 0 -2 0.5t-2 0.5q-7 4 -12.5 9t-5.5 11q0 3 4 5.5t10 4.5q5 2 10 3.5t11 3.5l63 22q1 -1 2.5 -0.5t2.5 1.5q4 2 8.5 3.5t8.5 1.5h2h2l1 -0.5t2 -0.5q8 -3 28.5 -18t44.5 -32q3 -2 5 -3.5t4 -2.5q7 -6 14.5 -10.5t14.5 -9.5
q25 -15 45.5 -28t40.5 -25q4 -2 8 -4.5t8 -4.5q17 -10 35 -20.5t39 -21.5h-7h-13q-18 0 -46.5 1t-59.5 5q-15 2 -30.5 5t-29.5 7v1z" />
    <glyph glyph-name="ecircumflex" unicode="&#xea;" horiz-adv-x="837" 
d="M96 623l-2 -1q5 3 33 11.5t60 20.5q12 4 24 9t23 10q11 6 22 13t21 14q20 14 37.5 26.5t31.5 13.5q4 1 8.5 1h9.5q13 0 28.5 -1t32.5 -3q4 -1 8 -1.5t8 -0.5l228 -23q4 -1 25 -4t46 -10q26 -7 48 -18t23 -28v0v-1q0 -7 -3.5 -14t-9.5 -14q-4 -6 -10 -12l-12 -12
q-5 -5 -9.5 -10t-8.5 -10q-8 -11 -14.5 -19.5t-13.5 -17.5q0 -1 -1 -2l-1 -1l-14 -18t-15 -19q4 10 6 19t2 18q0 13 -3.5 25.5t-11.5 25.5q-15 26 -41 33t-55 9q-5 1 -10 1t-10 1l-207 24q-18 1 -35 2.5t-34 1.5q-19 0 -36 -2.5t-34 -9.5q-21 -9 -37.5 -53t-23.5 -95
q-2 -12 -3 -24t-1 -23l-2 -49l435 -15q8 -1 16 -1h15h11.5h11.5q11 0 23 1.5t26 3.5q9 2 17 3.5t15 2.5q8 2 15.5 4t16.5 5l2 -8q-7 -4 -19 -10.5t-27 -12.5q-12 -6 -25.5 -11t-27.5 -9q-2 0 -4.5 -0.5t-4.5 -1.5q-54 -12 -113.5 -16t-130.5 -5l-222 -2q11 -18 31.5 -42
t46.5 -50q21 -20 44.5 -39t48.5 -35q23 -14 44.5 -26.5t43.5 -22.5q31 -15 62.5 -23.5t66.5 -8.5q14 0 29 1.5t31 4.5q8 2 17.5 5t18.5 7q7 4 14.5 7.5t14.5 7.5q22 12 38 21.5t16 5.5t-3 -9t-8 -10q-4 -4 -9 -8t-10 -7q-1 -1 -2.5 -2t-3.5 -2l-123 -76q-11 -8 -21.5 -13
t-20.5 -8q-20 -7 -40 -10t-46 -4h-6h-6q-26 0 -55.5 5.5t-59.5 18.5q-23 9 -45.5 22.5t-43.5 30.5l-117 96q-56 44 -82 97.5t-26 123.5v16t1 16q1 12 2.5 25t4.5 25q8 47 22.5 88t29.5 57q1 1 2 1.5t2 1.5v1zM354 969l104 21q2 -1 4 -0.5t3 0.5q2 1 4 1t4 1h2h2h3t3 -1
q1 0 2.5 -0.5t2.5 -0.5q8 -3 29 -18t45 -32q2 -2 4.5 -3.5t4.5 -2.5q7 -5 14.5 -10t14.5 -10l44 -27.5t40 -24.5q4 -3 8 -5.5t9 -4.5q17 -10 35 -20.5t39 -21.5h-7h-13q-18 0 -46 1t-57 5q-16 2 -32 5t-30 7l-6 2l-6 2q-11 3 -20.5 6.5t-18.5 7.5q-11 4 -22.5 9t-24.5 12
l-104 55l-81 -52q-4 -3 -7 -5.5t-7 -4.5q-5 -3 -10 -5.5t-11 -4.5q-7 -3 -13 -5t-12 -3q-5 -2 -10 -3l-10 -2q-2 -1 -4.5 -1t-5.5 -1l-86 -15q-4 -1 -7.5 -2t-7.5 -2h-2.5t-2.5 -1q-7 -1 -13.5 -2.5t-10.5 -1.5h-2.5t-1.5 1v0.5v0.5l-1 1v0q0 2 1.5 4.5t4.5 5.5q2 2 5.5 5
t7.5 5q2 1 4 2.5t4 2.5l164 99q4 1 7.5 3t6.5 4q5 3 9.5 5t9.5 4q6 2 11.5 4t10.5 4q6 2 12 3.5t14 2.5v1z" />
    <glyph glyph-name="edieresis" unicode="&#xeb;" horiz-adv-x="837" 
d="M96 623l-2 -1q5 3 33 11.5t60 20.5q12 4 24 9t23 10q11 6 22 13t21 14q20 14 37.5 26.5t31.5 13.5q4 1 8.5 1h9.5q13 0 28.5 -1t32.5 -3q4 -1 8 -1.5t8 -0.5l228 -23q4 -1 25 -4t46 -10q26 -7 48 -18t23 -28v0v-1q0 -7 -3.5 -14t-9.5 -14q-4 -6 -10 -12l-12 -12
q-5 -5 -9.5 -10t-8.5 -10q-8 -11 -14.5 -19.5t-13.5 -17.5q0 -1 -1 -2l-1 -1l-14 -18t-15 -19q4 10 6 19t2 18q0 13 -3.5 25.5t-11.5 25.5q-15 26 -41 33t-55 9q-5 1 -10 1t-10 1l-207 24q-18 1 -35 2.5t-34 1.5q-19 0 -36 -2.5t-34 -9.5q-21 -9 -37.5 -53t-23.5 -95
q-2 -12 -3 -24t-1 -23l-2 -49l435 -15q8 -1 16 -1h15h11.5h11.5q11 0 23 1.5t26 3.5q9 2 17 3.5t15 2.5q8 2 15.5 4t16.5 5l2 -8q-7 -4 -19 -10.5t-27 -12.5q-12 -6 -25.5 -11t-27.5 -9q-2 0 -4.5 -0.5t-4.5 -1.5q-54 -12 -113.5 -16t-130.5 -5l-222 -2q11 -18 31.5 -42
t46.5 -50q21 -20 44.5 -39t48.5 -35q23 -14 44.5 -26.5t43.5 -22.5q31 -15 62.5 -23.5t66.5 -8.5q14 0 29 1.5t31 4.5q8 2 17.5 5t18.5 7q7 4 14.5 7.5t14.5 7.5q22 12 38 21.5t16 5.5t-3 -9t-8 -10q-4 -4 -9 -8t-10 -7q-1 -1 -2.5 -2t-3.5 -2l-123 -76q-11 -8 -21.5 -13
t-20.5 -8q-20 -7 -40 -10t-46 -4h-6h-6q-26 0 -55.5 5.5t-59.5 18.5q-23 9 -45.5 22.5t-43.5 30.5l-117 96q-56 44 -82 97.5t-26 123.5v16t1 16q1 12 2.5 25t4.5 25q8 47 22.5 88t29.5 57q1 1 2 1.5t2 1.5v1zM313 1002v2l58 -54q1 -2 2 -3t3 -2q1 -2 2.5 -3t2.5 -3
q4 -4 7.5 -8t3.5 -7t-3 -7.5t-7 -9.5q-1 -1 -2.5 -2t-2.5 -3l-2.5 -2.5l-3.5 -3.5l-64 -64q-1 -2 -1.5 -2.5l-1.5 -1.5t-2.5 -2t-3.5 -2q-2 -2 -4.5 -3.5t-4.5 -1.5t-4 1t-4 3l-2 2l-2 2q-2 1 -3 2.5t-2 2.5l-64 67q-1 0 -2.5 1.5t-3.5 2.5l-2 2t-3 2q-4 4 -7 8t-3 9v3.5
t1 2.5q0 1 6 7t14 13l2 2l2 2q3 3 6 5.5t6 4.5l44 37q1 0 2.5 1.5t3.5 2.5q0 1 1 1.5t1 1.5q4 3 8.5 6t7.5 3v0h1v0v0q3 -1 7 -4t7 -7q2 -1 3.5 -2.5l2.5 -2.5v1zM585 1004v2l58 -54q1 -2 2 -3t3 -2q1 -2 2.5 -3t2.5 -3q4 -4 7.5 -8t3.5 -7t-3 -7.5t-7 -9.5q-1 -1 -2.5 -2
t-2.5 -3l-2.5 -2.5l-3.5 -3.5l-64 -64q-1 -2 -1.5 -2.5l-1.5 -1.5t-2.5 -2t-3.5 -2q-2 -2 -4.5 -3.5t-4.5 -1.5t-4 1t-4 3l-2 2l-2 2q-2 1 -3 2.5t-2 2.5l-65 67q-1 0 -2.5 1.5t-3.5 2.5l-2 2t-3 2q-4 4 -7 8t-3 9v3.5t1 2.5q0 1 6 7t14 13l2 2l2 2q3 3 6 5.5t6 4.5l45 37
q1 0 2.5 1.5t3.5 2.5q0 1 1 1.5t1 1.5q4 3 8.5 6t7.5 3v0h1v0v0q3 -1 7 -4t7 -7q2 -1 3.5 -2.5l2.5 -2.5v1z" />
    <glyph glyph-name="iacute" unicode="&#xed;" horiz-adv-x="365" 
d="M195 -4v161v512h-168l104 69h201v-162v-512l-137 -68v0zM280 972l-1 3l95 15q3 -1 6 -0.5t6 1.5h2h1q6 1 10.5 2t7.5 1h3.5t1.5 -1q1 -1 -2.5 -4.5t-9.5 -6.5q0 -1 -1 -1.5l-1 -0.5q-3 -2 -5 -3.5t-4 -2.5l-158 -100q-4 -3 -7 -5.5t-7 -4.5q-5 -3 -10 -5.5t-11 -4.5
q-7 -3 -13 -5t-12 -3q-5 -2 -10 -3l-10 -2q-2 -1 -4.5 -1t-5.5 -1l-86 -15q-4 -2 -8 -2.5t-8 -1.5q-1 0 -1.5 -0.5l-0.5 -0.5q-7 -1 -13.5 -2.5t-11.5 -1.5h-2.5t-2.5 1q-3 3 -1 6.5t7 7.5q2 1 4.5 3t5.5 4q2 2 5 3.5l5 2.5l164 99q4 1 7.5 3.5t6.5 4.5q4 3 8.5 5.5t9.5 4.5
q6 2 11.5 3.5t10.5 2.5q4 1 8 1.5t8 1.5q3 0 6 0.5t7 1.5v1z" />
    <glyph glyph-name="igrave" unicode="&#xec;" horiz-adv-x="365" 
d="M197 -4v161v512h-168l104 69h201v-162v-512l-137 -68v0zM201 844h1q-3 0 -6 1l-6 2q-11 3 -21 6.5t-19 7.5q-11 5 -21.5 10t-23.5 11l-110 58l-1 0.5t-2 0.5q-7 4 -12.5 9t-5.5 11q0 3 4 5.5t10 4.5q5 2 9.5 3.5l10.5 3.5l63 22q1 -1 2.5 -0.5t2.5 1.5q4 2 8.5 3.5
t8.5 1.5h2h2l1 -0.5t2 -0.5q8 -3 28.5 -18t44.5 -32q3 -2 5 -3.5t4 -2.5q7 -6 14.5 -10.5t14.5 -9.5l44 -27.5t40 -24.5q4 -3 8 -5.5t9 -4.5q17 -10 35 -20.5t39 -21.5h-7h-13q-18 0 -46 1t-57 5q-16 2 -32 5t-30 7v1z" />
    <glyph glyph-name="icircumflex" unicode="&#xee;" horiz-adv-x="365" 
d="M198 -2v161v512h-168l104 69h201v-162v-512l-137 -68v0zM154 982l104 21q2 -1 4 -0.5t3 0.5q2 1 4 1t4 1h2h2h3t3 -1q1 0 2.5 -0.5t2.5 -0.5q8 -3 28.5 -18t44.5 -32q3 -2 5 -3.5t4 -2.5q7 -6 14.5 -10.5t14.5 -9.5l44 -27.5t40 -24.5q4 -3 8.5 -5.5t8.5 -4.5
q17 -10 35.5 -20.5t39.5 -21.5h-7.5h-12.5q-18 0 -45.5 1t-57.5 5q-16 2 -32.5 5t-30.5 7l-6 2l-6 2q-11 3 -21 6.5t-19 7.5q-11 5 -21.5 10t-23.5 11l-104 55l-81 -52q-4 -3 -7 -5.5t-7 -4.5q-5 -3 -10 -5.5t-11 -4.5q-7 -3 -13 -5t-12 -3q-5 -2 -10 -3l-10 -2
q-2 -1 -4.5 -1t-5.5 -1l-86 -15q-3 -1 -6.5 -2t-7.5 -2h-2.5t-2.5 -1q-7 -1 -13.5 -2.5t-10.5 -1.5h-3t-1 1v0.5t-1 0.5v1v0q0 2 1.5 4.5t4.5 5.5q2 2 5.5 5t7.5 5q2 1 4 2.5t4 2.5l163 99q4 1 7.5 3t6.5 4q5 3 9.5 5t9.5 4q6 2 11.5 4t10.5 4q6 2 12 3.5t14 2.5v1z" />
    <glyph glyph-name="idieresis" unicode="&#xef;" horiz-adv-x="365" 
d="M197 0v161v512h-168l104 69h201v-162v-512l-137 -68v0zM131 1006v2l58 -54q1 -2 2 -3t3 -2q1 -2 2.5 -3t2.5 -3q4 -4 7.5 -8t3.5 -7t-3 -7.5t-7 -9.5q-1 -1 -2.5 -2t-2.5 -3l-2.5 -2.5l-3.5 -3.5l-64 -64q-1 -2 -1.5 -2.5l-1.5 -1.5t-2.5 -2t-3.5 -2q-2 -2 -4.5 -3.5
t-4.5 -1.5t-4 1t-4 3l-2 2l-2 2q-2 1 -3 2.5t-2 2.5l-64 67q-1 0 -2.5 1.5t-3.5 2.5l-2 2t-3 2q-4 4 -7 8t-3 9v3.5t1 2.5q0 1 6 7t14 13l2 2l2 2q3 3 6 5.5t6 4.5l44 37q1 0 2.5 1.5t3.5 2.5q0 1 1 1.5t1 1.5q4 3 8.5 6t7.5 3v0h1v0v0q3 -1 7 -4t7 -7q2 -1 3.5 -2.5
l2.5 -2.5v1zM402 1008v2l58 -54q1 -2 2 -3t3 -2q1 -2 2.5 -3t2.5 -3q4 -4 7.5 -8t3.5 -7t-3 -7.5t-7 -9.5q-1 -1 -2.5 -2t-2.5 -3l-2.5 -2.5l-3.5 -3.5l-64 -64q-1 -2 -1.5 -2.5l-1.5 -1.5t-2.5 -2t-3.5 -2q-2 -2 -4.5 -3.5t-4.5 -1.5t-4 1t-4 3l-2 2l-2 2q-2 1 -3 2.5
t-2 2.5l-64 67q-1 0 -2.5 1.5t-3.5 2.5l-2 2t-3 2q-4 4 -7 8t-3 9v3.5t1 2.5q0 1 6 7t14 13l2 2l2 2q3 3 6 5.5t6 4.5l44 37q1 0 2.5 1.5t3.5 2.5q0 1 1 1.5t1 1.5q4 3 8.5 6t7.5 3v0h1v0v0q3 -1 7 -4t7 -7q2 -1 3.5 -2.5l2.5 -2.5v1z" />
    <glyph glyph-name="ntilde" unicode="&#xf1;" horiz-adv-x="977" 
d="M213 0v153v512l-177 3l125 66h191v-101l30 20q14 8 29 17t30 17q49 27 94.5 45.5t77.5 23.5h2.5t2.5 1h2.5h2.5q27 0 64.5 -16.5t77.5 -44.5q70 -50 128 -129t58 -167q0 -59 -27 -114.5t-60 -99.5q-22 -29 -42 -50.5t-32 -33.5l-131 -127l-15 -15t-20 -18l-4 -4l-4 -4
q-18 -17 -33.5 -27.5t-17.5 -2.5q-2 6 11.5 23t29.5 36q0 1 0.5 1.5l1.5 1.5q6 7 11 13.5t10 12.5l41 53q20 25 38 51t32 52q30 51 47 103.5t19 107.5v3.5v2.5q0 66 -34 123.5t-74 96.5q-15 14 -30 25t-28 18l-63 36q-2 0 -8.5 2.5t-16.5 5.5q-8 3 -18.5 5.5t-21.5 3.5
q-4 1 -7.5 1h-6.5q-5 0 -10 -0.5t-10 -1.5q-41 -9 -77 -45t-49 -78q-2 -9 -3.5 -17.5t-1.5 -16.5v-473l-134 -50v0zM219 864l2 -1q4 5 7.5 9t6.5 7q1 1 2 2.5t3 2.5q2 2 4 3.5t4 3.5l83 73q7 5 12.5 10t11.5 10q12 10 24.5 17t29.5 10q4 1 8 1.5t8 0.5q2 0 3.5 0.5t3.5 0.5
q10 0 18.5 -1.5t17.5 -4.5q11 -3 21.5 -8t22.5 -10l93 -44q8 -5 15 -7.5t15 -3.5q7 -2 14 -2.5t15 -0.5h14t15 1q36 2 64 11.5t54 27.5q8 5 16 11.5t16 13.5q2 2 4 3l4 2q7 5 13.5 4.5t6.5 -4.5q0 -2 -1.5 -5t-6.5 -8q-6 -6 -11 -11.5t-10 -9.5l-4 -4l-4 -4q-4 -4 -9 -8
t-11 -9l-77 -61q-9 -8 -17.5 -14.5t-16.5 -12.5q-16 -11 -33.5 -18.5t-40.5 -10.5q-6 -1 -12 -1.5t-12 -0.5q-15 0 -28 2.5t-26 6.5q-11 4 -22.5 9.5t-24.5 12.5l-97 53q-5 1 -9 3l-8 4q-8 2 -15.5 3.5t-17.5 1.5h-2.5h-3.5q-22 0 -39 -8t-33 -21q-9 -8 -19 -17.5t-21 -19.5
q-13 -10 -17.5 -7.5t-4.5 8.5q0 2 0.5 4.5t1.5 3.5v1z" />
    <glyph glyph-name="oacute" unicode="&#xf3;" horiz-adv-x="855" 
d="M560 736l-2 -1q118 -35 191 -122t74 -211v-2.5v-2.5v-3v-3q0 -81 -25.5 -146t-94.5 -110l-141 -92q-43 -29 -86 -42t-87 -13q-42 0 -84.5 11.5t-86.5 33.5q-91 48 -139.5 128.5t-48.5 178.5q0 17 1 33.5t4 32.5q13 80 44.5 137.5t100.5 98.5l141 85q22 12 53 18.5t67 6.5
q21 0 43.5 -2t45.5 -7q7 -2 15 -4t15 -4v1zM181 268l1 -1q5 -16 26.5 -38.5t55.5 -47.5q37 -27 84.5 -52t97.5 -39q20 -5 40 -8t39 -3q30 0 58 8.5t51 28.5q26 23 43 80t17 125q0 10 -0.5 20.5t-1.5 20.5q-4 50 -19 97.5t-45 84.5q-31 39 -80 64.5t-101 38.5
q-37 10 -72.5 14.5t-64.5 4.5q-28 0 -48 -3.5t-29 -9.5q-30 -20 -50.5 -91.5t-20.5 -154.5v-10v-11q1 -31 5.5 -61t13.5 -58v1zM520 978l-1 3l95 15q3 -1 6 -0.5t6 1.5h2h1q6 1 10.5 2t7.5 1h3.5t1.5 -1q1 -1 -2.5 -4.5t-9.5 -6.5q0 -1 -1 -1.5l-1 -0.5q-3 -2 -5 -3.5
t-4 -2.5l-159 -100q-4 -3 -7 -5.5t-7 -4.5q-5 -3 -10 -5.5t-11 -4.5q-7 -3 -13 -5t-12 -3q-5 -2 -10 -3l-10 -2q-2 -1 -4.5 -1t-5.5 -1l-86 -15q-4 -2 -8 -2.5t-8 -1.5q-1 0 -1.5 -0.5l-0.5 -0.5q-7 -1 -13.5 -2.5t-11.5 -1.5h-2.5t-2.5 1q-3 3 -1 6.5t7 7.5q2 1 4.5 3
t5.5 4q2 2 5 3.5l5 2.5l164 99q4 1 7.5 3.5t6.5 4.5q4 3 8.5 5.5t9.5 4.5q6 2 11.5 3.5t10.5 2.5q4 1 8 1.5t8 1.5q4 0 7 0.5t7 1.5v1z" />
    <glyph glyph-name="ograve" unicode="&#xf2;" horiz-adv-x="852" 
d="M560 736l-2 -1q118 -35 191 -122t74 -211v-2.5v-2.5v-3v-3q0 -81 -25.5 -146t-94.5 -110l-141 -92q-43 -29 -86 -42t-87 -13q-42 0 -84.5 11.5t-86.5 33.5q-91 48 -139.5 128.5t-48.5 178.5q0 17 1 33.5t4 32.5q13 80 44.5 137.5t100.5 98.5l141 85q22 12 53 18.5t67 6.5
q21 0 43.5 -2t45.5 -7q7 -2 15 -4t15 -4v1zM181 268l1 -1q5 -16 26.5 -38.5t55.5 -47.5q37 -27 84.5 -52t97.5 -39q20 -5 40 -8t39 -3q30 0 58 8.5t51 28.5q26 23 43 80t17 125q0 10 -0.5 20.5t-1.5 20.5q-4 50 -19 97.5t-45 84.5q-31 39 -80 64.5t-101 38.5
q-37 10 -72.5 14.5t-64.5 4.5q-28 0 -48 -3.5t-29 -9.5q-30 -20 -50.5 -91.5t-20.5 -154.5v-10v-11q1 -31 5.5 -61t13.5 -58v1zM437 839h1q-3 0 -6 1l-6 2q-11 3 -21 6.5t-19 7.5q-11 5 -21.5 10t-23.5 11l-110 58q-1 0 -2 0.5t-2 0.5q-7 4 -12.5 9t-5.5 11q0 3 4 5.5
t10 4.5q5 2 10 3.5t11 3.5l63 22q1 -1 2.5 -0.5t2.5 1.5q4 2 8.5 3.5t8.5 1.5h2h2l1 -0.5t2 -0.5q8 -3 28.5 -18t44.5 -32q3 -2 5 -3.5t4 -2.5q7 -6 14.5 -10.5t14.5 -9.5q25 -15 45.5 -28t40.5 -25q4 -2 8 -4.5t8 -4.5q17 -10 35 -20.5t39 -21.5h-7h-13q-18 0 -46.5 1
t-59.5 5q-15 2 -30.5 5t-29.5 7v1z" />
    <glyph glyph-name="ocircumflex" unicode="&#xf4;" horiz-adv-x="855" 
d="M560 736l-2 -1q118 -35 191 -122t74 -211v-2.5v-2.5v-3v-3q0 -81 -25.5 -146t-94.5 -110l-141 -92q-43 -29 -86 -42t-87 -13q-42 0 -84.5 11.5t-86.5 33.5q-91 48 -139.5 128.5t-48.5 178.5q0 17 1 33.5t4 32.5q13 80 44.5 137.5t100.5 98.5l141 85q22 12 53 18.5t67 6.5
q21 0 43.5 -2t45.5 -7q7 -2 15 -4t15 -4v1zM181 268l1 -1q5 -16 26.5 -38.5t55.5 -47.5q37 -27 84.5 -52t97.5 -39q20 -5 40 -8t39 -3q30 0 58 8.5t51 28.5q26 23 43 80t17 125q0 10 -0.5 20.5t-1.5 20.5q-4 50 -19 97.5t-45 84.5q-31 39 -80 64.5t-101 38.5
q-37 10 -72.5 14.5t-64.5 4.5q-28 0 -48 -3.5t-29 -9.5q-30 -20 -50.5 -91.5t-20.5 -154.5v-10v-11q1 -31 5.5 -61t13.5 -58v1zM367 975l104 21q2 -1 4 -0.5t3 0.5t2.5 0.5t2.5 0.5q2 1 4 1h4t5 -0.5t6 -1.5q8 -3 28.5 -18t44.5 -32q3 -2 5 -3.5t4 -2.5q7 -6 14.5 -10.5
t14.5 -9.5l44 -27.5t40 -24.5q4 -3 8 -5.5t9 -4.5q17 -10 35 -20.5t39 -21.5h-7h-13q-18 0 -46 1t-57 5q-16 2 -32 5t-30 7l-6 2l-6 2q-11 3 -21 6.5t-19 7.5q-11 5 -21.5 10t-23.5 11l-105 55l-81 -52q-4 -3 -7 -5.5t-7 -4.5q-5 -3 -10 -5.5t-11 -4.5q-7 -3 -13 -5t-12 -3
q-5 -2 -10 -3l-10 -2q-2 -1 -4.5 -1t-5.5 -1l-86 -15q-4 -1 -7.5 -2t-7.5 -2h-2.5t-2.5 -1q-7 -1 -13.5 -2.5t-10.5 -1.5h-2.5t-1.5 1v0.5v0.5l-1 1v0q0 2 1.5 4.5t4.5 5.5q2 2 5.5 5t7.5 5q2 1 4 2.5t4 2.5l164 99q4 1 7.5 3t6.5 4q5 3 9.5 5t9.5 4q6 2 11.5 4t10.5 4
q6 2 12 3.5t14 2.5v1z" />
    <glyph glyph-name="odieresis" unicode="&#xf6;" horiz-adv-x="855" 
d="M560 736l-2 -1q118 -35 191 -122t74 -211v-2.5v-2.5v-3v-3q0 -81 -25.5 -146t-94.5 -110l-141 -92q-43 -29 -86 -42t-87 -13q-42 0 -84.5 11.5t-86.5 33.5q-91 48 -139.5 128.5t-48.5 178.5q0 17 1 33.5t4 32.5q13 80 44.5 137.5t100.5 98.5l141 85q22 12 53 18.5t67 6.5
q21 0 43.5 -2t45.5 -7q7 -2 15 -4t15 -4v1zM181 268l1 -1q5 -16 26.5 -38.5t55.5 -47.5q37 -27 84.5 -52t97.5 -39q20 -5 40 -8t39 -3q30 0 58 8.5t51 28.5q26 23 43 80t17 125q0 10 -0.5 20.5t-1.5 20.5q-4 50 -19 97.5t-45 84.5q-31 39 -80 64.5t-101 38.5
q-37 10 -72.5 14.5t-64.5 4.5q-28 0 -48 -3.5t-29 -9.5q-30 -20 -50.5 -91.5t-20.5 -154.5v-10v-11q1 -31 5.5 -61t13.5 -58v1zM324 1001v2l58 -54q1 -2 2 -3t3 -2q1 -2 2.5 -3t2.5 -3q4 -4 7.5 -8t3.5 -7t-3 -7.5t-7 -9.5q-1 -1 -2.5 -2t-2.5 -3l-2.5 -2.5l-3.5 -3.5
l-64 -64q-1 -2 -1.5 -2.5l-1.5 -1.5t-2.5 -2t-3.5 -2q-2 -2 -4.5 -3.5t-4.5 -1.5t-4 1t-4 3l-2 2l-2 2q-2 1 -3 2.5t-2 2.5l-64 67q-1 0 -2.5 1.5t-3.5 2.5l-2 2t-3 2q-4 4 -7 8t-3 9v3.5t1 2.5q0 1 6 7t14 13l2 2l2 2q3 3 6 5.5t6 4.5l44 37q1 0 2.5 1.5t3.5 2.5q0 1 1 1.5
t1 1.5q4 3 8.5 6t7.5 3v0h1v0v0q3 -1 7 -4t7 -7q2 -1 3.5 -2.5l2.5 -2.5v1zM596 1003v2l58 -54q1 -2 2 -3t3 -2q1 -2 2.5 -3t2.5 -3q4 -4 7.5 -8t3.5 -7t-3 -7.5t-7 -9.5q-1 -1 -2.5 -2t-2.5 -3l-2.5 -2.5l-3.5 -3.5l-64 -64q-1 -2 -1.5 -2.5l-1.5 -1.5t-2.5 -2t-3.5 -2
q-2 -2 -4.5 -3.5t-4.5 -1.5t-4 1t-4 3l-2 2l-2 2q-2 1 -3 2.5t-2 2.5l-65 67q-1 0 -2.5 1.5t-3.5 2.5l-2 2t-3 2q-4 4 -7 8t-3 9v3.5t1 2.5q0 1 6 7t14 13q2 2 3.5 3t2.5 2q3 3 5.5 5t5.5 4l44 37q1 0 2.5 1.5t3.5 2.5q0 1 1 1.5t1 1.5q4 3 8.5 6t7.5 3v0h1v0v0q3 -1 7 -4
t7 -7q2 -1 3.5 -2.5l2.5 -2.5v1z" />
    <glyph glyph-name="otilde" unicode="&#xf5;" horiz-adv-x="852" 
d="M560 736l-2 -1q118 -35 191 -122t74 -211v-2.5v-2.5v-3v-3q0 -81 -25.5 -146t-94.5 -110l-141 -92q-43 -29 -86 -42t-87 -13q-42 0 -84.5 11.5t-86.5 33.5q-91 48 -139.5 128.5t-48.5 178.5q0 17 1 33.5t4 32.5q13 80 44.5 137.5t100.5 98.5l141 85q22 12 53 18.5t67 6.5
q21 0 43.5 -2t45.5 -7q7 -2 15 -4t15 -4v1zM181 268l1 -1q5 -16 26.5 -38.5t55.5 -47.5q37 -27 84.5 -52t97.5 -39q20 -5 40 -8t39 -3q30 0 58 8.5t51 28.5q26 23 43 80t17 125q0 10 -0.5 20.5t-1.5 20.5q-4 50 -19 97.5t-45 84.5q-31 39 -80 64.5t-101 38.5
q-37 10 -72.5 14.5t-64.5 4.5q-28 0 -48 -3.5t-29 -9.5q-30 -20 -50.5 -91.5t-20.5 -154.5v-10v-11q1 -31 5.5 -61t13.5 -58v1zM126 862l2 -1q4 5 7.5 9t6.5 7q1 1 2 2.5t3 2.5q2 2 4 3.5t4 3.5l83 73q7 5 12.5 10t11.5 10q12 10 24.5 17t29.5 10q4 1 8 1.5t8 0.5
q2 0 3.5 0.5t3.5 0.5q11 0 20.5 -2t19.5 -5q9 -3 19 -7.5t20 -9.5l94 -44q8 -5 15 -7.5t15 -3.5q7 -2 14 -2.5t15 -0.5h14t15 1q36 2 64 11.5t54 27.5q8 5 16 11.5t16 13.5q2 2 4 3l4 2q7 5 13.5 4.5t6.5 -4.5q0 -2 -1.5 -5t-6.5 -8q-6 -6 -11 -11.5t-10 -9.5l-4 -4l-4 -4
q-4 -4 -9 -8t-11 -9l-77 -61q-9 -8 -17.5 -14.5t-16.5 -12.5q-16 -11 -33.5 -18.5t-40.5 -10.5q-7 -1 -13 -1.5t-11 -0.5q-16 0 -30 2.5t-27 7.5q-11 4 -22 9.5l-23 11.5l-96 53q-5 1 -9 3l-8 4q-8 2 -15.5 3.5t-17.5 1.5h-2.5h-3.5q-22 0 -39 -8t-33 -21q-9 -8 -19 -17.5
t-21 -19.5q-13 -10 -17.5 -7.5t-4.5 8.5q0 2 0.5 4.5t1.5 3.5v1z" />
    <glyph glyph-name="uacute" unicode="&#xfa;" horiz-adv-x="1060" 
d="M214 406l-1 -3q1 -12 3 -24t5 -23q22 -70 88 -135.5t141 -104.5q37 -20 74 -31.5t68 -11.5h2h2h2h2q40 2 65 12.5t39 22.5q16 14 21 25l5 11v509l-180 2l68 50q3 1 5.5 3t5.5 4q5 3 10.5 6t11.5 5l8 2l8 2t9 1.5t11 0.5l182 1l2 -146l3 -512l162 -6l-71 -54
q-1 -2 -2.5 -3t-3.5 -2q-4 -3 -8.5 -5t-10.5 -4q-4 -1 -7.5 -2t-6.5 -1h-7h-7h-2.5h-3.5l-173 3v102l-104 -60q-10 -7 -19.5 -12t-19.5 -9q-38 -19 -76 -28.5t-73 -9.5q-7 0 -14.5 0.5t-15.5 1.5q-24 3 -66 26t-87 60q-62 50 -114.5 119t-61.5 141q-1 5 -1.5 9.5t-0.5 8.5v3
v2q0 56 32 114t70 122q2 2 3.5 4.5t2.5 4.5l33 57l-191 3q10 8 23 17t26 16q26 15 48 25t25 11q7 2 20 3t29 1q11 0 23.5 -0.5t25.5 -0.5l28 -2t27 -2q20 -2 34.5 -3.5t15.5 -1.5q-2 -1 -23.5 -36t-46.5 -83q-8 -13 -15 -27.5t-14 -28.5q-17 -38 -29.5 -74.5t-12.5 -61.5
v-0.5v-1.5v-1.5v-0.5v1zM587 977l-1 3l95 15q3 -1 6 -0.5t6 1.5h2h1q6 1 10.5 2t7.5 1h3.5t1.5 -1q1 -1 -2.5 -4.5t-9.5 -6.5q0 -1 -1 -1.5l-1 -0.5q-3 -2 -5 -3.5t-4 -2.5l-158 -100q-4 -3 -7 -5.5t-7 -4.5q-5 -3 -10 -5.5t-11 -4.5q-8 -3 -14.5 -5t-13.5 -4q-4 -1 -8.5 -2
t-9.5 -2q-2 -1 -4.5 -1t-5.5 -1l-86 -15q-4 -2 -8 -2.5t-8 -1.5q-1 0 -1.5 -0.5l-0.5 -0.5q-7 -1 -13.5 -2.5t-11.5 -1.5h-2.5t-2.5 1q-3 3 -1 6.5t7 7.5q2 1 4.5 3t5.5 4q2 2 5 3.5l5 2.5l165 99q4 1 7.5 3.5t6.5 4.5q4 3 8.5 5.5t9.5 4.5q6 2 11.5 3.5t10.5 2.5q4 1 8 1.5
t8 1.5q3 0 6 0.5t7 1.5v1z" />
    <glyph glyph-name="ugrave" unicode="&#xf9;" horiz-adv-x="1060" 
d="M214 406l-1 -3q1 -12 3 -24t5 -23q22 -70 88 -135.5t141 -104.5q37 -20 74 -31.5t68 -11.5h2h2h2h2q40 2 65 12.5t39 22.5q16 14 21 25l5 11v509l-180 2l68 50q3 1 5.5 3t5.5 4q5 3 10.5 6t11.5 5l8 2l8 2t9 1.5t11 0.5l182 1l2 -146l3 -512l162 -6l-71 -54
q-1 -2 -2.5 -3t-3.5 -2q-4 -3 -8.5 -5t-10.5 -4q-4 -1 -7.5 -2t-6.5 -1h-7h-7h-2.5h-3.5l-173 3v102l-104 -60q-10 -7 -19.5 -12t-19.5 -9q-38 -19 -76 -28.5t-73 -9.5q-7 0 -14.5 0.5t-15.5 1.5q-24 3 -66 26t-87 60q-62 50 -114.5 119t-61.5 141q-1 5 -1.5 9.5t-0.5 8.5v3
v2q0 56 32 114t70 122q2 2 3.5 4.5t2.5 4.5l33 57l-191 3q10 8 23 17t26 16q26 15 48 25t25 11q7 2 20 3t29 1q11 0 23.5 -0.5t25.5 -0.5l28 -2t27 -2q20 -2 34.5 -3.5t15.5 -1.5q-2 -1 -23.5 -36t-46.5 -83q-8 -13 -15 -27.5t-14 -28.5q-17 -38 -29.5 -74.5t-12.5 -61.5
v-0.5v-1.5v-1.5v-0.5v1zM494 843h1q-3 0 -6 1l-6 2q-11 3 -21 6.5t-19 7.5q-11 5 -21.5 10t-23.5 11l-110 58q-1 0 -2 0.5t-2 0.5q-7 4 -12.5 9t-5.5 11q0 3 4 5.5t10 4.5q5 2 10 3.5t11 3.5l63 22q1 -1 2.5 -0.5t2.5 1.5q4 2 8.5 3.5t8.5 1.5h2h2l1 -0.5t2 -0.5
q8 -3 28.5 -18t45.5 -32q3 -2 5.5 -4t5.5 -4q7 -5 13.5 -9.5t13.5 -8.5l44 -27.5t40 -24.5q4 -3 8 -5.5t9 -4.5q17 -10 35 -20.5t39 -21.5h-7h-13q-18 0 -46.5 1t-59.5 5q-15 2 -30.5 5t-29.5 7v1z" />
    <glyph glyph-name="ucircumflex" unicode="&#xfb;" horiz-adv-x="1059" 
d="M207 406l-1 -3q1 -12 3 -24t5 -23q22 -70 88 -135.5t141 -104.5q37 -20 74 -31.5t68 -11.5h2h2h2h2q40 2 65 12.5t39 22.5q16 14 21 25l5 11v509l-180 2l68 50q3 1 5.5 3t5.5 4q5 3 10.5 6t11.5 5l8 2l8 2t9 1.5t11 0.5l182 1l2 -146l3 -512l162 -6l-71 -54
q-1 -2 -2.5 -3t-3.5 -2q-4 -3 -8.5 -5t-10.5 -4q-4 -1 -7.5 -2t-6.5 -1h-7h-7h-2.5h-3.5l-173 3v102l-104 -60q-10 -7 -19.5 -12t-19.5 -9q-38 -19 -76 -28.5t-73 -9.5q-7 0 -14.5 0.5t-15.5 1.5q-24 3 -66 26t-87 60q-62 50 -114.5 119t-61.5 141q-1 5 -1.5 9.5t-0.5 8.5v3
v2q0 56 32 114t70 122q2 2 3.5 4.5t2.5 4.5l33 57l-191 3q10 8 23 17t26 16q26 15 48 25t25 11q7 2 20 3t29 1q11 0 23.5 -0.5t25.5 -0.5l28 -2t27 -2q20 -2 34.5 -3.5t15.5 -1.5q-2 -1 -23.5 -36t-46.5 -83q-8 -13 -15 -27.5t-14 -28.5q-17 -38 -29.5 -74.5t-12.5 -61.5
v-0.5v-1.5v-1.5v-0.5v1zM449 974l105 21q2 -1 4 -0.5t3 0.5q2 1 4 1t4 1h2h2h3t3 -1q1 0 2.5 -0.5t2.5 -0.5q8 -3 28.5 -18t44.5 -32q3 -2 5 -3.5t4 -2.5q7 -6 14.5 -10.5t14.5 -9.5l44 -27.5t40 -24.5q4 -3 8 -5.5t9 -4.5q17 -10 35 -20.5t39 -21.5h-7h-13q-18 0 -46 1
t-57 5q-16 2 -32 5t-30 7l-6 2l-6 2q-11 3 -21 6.5t-19 7.5q-11 5 -21.5 10t-23.5 11l-105 55l-81 -52q-4 -3 -7 -5.5t-7 -4.5q-5 -3 -10 -5.5t-11 -4.5q-7 -3 -13 -5t-12 -3q-5 -2 -10 -3l-10 -2q-2 -1 -4.5 -1t-5.5 -1l-86 -15q-4 -1 -7.5 -2t-7.5 -2h-2.5t-2.5 -1
q-7 -1 -13.5 -2.5t-10.5 -1.5h-2.5t-1.5 1v0.5v0.5l-1 1v0q0 2 1.5 4.5t4.5 5.5q2 2 5.5 5t7.5 5q2 1 4 2.5t4 2.5l164 99q4 1 7.5 3t6.5 4q5 3 9.5 5t9.5 4q6 2 11.5 4t10.5 4q6 2 12 3.5t14 2.5v1z" />
    <glyph glyph-name="udieresis" unicode="&#xfc;" horiz-adv-x="1066" 
d="M214 406l-1 -3q1 -12 3 -24t5 -23q22 -70 88 -135.5t141 -104.5q37 -20 74 -31.5t68 -11.5h2h2h2h2q40 2 65 12.5t39 22.5q16 14 21 25l5 11v509l-180 2l68 50q3 1 5.5 3t5.5 4q5 3 10.5 6t11.5 5l8 2l8 2t9 1.5t11 0.5l182 1l2 -146l3 -512l162 -6l-71 -54
q-1 -2 -2.5 -3t-3.5 -2q-4 -3 -8.5 -5t-10.5 -4q-4 -1 -7.5 -2t-6.5 -1h-7h-7h-2.5h-3.5l-173 3v102l-104 -60q-10 -7 -19.5 -12t-19.5 -9q-38 -19 -76 -28.5t-73 -9.5q-7 0 -14.5 0.5t-15.5 1.5q-24 3 -66 26t-87 60q-62 50 -114.5 119t-61.5 141q-1 5 -1.5 9.5t-0.5 8.5v3
v2q0 56 32 114t70 122q2 2 3.5 4.5t2.5 4.5l33 57l-191 3q10 8 23 17t26 16q26 15 48 25t25 11q7 2 20 3t29 1q11 0 23.5 -0.5t25.5 -0.5l28 -2t27 -2q20 -2 34.5 -3.5t15.5 -1.5q-2 -1 -23.5 -36t-46.5 -83q-8 -13 -15 -27.5t-14 -28.5q-17 -38 -29.5 -74.5t-12.5 -61.5
v-0.5v-1.5v-1.5v-0.5v1zM387 1000v2l58 -54q1 -2 2 -3t3 -2q1 -2 2.5 -3t2.5 -3q4 -4 7.5 -8t3.5 -7t-3 -7.5t-7 -9.5q-1 -1 -2.5 -2t-2.5 -3l-2.5 -2.5l-3.5 -3.5l-64 -64q-1 -2 -1.5 -2.5l-1.5 -1.5t-2.5 -2t-3.5 -2q-2 -2 -4.5 -3.5t-4.5 -1.5t-4 1t-4 3l-2 2l-2 2
q-2 1 -3 2.5t-2 2.5l-64 67q-1 0 -2.5 1.5t-3.5 2.5l-2 2t-3 2q-4 4 -7 8t-3 9v3.5t1 2.5q0 1 6 7t14 13l2 2l2 2q3 3 6 5.5t6 4.5l44 37q1 0 2.5 1.5t3.5 2.5q0 1 1 1.5t1 1.5q4 3 8.5 6t7.5 3v0h1v0v0q3 -1 7 -4t7 -7q2 -1 3.5 -2.5l2.5 -2.5v1zM659 1002v2l58 -54
q1 -2 2 -3t3 -2q1 -2 2.5 -3t2.5 -3q4 -4 7.5 -8t3.5 -7t-3 -7.5t-7 -9.5q-1 -1 -2.5 -2t-2.5 -3l-2.5 -2.5l-3.5 -3.5l-64 -64q-1 -2 -1.5 -2.5l-1.5 -1.5t-2.5 -2t-3.5 -2q-2 -2 -4.5 -3.5t-4.5 -1.5t-4 1t-4 3l-2 2l-2 2q-2 1 -3 2.5t-2 2.5l-64 67q-1 0 -2.5 1.5
t-3.5 2.5l-2 2t-3 2q-4 4 -7 8t-3 9v3.5t1 2.5q0 1 6 7t14 13l2 2l2 2q3 3 6 5.5t6 4.5l44 37q1 0 2.5 1.5t3.5 2.5q0 1 1 1.5t1 1.5q4 3 8.5 6t7.5 3v0h1v0v0q3 -1 7 -4t7 -7q2 -1 3.5 -2.5l2.5 -2.5v1z" />
    <glyph glyph-name="dagger" unicode="&#x2020;" horiz-adv-x="516" 
d="M261 0l-3 -1h-4.5h-5.5h-6.5t-6.5 -1h-9.5h-7.5h-8l1 13q0 3 1.5 29t2.5 61q1 14 1.5 28t0.5 28q1 19 1.5 37t0.5 34v48v43v14.5v15.5v30v34v13h-6q-2 -1 -19.5 -1.5t-37.5 -1.5q-8 0 -15 -0.5t-14 -0.5t-14.5 -1t-15.5 -1q-4 -1 -8.5 -1t-8.5 -1q-18 -1 -31 -2.5
t-15 -1.5l-6 1v4v0.5v0.5q0 2 0.5 5l1.5 9q0 4 0.5 9.5t0.5 12.5v3.5v2.5q0 5 -0.5 10.5t-0.5 9.5q0 5 -0.5 8.5t-0.5 5.5v6h6q3 -1 10.5 -2.5t18.5 -2.5q12 -2 26 -3.5t30 -1.5h2h2h1h2h13h13h22.5h19.5h11.5h6.5l6 1v16q0 5 -0.5 24.5t-1.5 41.5q0 7 -0.5 14t-0.5 13
q0 9 -1 19.5t-1 20.5q-1 9 -1.5 17.5t-1.5 16.5q-2 22 -3.5 38t-1.5 20l-1 12l7 -1q5 -2 16 -2.5t23 -0.5h5.5h5.5h6h6q10 0 19.5 0.5t13.5 1.5l7 2l-1 -11q0 -5 -1.5 -22.5t-3.5 -40.5q-1 -7 -1.5 -14.5t-1.5 -15.5q0 -10 -1 -20.5t-1 -19.5q0 -6 -0.5 -13t-0.5 -14
q-1 -22 -1.5 -41.5t-0.5 -24.5v-15h7q2 -1 7 -1h12h19h22h14h13h3.5h2.5q16 0 30.5 1.5t26.5 3.5q11 1 18.5 2.5t10.5 1.5l5 1v-5q0 -3 -0.5 -7.5t-0.5 -10.5q-1 -3 -1 -6t-1 -6v-5.5v-5.5q0 -7 0.5 -12.5t0.5 -9.5l1.5 -9t0.5 -5v-0.5v-1.5v-3h-5q-2 -1 -15 0.5t-31 2.5
q-3 1 -7 1t-8 1q-8 0 -16 1t-15 1t-14 0.5t-14 0.5q-22 1 -40 1.5t-20 0.5l-6 1v-12v-35v-30v-15.5v-14.5v-43v-48q0 -16 0.5 -34t1.5 -37q0 -17 1 -33.5t2 -32.5q1 -32 2.5 -54.5t1.5 -26.5v-12h-7h-7.5h-9.5q-4 1 -8 1h-9h-3h-4v0z" />
    <glyph glyph-name="degree" horiz-adv-x="500" 
 />
    <glyph glyph-name="cent" unicode="&#xa2;" horiz-adv-x="558" 
d="M385 166l-1 -185l-145 -58v210q-85 8 -147 59.5t-64 147.5v5.5v4.5q0 70 19 114t43 70q22 24 40.5 34.5t20.5 11.5l245 194v-118q10 -1 18 -1.5t16 -1.5q7 -1 14 -2.5t15 -3.5q12 -2 21.5 -5t18.5 -7q8 -3 15.5 -6.5t16.5 -7.5l-106 -67q-1 0 -16 4t-38 8q-14 3 -30 6
t-32 5q-13 1 -25.5 2t-24.5 1q-19 0 -34 -3t-23 -9q-26 -19 -37 -51.5t-13 -67.5v-8v-8q0 -40 7.5 -74t17.5 -48q5 -7 15 -15.5t25 -17.5q26 -16 62 -30.5t74 -19.5q8 -1 15.5 -1.5t15.5 -0.5h3h3h2.5h2.5q9 1 18.5 3t18.5 6q7 2 14 5t13 6q23 10 40 16.5t18 -1.5t-7 -16.5
t-21 -16.5q-6 -4 -13.5 -8t-14.5 -9q-7 -4 -14.5 -8t-13.5 -8l-48 -29v0z" />
    <glyph glyph-name="sterling" unicode="&#xa3;" horiz-adv-x="630" 
d="M436 302h1q25 0 46 1t41 2t40 3t44 4q-18 -10 -34.5 -18.5t-32.5 -15.5q-23 -10 -47.5 -17.5t-55.5 -14.5q-20 -4 -37 -7t-34 -5q-12 -1 -24 -1.5t-25 -0.5h-8.5h-8.5h-5h-5q-7 -9 -13 -17t-11 -15q-3 -3 -5.5 -6.5t-5.5 -6.5q-6 -7 -13 -14.5t-15 -16.5q-6 -7 -12 -13
l-11 -11l-5 -5l-4 -4q-7 -6 -13.5 -12t-14.5 -13q6 -1 23 -3.5t41 -4.5q21 -2 45.5 -4t49.5 -3q17 -1 34 -1.5t33 -0.5q55 0 92 5t60 11q22 6 33 10.5t14 5.5l8 -7q-27 -19 -48 -34t-42 -28q-37 -23 -82 -35.5t-124 -13.5q-30 0 -55.5 1t-49.5 3h-1h-1q-18 1 -36.5 2
t-39.5 1h-6.5h-7.5q-4 -1 -7.5 -1h-7.5q-9 0 -17.5 -0.5t-15.5 -0.5q-8 -1 -16.5 -1.5t-17.5 -1.5q8 5 31.5 24.5t49.5 46.5q10 11 20.5 22t20.5 23q2 3 5 6.5t5 6.5q9 12 16.5 22.5t14.5 20.5q3 6 7 12t7 12q5 8 9.5 16.5t9.5 18.5l-170 1q7 3 12.5 7t10.5 8q1 1 2 1.5
t2 1.5q6 4 11.5 8t12.5 9l10 8t9 8q2 1 3 2l2 2l10 8t10 9l85 1v1v2v4.5v3.5v8t-1 8q0 5 -0.5 10t-1.5 11q-1 5 -2.5 10t-2.5 9q-2 5 -3 9.5t-3 9.5l-33 109q-1 1 -3.5 9t-4.5 19q-3 12 -5.5 26.5t-3.5 29.5v2.5v3.5q0 14 2.5 27.5t8.5 24.5q16 29 38 48.5t49 36.5
q14 9 29 18.5t31 20.5l16 12l16 12q15 11 29 22t28 19q9 5 18.5 8t19.5 3h2h2h1h2q33 -3 54.5 -33t33.5 -65q9 -26 13 -50t4 -37v-0.5v-1.5v-1.5v-0.5q-1 -31 -10.5 -54.5t-26.5 -45.5q-5 -5 -10 -11l-10 -12l-70 -75q-2 -3 -4.5 -5.5t-4.5 -3.5q-1 -1 -1.5 -2t-1.5 -1
q-4 -3 -7.5 -6.5l-7.5 -7.5q-3 -4 -6 -5t-5 -2q-4 0 -5.5 3t-0.5 7q0 2 1 4t2 3q18 19 30 55.5t11 94.5q0 13 -2 28t-7 30q-10 39 -31 71t-48 33q-2 0 -4.5 -0.5t-4.5 -0.5q-3 -1 -5.5 -2t-4.5 -2q-19 -10 -28 -35t-9 -56q0 -8 0.5 -16.5t1.5 -17.5t3 -17.5t4 -16.5l33 -119
q3 -10 5.5 -18t4.5 -16q3 -9 5 -18.5t3 -21.5v-2v-1v-2v-2q0 -5 -0.5 -10t-0.5 -10q-1 -10 -3 -20.5t-4 -19.5t-4 -16t-3 -9h25.5t23.5 1q11 0 22.5 0.5t25.5 0.5v1z" />
    <glyph glyph-name="section" unicode="&#xa7;" horiz-adv-x="510" 
d="M96 402l11 14l-11 8q-19 13 -31 39t-14 54v2v2v1v2v10t1 9q7 73 63 134t148 65h2h2h2h2q22 0 41 -2t30 -5q3 0 5 -0.5t3 -1.5q3 -1 12 -3.5t19 -5.5q1 -1 1.5 -1h1.5q10 -3 18 -6t11 -4l11 -3l-1 -7q0 -4 -1.5 -14.5t-2.5 -23.5q0 -4 -0.5 -8t-0.5 -8q-1 -5 -1.5 -10.5
t-0.5 -10.5q-1 -5 -1.5 -10t-0.5 -10q-2 -15 -3 -27.5t-1 -15.5l1 -10l-31 1l-9 85l-4 4q-9 10 -23.5 18.5t-30.5 14.5q-9 3 -17.5 5.5t-17.5 3.5q-9 2 -17.5 2.5t-17.5 0.5q-49 0 -87 -25.5t-48 -81.5q0 -1 -0.5 -3t-0.5 -3v-3.5v-3.5q0 -32 24 -54.5t53 -36.5
q22 -11 42 -17t29 -9l16 -5l15 -5q15 -6 37.5 -13t46.5 -16q3 -1 6.5 -2.5t6.5 -2.5q53 -22 73 -56.5t20 -71.5v-6v-6q-2 -26 -12.5 -47t-22.5 -36q-6 -8 -12 -14.5t-11 -10.5l-21 -18l5 -4q27 -19 43.5 -43.5t16.5 -60.5v-4.5v-4.5q0 -5 -1 -10.5t-2 -11.5
q-13 -68 -79.5 -127t-142.5 -72q-6 -1 -11.5 -1.5t-10.5 -0.5h-2.5h-2.5h-2.5h-2.5h-2.5h-2.5q-34 1 -65.5 9.5t-54.5 19.5q-8 3 -14.5 6.5t-11.5 6.5l-8 5l13 156h31v-55q0 -25 20.5 -46t44.5 -33q11 -5 21 -8t19 -4q11 -2 21 -2h20q68 -1 113.5 28.5t45.5 99.5v2.5v3.5
q0 25 -17 43.5t-51 34.5q-25 13 -60 25.5t-80 28.5l-37 14q-38 12 -61 26.5t-36 29.5q-18 20 -22 39t-5 35v2.5v2.5q-1 1 -1 2.5v2.5q0 29 14.5 54t31.5 44q6 8 12.5 14t12.5 11v1zM407 227h-2q1 3 1 7v8q0 9 -1.5 18.5t-6.5 19.5q-7 18 -25 34t-52 27l-187 61l-16 -18
q-15 -17 -20 -33.5t-5 -36.5v-7.5v-7.5q2 -38 58 -64t123 -48q17 -5 33 -10t32 -11q2 0 4.5 -1t5.5 -2l24 -7l9 14q4 5 7.5 10.5t6.5 10.5q4 8 6.5 16.5t4.5 18.5v1z" />
    <glyph glyph-name="bullet" horiz-adv-x="500" 
 />
    <glyph glyph-name="paragraph" unicode="&#xb6;" horiz-adv-x="635" 
d="M505 644v1v-10v-176v-511v-15q0 -9 4 -17t12 -12q6 -3 12 -5l12 -4q11 -2 21 -3.5t17 -1.5l20 -1v-29h-18q-3 0 -23 0.5t-48 1.5q-13 0 -27.5 0.5t-28.5 0.5q-17 1 -33 1h-30h-31t-32 -1q-16 0 -31.5 -0.5t-29.5 -0.5q-29 -1 -50 -1.5t-26 -0.5h-17v30l25 2h3.5h4.5
q5 0 12 0.5t14 1.5q7 2 14.5 5t13.5 9q2 2 3 3.5t2 2.5q7 8 9.5 16.5t2.5 19.5l-1 426h-12q-10 -1 -51.5 9t-91.5 36q-41 23 -69.5 68.5t-28.5 97.5q0 7 0.5 14t1.5 14q2 7 3.5 14t4.5 14q17 45 56 68t82 31q13 2 26.5 3t25.5 1h4.5h4.5h16q4 -1 23 -2.5t46 -2.5
q14 -1 29 -1.5t30 -1.5q14 0 28.5 -0.5t27.5 -0.5h24.5t25.5 1q16 0 31.5 0.5t29.5 1.5q18 0 31 1t17 1l14 2v-32h-12q-4 -1 -14.5 -2t-21.5 -3q-8 -1 -15.5 -2.5t-13.5 -3.5q-12 -4 -20 -16.5t-8 -41.5v1zM427 704l-68 -1l1 -289v-511l66 1l1 288v512v0zM280 418l1 286
l-18 1q-1 -1 -1.5 -1h-1.5q-9 0 -23.5 -3.5t-29.5 -13.5q-22 -13 -40.5 -39.5t-21.5 -73.5v-2v-1v-2v-2q-1 -52 34.5 -94.5t91.5 -53.5l9 -1v0z" />
    <glyph glyph-name="germandbls" unicode="&#xdf;" horiz-adv-x="856" 
d="M454 555v-3q0 -14 14.5 -32t59.5 -46l67 -33q5 -3 9.5 -5.5t9.5 -5.5q47 -23 89 -48t65 -55q16 -20 28 -46.5t14 -54.5q1 -2 1 -4.5v-4.5q0 -8 -1.5 -16.5t-3.5 -16.5q-1 -4 -21 -18.5t-45 -31.5q-2 -2 -4.5 -3.5t-4.5 -3.5q-7 -6 -14 -11t-13 -10q-2 -2 -5 -4t-5 -4
q-7 -7 -14 -13.5t-14 -13.5q-24 -22 -44 -42t-32 -25t-23.5 -9t-22.5 -7q-9 -3 -18 -4t-19 -1q-7 0 -15 0.5t-17 2.5q-2 0 -4.5 0.5t-4.5 1.5q-26 6 -50.5 20t-42.5 30q-11 10 -18 19.5t-9 17.5v1.5v0.5q-1 1 -1 1.5v0.5q0 6 3.5 11t8.5 9q1 1 1.5 2t1.5 1l3.5 3.5l3.5 3.5
l67 69q2 1 3.5 3t3.5 4q1 2 2.5 3.5l2.5 2.5q5 4 9 6t7 -3q1 -1 1 -2.5v-3.5l-2 -4t-3 -4q-2 -3 -3.5 -5.5t-1.5 -5.5v-0.5v-0.5v-0.5v-0.5q0 -6 4 -13.5t11 -14.5q11 -12 28 -23t35 -18q5 -2 9.5 -3.5t8.5 -2.5q9 -2 18 -3.5t18 -1.5q26 0 50.5 8.5t40.5 18.5q2 2 3.5 9.5
t1.5 18.5q0 10 -1.5 22t-3.5 24q-4 16 -10.5 30.5t-15.5 24.5t-29.5 26.5t-75.5 46.5l-130 72q-4 1 -8 3.5t-8 5.5q-20 12 -38 25t-25 26q-5 11 -9 20t-4 18q0 5 1.5 10.5t4.5 10.5q6 9 34 25t60 40q16 12 31 25.5t28 29.5q2 2 3 4.5t1 4.5q0 16 -40.5 26.5t-97.5 14.5
l-69 1v-121v-512q0 -14 -2 -24t-5 -20q-3 -6 -6.5 -13.5t-7.5 -15.5q-10 -20 -33 -40.5t-51 -41.5l-152 -116l-10 12l65 58q3 2 5.5 4.5l5.5 5.5q16 16 27 33.5t19 40.5q4 11 6 20l4 18q1 11 1.5 22t0.5 24l-1 146l-2 512l-116 3l105 59q2 0 4.5 1t4.5 2q4 2 8.5 3.5
t9.5 2.5q6 1 11.5 2t10.5 2q7 0 13 0.5t14 0.5l217 1q19 -1 44 -2.5t52 -5.5q17 -2 33.5 -6.5t31.5 -10.5q2 -1 2 -1.5v-2.5q0 -7 -10.5 -23.5t-26.5 -35.5q-4 -5 -8.5 -10t-8.5 -10q-5 -5 -9.5 -10t-9.5 -9q-25 -24 -43 -41t-18 -25v1z" />
    <glyph glyph-name="registered" unicode="&#xae;" horiz-adv-x="800" 
d="M403 -5q-185 0 -278 115.5t-93 254.5q0 140 93 256t278 116q186 0 279 -116t93 -256q0 -139 -93 -254.5t-279 -115.5v0zM403 698q-165 -1 -248 -105t-83 -229q0 -124 83 -227.5t248 -103.5q167 0 249.5 103.5t82.5 227.5q0 125 -82.5 229t-249.5 104v1zM362 371l4 12
l20 -1q2 -1 3.5 -1h2.5h6t7 1q33 4 61.5 26t28.5 55v2v2v2v2q-3 29 -18 50t-49 26q-5 1 -10.5 1h-10.5q-12 0 -23 -1t-20 -3q-4 0 -7 -0.5t-5 -1.5l-9 -2v-327q0 -8 2 -13.5t6 -10.5q3 -3 7.5 -5t9.5 -2q3 -1 6 -1t5 -1h3h2l14 -1v-16h-9q-3 -1 -11 -0.5t-18 1.5
q-5 0 -11 0.5t-12 0.5q-5 1 -10.5 1h-10.5h-8h-8q-7 -1 -14 -1.5t-14 -0.5q-10 -1 -18 -1.5t-12 -0.5l-10 1v18l17 1q1 -1 2.5 -1h2.5q3 1 6 1t6 1q4 0 7.5 1.5t6.5 4.5q5 5 6.5 11t1.5 13v307q0 8 -1 12.5t-3 7.5q-1 1 -2 2.5t-3 3.5q-3 3 -8 4.5t-12 2.5q-6 1 -12 1.5
t-8 0.5l-7 1v17h10q3 -1 15.5 -1.5t27.5 -1.5h4h4q5 0 11 -0.5t11 -0.5h17h18q14 1 28 1t24 1q9 0 15 0.5t7 0.5l10 2q2 -1 4.5 -1h5.5q7 0 14 -0.5t14 -2.5q24 -4 45.5 -17.5t30.5 -37.5q2 -4 3 -8.5t2 -8.5q0 -4 0.5 -8.5t0.5 -8.5q0 -26 -15 -49.5t-41 -40.5
q-4 -3 -9.5 -5.5t-10.5 -4.5q-11 -5 -21 -8t-14 -4l-5 -1l132 -172q1 -2 3.5 -4t5.5 -5l0.5 -0.5t1.5 -0.5q1 -1 2 -1.5t2 -1.5q1 0 2 -0.5t2 -1.5q1 0 2 -0.5t2 -0.5q2 -1 4.5 -1.5t3.5 -0.5l4 1v-17l-5 1q-5 -1 -9 -0.5t-8 0.5t-8 0.5t-9 0.5h-9.5t-9.5 -1q-3 0 -6.5 -0.5
t-7.5 -1.5h-8l-163 210v0z" />
    <glyph glyph-name="copyright" unicode="&#xa9;" horiz-adv-x="805" 
d="M403 -5q-185 0 -278 115.5t-93 254.5q0 140 93 256t278 116q186 0 279 -116t93 -256q0 -139 -93 -254.5t-279 -115.5v0zM403 698q-165 -1 -248 -105t-83 -229q0 -124 83 -227.5t248 -103.5q167 0 249.5 103.5t82.5 227.5q0 125 -82.5 229t-249.5 104v1zM529 498v7
q0 1 -0.5 2.5t-1.5 2.5q-4 9 -17 16.5t-27 12.5q-7 3 -13.5 5t-12.5 3q-2 0 -6 1t-9 2q-8 1 -17 2t-19 1q-8 0 -16 -0.5t-16 -2.5q-68 -16 -97 -64.5t-29 -107.5q0 -9 0.5 -18t1.5 -18q8 -68 57 -113t113 -48h3.5h3.5h3.5h3.5q37 -1 61.5 7.5t43.5 18.5q2 0 3 0.5t2 1.5
l14 8l4 -6l-10 -25l-14 -7q-5 -3 -11.5 -5.5t-13.5 -5.5q-15 -5 -33.5 -9.5t-37.5 -6.5q-5 -1 -9.5 -1h-8.5h-2h-2h-2h-2q-96 3 -157 51.5t-71 133.5q-1 8 -1.5 16.5t-0.5 15.5q0 85 45.5 133.5t99.5 65.5q6 3 13 4.5t13 2.5t11.5 2t11.5 1q6 1 11.5 1h11.5q18 0 34 -1.5
t27 -3.5q3 -1 5 -1.5t4 -0.5q4 -1 8.5 -2t8.5 -2q5 -1 9 -2t9 -2q14 -3 26 -6.5t17 -4.5l8 -2l-12 -88h-18v36v0z" />
    <glyph glyph-name="trademark" unicode="&#x2122;" horiz-adv-x="855" 
d="M577 362l-145 303v-255q0 -7 1.5 -12t5.5 -10q3 -3 6.5 -4.5t7.5 -2.5q3 0 5.5 -0.5t5.5 -0.5h2.5h2.5l13 -1v-15h-8q-2 -1 -8 -0.5t-14 1.5q-5 0 -11 0.5t-12 0.5h-5.5h-5.5h-4.5h-4.5h-2.5h-3.5q-5 0 -10 -0.5t-9 -0.5q-6 -1 -11 -1.5t-9 -0.5l-9 1v16l15 1q1 -1 2 -1
h2q2 1 4.5 1h4.5q4 1 7 2.5t6 4.5q5 5 6.5 10t1.5 11v276q0 7 -0.5 10.5t-2.5 6.5q-1 1 -2 2.5t-3 3.5q-2 3 -7 4l-10 2q-6 1 -11 1h-7l-6 1v16h9q3 -1 8.5 -1.5t12.5 -1.5h2h2q2 0 5 -0.5t5 -0.5h7.5h7.5q5 1 9 1t8 1q7 0 12.5 0.5t7.5 0.5l6 1l138 -293l54 113
q14 27 23 45.5t17 34.5l1.5 1.5t0.5 1.5q6 11 11.5 23t12.5 27q2 5 3.5 9t3.5 8q0 1 0.5 2.5t1.5 2.5q1 4 2.5 8t2.5 8l4 11h8q2 -1 6.5 -1.5t11.5 -0.5q4 -1 8 -1.5t8 -0.5h5.5h5.5h6h6q3 1 6.5 1t6.5 1q6 0 10.5 0.5t6.5 0.5l6 1v-16h-7q-2 -1 -7.5 -1t-11.5 -1
q-5 -1 -10.5 -2t-7.5 -4q-1 -2 -2.5 -3.5l-2.5 -2.5q-2 -3 -2.5 -6.5t-0.5 -11.5v-274q0 -7 2 -12t6 -10q3 -3 6.5 -4.5t7.5 -2.5q3 0 5.5 -0.5t5.5 -0.5h2.5h2.5l12 -1v-15h-8q-3 -1 -10 -0.5t-16 1.5h-10t-10 1h-10h-9h-8.5h-8.5q-6 -1 -11.5 -1h-10.5q-9 -1 -16 -1.5
t-11 -0.5l-10 1v16l15 1q1 -1 2 -1h2q2 1 4.5 1h4.5q4 1 7 2.5t6 4.5q5 5 6.5 10t1.5 11v257l-144 -306h-11v0zM241 389l18 -6v-15h-9q-2 -1 -9 -0.5t-16 1.5h-10.5t-10.5 1h-9.5h-8.5h-8.5h-8.5q-6 -1 -11.5 -1h-10.5q-9 -1 -16 -1.5t-11 -0.5l-9 1v16l15 1q1 -1 2 -1h2
q2 1 4.5 1h4.5q4 1 7 2.5t6 4.5q5 5 6.5 10t1.5 11v296l-82 -3q0 -1 -0.5 -1h-1.5h-1.5h-0.5h-4t-4 -2t-4 -6t-3 -9l-6 -37h-16l-3 86l9 -1q2 -1 12.5 -1.5t26.5 -0.5q12 0 26.5 -0.5t29.5 -0.5h9.5h8.5h14.5h13.5h2h2h2h2q9 0 19 0.5t19 0.5q34 0 63 0.5t32 1.5l9 3l-4 -87
h-16l-4 34q0 1 -0.5 3t-1.5 4l-2 6t-3 5q-3 3 -6.5 4.5t-8.5 1.5l-83 3v-295q0 -7 1.5 -12t5.5 -10q2 -3 6 -4.5t8 -2.5q3 0 5.5 -0.5t4.5 -0.5h2.5h2.5v1z" />
    <glyph glyph-name="acute" unicode="&#xb4;" horiz-adv-x="462" 
d="M303 742l-1 3l95 15q3 -1 6 -0.5t6 1.5h2h1q6 1 10.5 2t7.5 1h3.5t1.5 -1q1 -1 -2.5 -4.5t-9.5 -6.5q0 -1 -1 -1.5l-1 -0.5q-3 -2 -5 -3.5t-4 -2.5l-158 -100q-4 -3 -7 -5.5t-7 -4.5q-5 -3 -10 -5.5t-11 -4.5q-7 -3 -13 -5t-12 -3q-5 -2 -10 -3l-10 -2q-2 -1 -4.5 -1
t-5.5 -1l-86 -15q-4 -2 -8 -2.5t-8 -1.5q-1 0 -1.5 -0.5l-0.5 -0.5q-7 -1 -13.5 -2.5t-11.5 -1.5h-2.5t-2.5 1q-3 3 -1 6.5t7 7.5q2 1 4.5 3t5.5 4q2 2 5 3.5l5 2.5l164 99q4 1 7.5 3.5t6.5 4.5q4 3 8.5 5.5t9.5 4.5q6 2 11.5 3.5t10.5 2.5q4 1 8 1.5t8 1.5q3 0 6 0.5t7 1.5
v1z" />
    <glyph glyph-name="dieresis" unicode="&#xa8;" horiz-adv-x="524" 
d="M149 725v2l58 -54q1 -2 2 -3t3 -2q1 -2 2.5 -3t2.5 -3q4 -4 7.5 -8t3.5 -7t-3 -7.5t-7 -9.5q-1 -1 -2.5 -2t-2.5 -3l-2.5 -2.5l-3.5 -3.5l-64 -64q-1 -2 -1.5 -2.5l-1.5 -1.5t-2.5 -2t-3.5 -2q-2 -2 -4.5 -3.5t-4.5 -1.5t-4 1t-4 3l-2 2l-2 2q-2 1 -3 2.5t-2 2.5l-64 67
q-1 0 -2.5 1.5t-3.5 2.5l-2 2t-3 2q-4 4 -7 8t-3 9v3.5t1 2.5q0 1 6 7t14 13l2 2l2 2q3 3 6 5.5t6 4.5l44 37q1 0 2.5 1.5t3.5 2.5q0 1 1 1.5t1 1.5q4 3 8.5 6t7.5 3v0h1v0v0q3 -1 7 -4t7 -7q2 -1 3.5 -2.5l2.5 -2.5v1zM420 727v2l58 -54q1 -2 2 -3t3 -2q1 -2 2.5 -3t2.5 -3
q4 -4 7.5 -8t3.5 -7q1 -3 -2.5 -7.5t-7.5 -9.5l-2 -2l-2 -2l-3.5 -3.5l-3.5 -3.5l-64 -64q-1 -2 -1.5 -2.5l-1.5 -1.5t-2.5 -2t-3.5 -2q-2 -2 -4.5 -3.5t-4.5 -1.5t-4 1t-4 3l-2 2l-2 2q-2 1 -3 2.5t-2 2.5l-64 67q-1 0 -2.5 1.5t-3.5 2.5l-2 2t-3 2q-4 4 -7 8t-3 9v3.5
t1 2.5q0 1 6 7t14 13l2 2l2 2q3 3 6 5.5t6 4.5l44 37q1 0 2.5 1.5t3.5 2.5q0 1 1 1.5t1 1.5q4 3 8.5 6t7.5 3v0h1v0v0q3 -1 7 -4t7 -7q2 -1 3.5 -2.5l2.5 -2.5v1z" />
    <glyph glyph-name="AE" unicode="&#x2260;" 
 />
    <glyph glyph-name="Oslash" unicode="&#xc6;" horiz-adv-x="1173" 
d="M624 221l-308 -2l-131 -123q-22 -22 -51.5 -49t-63.5 -54q-5 -4 -10.5 -8.5t-10.5 -8.5q-17 -14 -31.5 -25t-27.5 -22q-3 -2 -6 -4.5t-6 -4.5q-13 -9 -26.5 -18.5t-29.5 -20.5q15 16 27.5 29t24.5 25q0 1 0.5 1.5l0.5 0.5q12 12 23.5 24.5t26.5 27.5q13 12 23.5 22
t20.5 19q14 13 30 28.5t42 42.5l104 111l-74 2l134 65l318 400h-195l64 41q5 2 9.5 5t8.5 5l11 5.5t12 4.5q9 3 17 3.5t15 0.5h10.5h12.5l490 1q1 -1 1.5 -1h1.5h2h2q5 0 10 -1.5t6 -6.5q1 -3 -0.5 -5.5t-2.5 -4.5q-1 -1 -1.5 -2t-0.5 -2l-66 -112q0 1 -0.5 2t-1.5 2v1v0
q-1 2 -1.5 4.5t-0.5 6.5v2v2t0.5 2.5t0.5 3.5t0.5 4t0.5 5q0 5 -2 11.5t-9 13.5q-7 8 -17 10t-21 2l-221 1v-265h304q6 -1 11 -2t9 -6q3 -4 3.5 -8.5t-1.5 -9.5q0 -2 -1 -4.5t-2 -4.5l-34 -83q0 -2 -0.5 -2.5l-0.5 -0.5q-1 -3 -3 -5.5t-4 -4.5q-1 0 -1.5 -0.5t-1.5 -0.5
q-3 1 -4 3.5t-1 6.5v4.5t1 4.5v3v3v2.5v2.5q0 8 -1 14.5t-5 10.5q-11 11 -23 13t-27 2h-1h-2l-218 1v-293h284q9 -1 16.5 -0.5t14.5 0.5q6 1 12.5 2.5t13.5 3.5q3 1 5.5 2t5.5 2q4 1 8.5 3.5t8.5 4.5q8 4 14.5 8t8.5 5v-15q-5 -6 -16 -14.5t-24 -18.5q-5 -3 -10 -6.5
t-10 -6.5q-8 -6 -16 -11t-15 -9q-13 -7 -26 -11t-30 -4h-377l1 222v0zM383 284h240l1 261l-241 -261v0z" />
    <glyph glyph-name="plusminus" unicode="&#xd8;" horiz-adv-x="859" 
d="M191 4l-1 1l-16.5 -16.5t-12.5 -10.5l-1.5 -1.5l-1.5 -1.5q-6 -5 -14 -11t-20 -16l63 100q-78 54 -117 127.5t-40 162.5q0 16 1.5 32t3.5 32q11 80 41.5 138.5t97.5 100.5l138 88q20 12 48.5 18t61.5 6q21 0 43 -2.5t45 -6.5q11 -2 22 -4.5t22 -5.5l6 -2t6 -1
q6 -2 11.5 -4t11.5 -4q7 -3 14.5 -6t15.5 -7l94 56l-51 -78q81 -49 124.5 -120t45.5 -169v-7.5v-6.5q0 -83 -27.5 -149.5t-98.5 -110.5l-153 -95q-46 -29 -87 -39t-75 -10h-14t-13 1q-13 1 -26.5 4t-27.5 7q-25 7 -48.5 16t-43.5 21q-3 -3 -4 -3.5t-1 -1.5q-1 -1 -4.5 -4
t-17.5 -18v1zM589 581v1l-276 -427q57 -37 110.5 -55t99.5 -19q32 0 59 9t47 28q26 24 43.5 82.5t17.5 128.5q0 10 -0.5 19.5t-1.5 19.5q-4 48 -19 94.5t-46 82.5q-2 2 -4 4.5t-4 4.5l-4 4t-4 5q-4 4 -8.5 8t-9.5 9v1zM520 622h-2q-24 11 -59 21t-72 16q-22 3 -43.5 5
t-40.5 2q-23 0 -41.5 -3t-29.5 -10q-28 -19 -47 -85t-19 -146q0 -11 0.5 -23t1.5 -23q2 -28 6.5 -54.5t12.5 -51.5q2 -7 6.5 -14t10.5 -14t12.5 -13.5l13.5 -13.5q12 -10 22.5 -18.5t16.5 -12.5q10 15 19 30t18 29q3 5 5.5 9.5t5.5 8.5q14 24 28.5 48.5t30.5 53.5
q20 36 37.5 66t33.5 59q1 2 2.5 4.5t2.5 4.5q16 28 32.5 58t35.5 66v1z" />
    <glyph glyph-name="yen" unicode="&#x221e;" 
 />
    <glyph glyph-name="mu" unicode="&#xb1;" horiz-adv-x="470" 
d="M27 -1v38h414v-38h-414v0zM214 357l1 182h49v-183h180v-51h-182v-182h-48v182h-181l1 52h180v0z" />
    <glyph glyph-name="ordfeminine" unicode="&#x2264;" 
 />
    <glyph glyph-name="ordmasculine" unicode="&#x2265;" 
 />
    <glyph glyph-name="ae" unicode="&#xa5;" horiz-adv-x="999" 
d="M895 328l-33 2v-69h176l-90 -56q-2 -2 -3.5 -3t-3.5 -3q-1 -1 -2.5 -1.5t-2.5 -1.5q-3 -3 -6.5 -5t-8.5 -4l-6 -2t-7 -2t-9 -1.5t-10 -0.5l-27 1v-166q0 -13 -1 -17t-3 -8l-5 -5t-8 -9q-4 -5 -29 -25t-57 -42q-3 -3 -6.5 -5.5t-7.5 -4.5q-10 -8 -20 -15t-20 -13
q-21 -14 -38 -27.5t-34 -25.5q-23 -17 -48 -30t-59 -20h-2t-2 -1h-2h-2q-22 0 -68 12t-98 29q-17 5 -34 11.5t-33 12.5q-4 1 -7.5 2.5t-6.5 2.5q-15 6 -31.5 12.5t-33.5 12.5q-17 7 -33.5 14t-31.5 13q-34 15 -57.5 30t-25.5 28v0v0v1v0q-1 12 21.5 31.5t51.5 39.5
q4 3 7.5 5.5t6.5 4.5q10 7 19 13.5t18 12.5q2 1 4 3t4 3q2 2 4 3t4 3l8 4t8 2h2t2 -1l1 -0.5t2 -1.5q3 -3 2.5 -6.5t-3.5 -6.5q-2 -2 -5 -4t-6 -5q-5 -4 -9.5 -9t-4.5 -11q1 -15 12.5 -21.5t25.5 -11.5h0.5h0.5q3 -1 5.5 -2t5.5 -2l152 -60q4 -1 28 -9.5t59 -18.5
q16 -5 34.5 -9.5t36.5 -8.5q23 -4 45 -7t41 -3q9 0 17.5 0.5t15.5 2.5q28 6 39.5 31.5t12.5 54.5q1 4 1 8.5v8.5v110l-159 -84q-13 -8 -24.5 -12.5t-23.5 -8.5q-17 -6 -35 -9.5t-40 -6.5h-2t-2 -1h-3h-2q-29 0 -69.5 23.5t-83.5 61.5q-29 26 -57.5 56.5t-53.5 61.5
q-41 51 -67 97.5t-26 75.5v5.5t1 4.5q8 38 19 67.5t25 57.5q11 20 23.5 41.5t27.5 45.5l56 90l-212 3l99 57q4 1 7 2.5t7 2.5q5 3 11 4.5t13 2.5q5 1 10 1.5t9 0.5h3.5h3.5h6.5t7.5 -1l161 -7l-113 -216q-5 -11 -9 -20.5t-7 -18.5q-3 -12 -5.5 -24t-3.5 -27v-4.5v-4.5
q0 -22 7.5 -46t20.5 -48q30 -52 80.5 -101.5t105.5 -85.5q42 -27 82 -43t71 -16q18 0 32.5 1.5t28.5 6.5q8 2 17 6t18 9l48 28v59h-229l93 56q2 0 3.5 1t3.5 3q1 1 2.5 1.5t2.5 1.5q3 3 6.5 5t8.5 4q3 1 6.5 2t6.5 2q4 1 9 1.5t10 0.5l78 1v69h-229l93 56q2 0 3.5 1t3.5 3
q1 1 2.5 1.5t2.5 1.5q3 3 6.5 5t8.5 4q3 1 6.5 2t6.5 2q4 1 9 1.5t10 0.5l78 1v254h-201l90 56q2 0 3.5 1t3.5 3q1 1 2.5 1.5t2.5 1.5q3 3 6.5 5t8.5 4q3 1 6.5 2t6.5 2q4 1 9 1.5t10 0.5l188 1v-332h176l-90 -56q-2 -2 -3.5 -3t-3.5 -3q-1 -1 -2.5 -1.5t-2.5 -1.5
q-3 -3 -6.5 -5t-8.5 -4l-6 -2t-7 -2t-9 -1.5t-10 -0.5v1z" />
    <glyph glyph-name="oslash" unicode="&#xb5;" horiz-adv-x="652" 
d="M68 555l92 -4v-373q0 -45 27.5 -81.5t71.5 -35.5q10 0 21 2.5t23 7.5q34 13 62.5 42t28.5 63v376h89v-422q0 -6 0.5 -10.5t1.5 -9.5q4 -27 18.5 -48.5t37.5 -22.5h4.5t4.5 1q19 4 31 16.5t17 31.5l9 31h20l-7 -34q-6 -31 -29.5 -53t-50.5 -32q-10 -4 -21 -6.5t-20 -2.5
h-6t-5 1h-1.5h-1.5q-34 6 -62.5 35.5t-30.5 70.5l-28 -27q-14 -15 -29.5 -27t-30.5 -22q-21 -12 -40.5 -19t-35.5 -7h-0.5h-0.5h-0.5h-0.5q-12 0 -29 4t-35 12q-17 8 -33 19.5t-28 27.5v-38q0 -22 4.5 -39.5t10.5 -34.5l2 -6t3 -6q6 -18 12 -39.5t7 -51.5v-0.5v-0.5v-0.5
v-0.5v-4.5t-1 -5.5q-2 -22 -15.5 -40t-35.5 -18h-0.5h-0.5h-0.5h-0.5q-24 1 -38 20.5t-15 43.5v2.5v3.5q0 27 5.5 45t11.5 35q5 12 9.5 26t6.5 32q0 4 0.5 8t0.5 7q1 3 1 7v8v31v512v0z" />
    <glyph glyph-name="questiondown" unicode="&#x2202;" 
 />
    <glyph glyph-name="exclamdown" unicode="&#x3a3;" 
 />
    <glyph glyph-name="florin" unicode="&#x220f;" 
 />
    <glyph glyph-name="guillemotleft" unicode="&#x3c0;" 
 />
    <glyph glyph-name="guillemotright" unicode="&#x222b;" 
 />
    <glyph glyph-name="ellipsis" unicode="&#xaa;" horiz-adv-x="677" 
d="M94 228l28 1h512q0 -1 0.5 -1h1.5h4h5q4 -1 7.5 -2.5t2.5 -5.5q-1 -1 -7 -5.5l-14 -10.5l-0.5 -0.5t-1.5 -0.5q-2 -2 -4.5 -4t-4.5 -4q-3 -3 -6 -5.5t-6 -5.5t-6 -5.5t-6 -5.5l-34 1h-512q-1 -1 -2.5 -1h-3.5q-4 0 -7.5 0.5t-4.5 3.5q-1 2 5.5 7t14.5 10q1 1 2 1.5t2 1.5
q2 1 4 3t4 3q4 3 7.5 6t6.5 6l0.5 0.5l0.5 0.5q3 3 6 5.5t6 5.5v1zM-34 218l3 -1q10 7 18 14.5t14 15.5q5 5 10 10.5t10 10.5q5 7 11 14.5t12 16.5q6 8 10 13.5t7 11.5q1 1 2 2.5t2 3.5q5 9 11.5 20t16.5 29l44 77h-38l54 25l123 212q-6 -1 -12 -0.5t-11 1.5h-7.5h-7.5h-7.5
h-8.5h-14.5t-12.5 -1q-7 0 -13.5 -1t-14.5 -2q2 3 4.5 5t4.5 4q4 4 7 6.5t7 5.5q3 2 7 4.5t8 4.5q6 3 10.5 6t8.5 5q8 4 16.5 6t23.5 2h2h2h2h2h81l200 -387h52q5 -1 9 -1h8t8 0.5t9 1.5t8.5 2t7.5 2q2 1 4.5 1.5t5.5 1.5q-7 -8 -15.5 -15t-16.5 -13q-13 -9 -24.5 -14.5
t-19.5 -9.5q-7 -3 -18.5 -4t-25.5 -1h-4h-4q-10 0 -20.5 0.5t-18.5 0.5q-7 1 -12 1.5l-5 0.5l-83 155l-218 -1l-66 -106q-6 -10 -12 -19t-13 -17q-7 -9 -15.5 -18t-17.5 -18q-9 -8 -16.5 -15t-15.5 -13q-9 -8 -18 -14.5t-20 -12.5q-5 -3 -9.5 -5t-9.5 -5zM203 491h182
l-83 158l-99 -158v0z" />
    <glyph glyph-name="Agrave" unicode="&#xba;" horiz-adv-x="537" 
d="M81 229l398 1q0 -1 0.5 -1h1.5h4.5h4.5q5 -1 8.5 -2.5t2.5 -5.5q-1 -1 -7.5 -5.5t-13.5 -10.5q-1 0 -1.5 -0.5t-1.5 -0.5q-2 -2 -4.5 -4t-4.5 -4q-3 -3 -6 -5.5t-6 -5.5t-6 -5.5t-6 -5.5l-404 1q-1 -1 -2.5 -1h-3.5q-4 0 -7.5 0.5t-4.5 3.5q-1 2 5.5 7t14.5 10q1 1 2 1.5
t2 1.5q2 1 4 3t4 3q4 3 7.5 6t6.5 6l0.5 0.5l0.5 0.5q3 3 6 5.5t6 5.5v1zM348 732l-1 -1q71 -22 115 -74t45 -126q1 -52 -14.5 -92.5t-58.5 -69.5l-85 -55q-25 -17 -51 -25t-52 -8q-25 0 -51 7t-52 20q-55 29 -84.5 77.5t-29.5 108.5q0 10 1 19.5t2 19.5q8 47 27 81.5
t60 59.5l85 52q14 7 32.5 11t40.5 4q17 0 35 -2.5t36 -7.5v1zM122 450l1 1q3 -10 16 -23.5t33 -28.5q22 -16 50 -31t58 -23q12 -3 24 -5t24 -2q18 0 35 5t30 17q16 14 26 48t10 75v9.5t-1 8.5q-1 32 -10.5 62t-28.5 54q-19 23 -48 38t-60 23q-22 6 -43 9t-39 3
q-16 0 -28.5 -2t-17.5 -6q-18 -13 -30.5 -55.5t-12.5 -92.5v-8.5v-8.5q1 -18 4 -35t8 -33v1z" />
    <glyph glyph-name="Atilde" unicode="&#x3a9;" 
 />
    <glyph glyph-name="Otilde" unicode="&#xe6;" horiz-adv-x="1174" 
d="M624 221l-308 -2l-131 -123q-22 -22 -51.5 -49t-63.5 -54q-5 -4 -10.5 -8.5t-10.5 -8.5q-17 -14 -31.5 -25t-27.5 -22q-3 -2 -6 -4.5t-6 -4.5q-13 -9 -26.5 -18.5t-29.5 -20.5q15 16 27.5 29t24.5 25q0 1 0.5 1.5l0.5 0.5q12 12 23.5 24.5t26.5 27.5q13 12 23.5 22
t20.5 19q14 13 30 28.5t42 42.5l104 111l-74 2l134 65l318 400h-195l64 41q5 2 9.5 5t8.5 5l11 5.5t12 4.5q9 3 17 3.5t15 0.5h10.5h12.5l490 1q1 -1 1.5 -1h1.5h2h2q5 0 10 -1.5t6 -6.5q1 -3 -0.5 -5.5t-2.5 -4.5q-1 -1 -1.5 -2t-0.5 -2l-66 -112q0 1 -0.5 2t-1.5 2v1v0
q-1 2 -1.5 4.5t-0.5 6.5v2v2t0.5 2.5t0.5 3.5t0.5 4t0.5 5q0 5 -2 11.5t-9 13.5q-7 8 -17 10t-21 2l-221 1v-265h304q6 -1 11 -2t9 -6q3 -4 3.5 -8.5t-1.5 -9.5q0 -2 -1 -4.5t-2 -4.5l-34 -83q0 -2 -0.5 -2.5l-0.5 -0.5q-1 -3 -3 -5.5t-4 -4.5q-1 0 -1.5 -0.5t-1.5 -0.5
q-3 1 -4 3.5t-1 6.5v4.5t1 4.5v3v3v2.5v2.5q0 8 -1 14.5t-5 10.5q-11 11 -23 13t-27 2h-1h-2l-218 1v-293h284q9 -1 16.5 -0.5t14.5 0.5q6 1 12.5 2.5t13.5 3.5q3 1 5.5 2t5.5 2q4 1 8.5 3.5t8.5 4.5q8 4 14.5 8t8.5 5v-15q-5 -6 -16 -14.5t-24 -18.5q-5 -3 -10 -6.5
t-10 -6.5q-8 -6 -16 -11t-15 -9q-13 -7 -26 -11t-30 -4h-377l1 222v0zM383 284h240l1 261l-241 -261v0z" />
    <glyph glyph-name="OE" unicode="&#xf8;" horiz-adv-x="857" 
d="M191 4l-1 1l-16.5 -16.5t-12.5 -10.5l-1.5 -1.5l-1.5 -1.5q-6 -5 -14 -11t-20 -16l63 100q-78 54 -117 127.5t-40 162.5q0 16 1.5 32t3.5 32q11 80 41.5 138.5t97.5 100.5l138 88q20 12 48.5 18t61.5 6q21 0 43 -2.5t45 -6.5q11 -2 22 -4.5t22 -5.5l6 -2t6 -1
q6 -2 11.5 -4t11.5 -4q7 -3 14.5 -6t15.5 -7l94 56l-51 -78q81 -49 124.5 -120t45.5 -169v-7.5v-6.5q0 -83 -27.5 -149.5t-98.5 -110.5l-153 -95q-46 -29 -87 -39t-75 -10h-14t-13 1q-13 1 -26.5 4t-27.5 7q-25 7 -48.5 16t-43.5 21q-3 -3 -4 -3.5t-1 -1.5q-1 -1 -4.5 -4
t-17.5 -18v1zM589 581v1l-276 -427q57 -37 110.5 -55t99.5 -19q32 0 59 9t47 28q26 24 43.5 82.5t17.5 128.5q0 10 -0.5 19.5t-1.5 19.5q-4 48 -19 94.5t-46 82.5q-2 2 -4 4.5t-4 4.5l-4 4t-4 5q-4 4 -8.5 8t-9.5 9v1zM520 622h-2q-24 11 -59 21t-72 16q-22 3 -43.5 5
t-40.5 2q-23 0 -41.5 -3t-29.5 -10q-28 -19 -47 -85t-19 -146q0 -11 0.5 -23t1.5 -23q2 -28 6.5 -54.5t12.5 -51.5q2 -7 6.5 -14t10.5 -14t12.5 -13.5l13.5 -13.5q12 -10 22.5 -18.5t16.5 -12.5q10 15 19 30t18 29q3 5 5.5 9.5t5.5 8.5q14 24 28.5 48.5t30.5 53.5
q20 36 37.5 66t33.5 59q1 2 2.5 4.5t2.5 4.5q16 28 32.5 58t35.5 66v1z" />
    <glyph glyph-name="oe" unicode="&#xbf;" horiz-adv-x="626" 
d="M321 442l1 3q8 -8 14.5 -14t12.5 -12q6 -7 11.5 -13.5t10.5 -13.5t10.5 -14t10.5 -15l145 -209q10 -15 18.5 -31t16.5 -32q12 -28 19.5 -54.5t7.5 -45.5v-6t-1 -6q-10 -68 -53.5 -122t-94.5 -85q-27 -16 -52.5 -25t-46.5 -9q-22 0 -40 5.5t-34 15.5q-5 3 -10.5 7t-10.5 8
l-138 112q-38 31 -61 69t-23 81q-1 29 10 59.5t34 63.5q13 19 28.5 35.5t31.5 27.5q12 9 23 14.5t21 7.5h1.5h1.5q5 0 8.5 -2.5t7.5 -5.5q1 0 1.5 -1t1.5 -1q1 -2 3 -3.5t4 -2.5l91 -64l-22 -11t-24 -14q-17 -12 -34 -28.5t-29 -36.5q-13 -21 -22.5 -44t-14.5 -46
q-2 -9 -3.5 -18.5t-1.5 -18.5q0 -26 9.5 -51t31.5 -44q11 -10 24.5 -14.5t29.5 -4.5q15 0 32 4t34 11q54 23 100 73.5t49 105.5v4v4q0 17 -2 33t-6 33q-10 49 -33 98.5t-53 102.5l-105 183q5 -4 10 -7t9 -6q5 -3 9 -6t7 -6q6 -4 12 -8.5t12 -10.5v1zM320 501v1q-3 -1 -7 1
t-8 5q-1 1 -2 1.5t-2 1.5l-2.5 2.5t-3.5 2.5l-60 47q-2 0 -3.5 1.5t-3.5 2.5l-10 8t-6 8v0v1v0v0q0 3 2 7.5t6 9.5q0 1 1 2.5t2 2.5t2.5 3t2.5 3l44 58q1 0 2 1t2 3q2 2 4 4.5t4 4.5q3 3 5.5 5t5.5 2t7 -1t8 -4q2 -1 4 -2.5t4 -2.5q1 0 1.5 -0.5l1.5 -1.5l65 -50q1 -2 2 -3
t2 -1q6 -4 10 -8.5t5 -9.5v0v-1q0 -4 -4 -9.5t-8 -10.5q-1 -1 -2 -2.5t-2 -2.5l-44 -54q-1 -3 -3 -5t-3 -4q-5 -6 -9.5 -11.5t-9.5 -5.5v1z" />
    <glyph glyph-name="endash" unicode="&#xa1;" horiz-adv-x="247" 
d="M139 396l-1 -2q4 -11 7.5 -20t6.5 -18q0 -2 1 -3.5t1 -3.5l6 -16t6 -18q2 -42 4 -76t4 -67t4 -67t4 -76q1 -24 3 -49.5t4 -52.5q1 -9 2 -17.5t1 -17.5q5 -49 8.5 -91.5t3.5 -61.5q0 -5 -0.5 -8.5t-1.5 -3.5q-5 -1 -16.5 7t-23.5 18q-5 3 -9 6l-8 6q-5 4 -10.5 8t-11.5 8
q-1 0 -1.5 0.5l-1.5 1.5q-15 11 -28 21t-14 15q-1 1 -1 5.5v10.5q0 25 3 76.5t6 107.5q0 4 0.5 7t0.5 7q1 20 2.5 39.5t2.5 37.5q2 28 3 59l2 62q1 17 1.5 34t1.5 33q2 67 4.5 115.5t7.5 48.5t8.5 -8t6.5 -19q1 -4 2.5 -8t2.5 -8q1 -6 3 -12t4 -11v1zM129 485l1 3v-1h-1
q-4 0 -9 3t-10 7l-3.5 3.5t-3.5 2.5l-42 37q-2 1 -5 3.5t-5 4.5l-1.5 1.5t-1.5 0.5q-7 7 -13 12.5t-7 7.5t-1 3.5v2.5q0 7 4 12.5t10 11.5l1 1l2 2l0.5 0.5l1.5 1.5l56 58q1 0 2 1.5t3 2.5l2 2l2 2q2 2 4 3t4 1q3 0 6 -2t6 -5l1.5 -1.5t1.5 -0.5l1.5 -1.5l1.5 -1.5l62 -52
q1 -2 2.5 -3t2.5 -3q2 -2 4 -3.5t4 -3.5q4 -5 6.5 -9t2.5 -7q-1 -3 -5 -7.5t-9 -9.5v0v0l-3.5 -3.5l-2.5 -2.5l-53 -56q0 -2 -1 -2.5t-1 -1.5q-2 -2 -4 -4.5t-3 -4.5q-3 -2 -5.5 -4t-4.5 -2v1z" />
    <glyph glyph-name="emdash" unicode="&#xac;" 
 />
    <glyph glyph-name="quotedblleft" unicode="&#x221a;" 
 />
    <glyph glyph-name="quotedblright" unicode="&#x192;" horiz-adv-x="529" 
d="M400 776l-1 -1q-2 1 -4.5 1.5t-4.5 0.5q-17 0 -24 -34.5t-11 -79.5q-1 -5 -1.5 -10t-1.5 -10q-2 -23 -5 -44.5t-8 -39.5l-6 -20h102l-5 -43h-108l-63 -310q-5 -27 -14 -64t-23 -76q-22 -66 -57.5 -121.5t-84.5 -55.5q-5 0 -11 0.5t-12 2.5q-11 4 -20 15t-10 24v2.5t1 2.5
q0 1 0.5 2.5t0.5 2.5q6 16 18.5 26.5t30.5 11.5h1.5h0.5q10 0 14 -4.5t7 -10.5v0v0q2 -5 5 -8.5t8 -5.5q24 -8 38.5 36t24.5 99q4 20 7.5 38.5t6.5 35.5l71 359h-112l3 44h126l6 28q3 15 7.5 31.5t8.5 33.5q21 77 55 141t85 64h3.5t3.5 -1q16 -2 29 -13t13 -25
q0 -2 -0.5 -4.5t-1.5 -4.5q-6 -18 -20 -28.5t-33 -10.5q-7 0 -11.5 3t-8.5 7l-1.5 1.5l-1.5 1.5q-2 2 -5 4.5t-7 4.5v1z" />
    <glyph glyph-name="quoteleft" unicode="&#x2248;" 
 />
    <glyph glyph-name="quoteright" unicode="&#x2206;" 
 />
    <glyph glyph-name="ydieresis" unicode="&#xab;" horiz-adv-x="756" 
d="M478 437l2 -2q41 32 54.5 42.5t20.5 16.5q1 0 1.5 0.5l0.5 0.5q4 4 9 8.5t14 13.5q7 5 13 8.5t11 7.5l11 5.5l11 5.5l8 4t9 4q13 6 24 10.5t22 8.5q12 5 25 8.5t29 7.5q-5 -6 -9.5 -11t-9.5 -10q-2 -1 -3.5 -3t-3.5 -3q-5 -6 -11 -11.5t-14 -12.5q-12 -11 -20.5 -19
t-17.5 -15q-1 -1 -3 -2.5t-4 -3.5q-6 -5 -12 -9.5t-13 -9.5q-6 -3 -11 -6t-9 -6q-1 -1 -1.5 -1t-1.5 -1l-13.5 -9t-18.5 -11q-39 -23 -47 -28t-10 -7q0 -1 -2 -3t-9 -6q14 -11 25 -20.5t22 -18.5l1.5 -1.5l0.5 -0.5q10 -9 21 -18t24 -19q20 -16 37 -30t34 -27l1 -1t2 -1
q16 -13 33.5 -26.5t37.5 -29.5l-116 -84q-17 10 -31 20l-28 20q-4 2 -7.5 5t-7.5 6q-15 11 -30 22.5t-32 25.5q-20 17 -36.5 31.5t-32.5 28.5q-15 12 -30 25t-32 28q13 11 25 21l24 20q1 0 1.5 0.5t0.5 1.5l34 28t38 31v1zM131 440l3 -3q42 34 56 46.5t22 21.5v0v0
q5 5 10 10.5t14 14.5q7 5 13 8.5t11 7.5l11 5.5l11 5.5l8 4t9 4q12 5 23 9.5t22 7.5q12 4 25.5 7t30.5 5q-6 -7 -12 -13l-12 -12l-4.5 -4.5t-4.5 -5.5q-6 -4 -11.5 -9.5t-11.5 -10.5q-12 -11 -20.5 -18.5t-17.5 -14.5l-2.5 -2.5l-2.5 -2.5q-6 -5 -12.5 -10t-14.5 -11
q-6 -3 -11 -6t-9 -6q-1 -1 -1.5 -1t-1.5 -1l-13.5 -9t-18.5 -11q-39 -23 -47 -28t-9 -7q-1 -1 -2.5 -3t-8.5 -6q13 -11 23.5 -20t21.5 -18q0 -1 1 -1.5t2 -1.5q10 -9 21 -18t24 -19q20 -16 37 -30t34 -27l1 -1t2 -1q16 -13 33.5 -26.5t37.5 -29.5l-116 -84q-17 10 -31 20
l-28 20q-4 3 -8.5 6t-8.5 6q-14 11 -28.5 22t-30.5 25q-20 17 -36.5 31.5t-32.5 28.5q-15 12 -30 25t-32 28q13 11 25 21l24 20q1 0 1.5 0.5t0.5 1.5l34 28t38 31v1z" />
    <glyph glyph-name="Ydieresis" unicode="&#xbb;" horiz-adv-x="756" 
d="M619 292l-2 3q-41 -34 -52 -44t-17 -16v0v-1q-3 -3 -7 -7.5t-14 -13.5q-10 -7 -21 -12.5t-24 -10.5q-8 -3 -16.5 -6.5t-17.5 -7.5q-13 -6 -24 -11t-22 -9q-1 -1 -2.5 -1.5t-3.5 -1.5q-10 -4 -20.5 -8.5t-23.5 -9.5q7 7 12.5 13.5t11.5 11.5q2 3 4 5l5 5q5 4 10.5 9.5
t11.5 10.5q12 11 20.5 18.5t17.5 14.5q1 2 3 3t3 3q6 4 12 9t14 10q6 3 11 6l10 6q0 1 0.5 1t1.5 1q7 4 14.5 9t18.5 11q39 23 47 28t9 7q1 1 2.5 3t8.5 6q-13 11 -23.5 20t-21.5 18q0 1 -1 1.5t-2 1.5q-10 9 -21 18t-24 19q-21 17 -38 30.5t-33 26.5q-1 1 -2 1.5t-2 1.5
q-16 13 -33 26.5t-38 29.5l114 90q18 -14 34 -25t31 -22q4 -3 8.5 -6.5t8.5 -6.5q13 -10 27 -21t29 -24q20 -17 36.5 -32t32.5 -29q15 -12 30 -25t32 -28q-13 -11 -24.5 -20.5t-23.5 -18.5q-1 -1 -2.5 -2t-2.5 -2q-17 -13 -34.5 -27l-37.5 -30v1zM272 291h-2
q-41 -35 -55 -46t-21 -18q-1 0 -1 -0.5v-0.5q-5 -4 -10 -8.5t-14 -13.5q-4 -2 -7.5 -4.5t-6.5 -4.5l-15 -7.5t-15 -6.5q-6 -2 -12 -4.5t-13 -5.5q-11 -4 -21 -8t-20 -7q-8 -3 -16 -5.5t-16 -5.5q-4 -1 -8.5 -2t-8.5 -2q5 6 9.5 11t9.5 10q2 1 3.5 3t3.5 3q5 6 11 11.5
t14 12.5q12 11 20.5 18.5t17.5 14.5q1 2 3 3t3 3q6 4 12 9t14 10q6 3 11 6t9 6q1 1 1.5 1t1.5 1l13.5 9t18.5 11q39 23 47 28t9 7q1 1 2.5 3t8.5 6q-12 11 -23.5 19.5t-22.5 17.5q-1 0 -2 1l-2 2q-11 8 -22.5 17t-24.5 19q-20 16 -37 30t-34 27l-0.5 0.5l-0.5 0.5
q-17 13 -34.5 27t-38.5 31l116 86q17 -12 32 -22t29 -20q4 -3 9 -6.5t10 -6.5q13 -10 27 -21t30 -24q20 -17 37 -31.5t34 -28.5q15 -12 30 -24.5t32 -27.5q-13 -11 -24.5 -20.5t-23.5 -19.5q0 -1 -1 -1.5l-1 -0.5l-36 -30t-39 -32v1z" />
    <glyph glyph-name="fraction" unicode="&#x2026;" horiz-adv-x="941" 
d="M153 177v2l58 -54q1 -2 2 -3t3 -2q1 -2 2.5 -3t2.5 -3q4 -4 7.5 -8t3.5 -7t-3 -7.5t-7 -9.5q-1 -1 -2.5 -2t-2.5 -3l-2.5 -2.5l-3.5 -3.5l-64 -64q-1 -2 -1.5 -2.5l-1.5 -1.5t-2.5 -2t-3.5 -2t-4.5 -2.5t-4.5 -1.5t-4 1t-4 3q-1 1 -2 1.5t-2 1.5q-2 1 -3 2.5t-2 2.5
l-64 67q-1 0 -2.5 1.5t-3.5 2.5l-2 2t-3 2q-4 4 -7 8t-3 9v3.5t1 2.5q0 1 6 7t14 13l2 2l2 2q3 3 6 5.5t6 4.5l44 37q1 0 2.5 1.5t3.5 2.5q0 1 1 1.5t1 1.5q4 3 8.5 6t7.5 3v0h1v0v0q3 -1 7 -4t7 -7q2 -1 3.5 -2.5l2.5 -2.5v1zM485 179v2l59 -54q1 -2 2 -3t3 -2q1 -2 2.5 -3
t2.5 -3q4 -4 7.5 -8t3.5 -7t-3 -7.5t-7 -9.5q-1 -1 -2.5 -2t-2.5 -3l-2.5 -2.5l-3.5 -3.5l-65 -64q-1 -2 -1.5 -2.5l-1.5 -1.5t-2.5 -2t-3.5 -3q-2 0 -4.5 -1.5t-4.5 -1.5t-4 1l-4 2l-2 2l-2 2q-2 1 -3 2.5t-2 2.5l-64 67q-1 0 -2.5 1.5t-3.5 2.5l-2 2t-3 2q-4 4 -7 8t-3 9
v3.5t1 2.5q0 1 6 7t14 13l2 2l2 2q3 3 6 5.5t6 4.5l44 37q1 0 2.5 1.5t3.5 2.5q0 1 1 1.5t1 1.5q4 3 8.5 6t7.5 3v0h1v0v0q3 -1 7 -4t7 -7q2 -1 3.5 -2.5l2.5 -2.5v1zM828 181v2l58 -54q1 -2 2 -3t3 -2q1 -2 2.5 -3t2.5 -3q4 -4 7.5 -8t3.5 -7t-3 -7.5t-7 -9.5
q-1 -1 -2.5 -2t-2.5 -3l-2.5 -2.5l-3.5 -3.5l-64 -64q-1 -2 -1.5 -2.5l-1.5 -1.5t-2.5 -2t-3.5 -2q-2 -2 -4.5 -3t-4.5 -1t-4 0.5t-4 2.5l-2 2l-2 2q-2 1 -3 2.5t-2 2.5l-64 67q-1 0 -2.5 1.5t-3.5 2.5l-2 2t-3 2q-4 4 -7 8t-3 9v3.5t1 2.5q0 1 6 7t14 13l2 2l2 2q3 3 6 5.5
t6 4.5l44 37q1 0 2.5 1.5t3.5 2.5q0 1 1 1.5t1 1.5q4 3 8.5 6t7.5 3v0h1v0v0q3 -1 7 -4t7 -7q2 -1 3.5 -2.5l2.5 -2.5v1z" />
    <glyph glyph-name="currency" unicode="&#xc0;" horiz-adv-x="1053" 
d="M-133 -140v-2q16 13 28 24.5t23 23.5q8 8 16 16.5t15 16.5q11 13 21.5 26.5t22.5 29.5q9 12 16 22.5t13 20.5l2 4t3 4q8 14 18.5 32.5t27.5 48.5l74 127h-63l90 42l206 353q-13 0 -24 0.5t-22 1.5h-8.5h-9.5h-12h-13q-14 0 -25.5 -1t-22.5 -2q-10 0 -20.5 -1.5
t-22.5 -2.5l9 9l8 8q5 5 10.5 9.5t11.5 8.5q5 3 10.5 6.5t12.5 7.5q10 6 18 10.5t16 8.5q14 7 30.5 10t47.5 3l136 -1l69 -132l263 -512h87q9 -1 16 -1h14q6 1 12.5 1.5t13.5 1.5q6 1 11 2t11 3q5 1 10 2.5t11 3.5q-12 -14 -26 -25.5t-29 -21.5q-21 -14 -40.5 -23.5
t-31.5 -15.5q-11 -5 -30.5 -7t-42.5 -2h-5.5h-5.5q-17 0 -34 1t-30 2q-12 1 -20 2t-9 1l-134 252l-368 5l-110 -177q-6 -11 -12.5 -20.5t-13.5 -19.5q-14 -19 -31 -38t-38 -39q-14 -13 -26 -24t-24 -21q-15 -12 -30 -22.5t-33 -20.5q-8 -4 -17 -9t-19 -10h-1zM258 315
l304 -1l-139 264l-165 -263v0zM413 843h1q-3 0 -6 1l-6 2q-11 3 -21 6.5t-19 7.5q-11 5 -21.5 10t-23.5 11l-110 58q-1 0 -2 0.5t-2 0.5q-7 4 -12.5 9t-5.5 11q0 3 4 5.5t10 4.5q5 2 10 3.5t11 3.5l63 22q1 -1 2.5 -0.5t2.5 1.5q4 2 8.5 3.5t8.5 1.5h2h2l1 -0.5t2 -0.5
q8 -3 28.5 -18t44.5 -32q3 -2 5 -3.5t4 -2.5q7 -6 14.5 -10.5t14.5 -9.5l44 -27.5t40 -24.5q4 -3 8.5 -5.5t8.5 -4.5q17 -10 35.5 -20.5t39.5 -21.5h-7.5h-12.5q-18 0 -45.5 1t-57.5 5q-16 2 -32.5 5t-30.5 7v1z" />
    <glyph glyph-name="guilsinglleft" unicode="&#xc3;" horiz-adv-x="1050" 
d="M-133 -140v-2q16 13 28 24.5t23 23.5q8 8 16 16.5t15 16.5q11 13 21.5 26.5t22.5 29.5q9 12 16 22.5t13 20.5l2 4t3 4q8 14 18.5 32.5t27.5 48.5l74 127h-63l90 42l206 353q-13 0 -24 0.5t-22 1.5h-8.5h-9.5h-12h-13q-14 0 -25.5 -1t-22.5 -2q-10 0 -20.5 -1.5
t-22.5 -2.5l9 9l8 8q5 5 10.5 9.5t11.5 8.5q5 3 10.5 6.5t12.5 7.5q10 6 18 10.5t16 8.5q14 7 30.5 10t47.5 3l136 -1l69 -132l263 -512h87q9 -1 16 -1h14q6 1 12.5 1.5t13.5 1.5q6 1 11 2t11 3q5 1 10 2.5t11 3.5q-12 -14 -26 -25.5t-29 -21.5q-21 -14 -40.5 -23.5
t-31.5 -15.5q-11 -5 -30.5 -7t-42.5 -2h-5.5h-5.5q-17 0 -34 1t-30 2q-12 1 -20 2t-9 1l-134 252l-368 5l-110 -177q-6 -11 -12.5 -20.5t-13.5 -19.5q-14 -19 -31 -38t-38 -39q-14 -13 -26 -24t-24 -21q-15 -12 -30 -22.5t-33 -20.5q-8 -4 -17 -9t-19 -10h-1zM258 315
l304 -1l-139 264l-165 -263v0zM99 863l2 -1q4 5 7.5 9t6.5 7q1 1 2 2.5t3 2.5q2 2 4 3.5t4 3.5l83 73q7 5 12.5 10t11.5 10q12 10 24.5 17t29.5 10q4 1 8 1.5t8 0.5q2 0 3.5 0.5t3.5 0.5q11 0 20.5 -2t19.5 -5q9 -3 19 -7.5t20 -9.5l93 -44q8 -5 15.5 -7.5t14.5 -3.5
q7 -2 14.5 -2.5t15.5 -0.5h14t15 1q36 2 64 11.5t54 27.5q8 5 16 11.5t16 13.5q2 2 4 3l4 2q7 5 13.5 4.5t6.5 -4.5q0 -2 -1.5 -5t-6.5 -8q-6 -6 -11 -11.5t-10 -9.5l-4 -4l-4 -4q-4 -4 -9 -8t-11 -9l-77 -61q-9 -8 -17.5 -14.5t-16.5 -12.5q-16 -11 -33.5 -18.5
t-40.5 -10.5q-7 -1 -13 -1.5t-11 -0.5q-16 0 -30 2.5t-27 7.5q-11 4 -22 9.5l-23 11.5l-96 53q-5 1 -9 3l-8 4q-8 2 -15.5 3.5t-17.5 1.5h-2.5h-3.5q-22 0 -39 -8t-33 -21q-9 -8 -19 -17.5t-21 -19.5q-13 -10 -17.5 -7.5t-4.5 8.5q0 2 0.5 4.5t1.5 3.5v1z" />
    <glyph glyph-name="guilsinglright" unicode="&#xd5;" horiz-adv-x="850" 
d="M560 736l-2 -1q118 -35 191 -122t74 -211v-2.5v-2.5v-3v-3q0 -81 -25.5 -146t-94.5 -110l-141 -92q-43 -29 -86 -42t-87 -13q-42 0 -84.5 11.5t-86.5 33.5q-91 48 -139.5 128.5t-48.5 178.5q0 17 1 33.5t4 32.5q13 80 44.5 137.5t100.5 98.5l141 85q22 12 53 18.5t67 6.5
q21 0 43.5 -2t45.5 -7q7 -2 15 -4t15 -4v1zM181 268l1 -1q5 -16 26.5 -38.5t55.5 -47.5q37 -27 84.5 -52t97.5 -39q20 -5 40 -8t39 -3q30 0 58 8.5t51 28.5q26 23 43 80t17 125q0 10 -0.5 20.5t-1.5 20.5q-4 50 -19 97.5t-45 84.5q-31 39 -80 64.5t-101 38.5
q-37 10 -72.5 14.5t-64.5 4.5q-28 0 -48 -3.5t-29 -9.5q-30 -20 -50.5 -91.5t-20.5 -154.5v-10v-11q1 -31 5.5 -61t13.5 -58v1zM85 857l2 -1q4 5 7.5 9t6.5 7q1 1 2 2.5t3 2.5q2 2 4 3.5t4 3.5l83 73q7 5 12.5 10t11.5 10q12 10 24.5 17t29.5 10q4 1 8 1.5t8 0.5
q2 0 3.5 0.5t3.5 0.5q11 0 20.5 -2t19.5 -5q9 -3 19 -7.5t20 -9.5l93 -44q8 -5 15.5 -7.5t14.5 -3.5q7 -2 14.5 -2.5t15.5 -0.5h14t15 1q36 2 64 11.5t54 27.5q8 5 16 11.5t16 13.5q2 2 4 3l4 2q7 5 13.5 4.5t6.5 -4.5q0 -2 -1.5 -5t-6.5 -8q-6 -6 -11 -11.5t-10 -9.5l-4 -4
l-4 -4q-4 -4 -9 -8t-11 -9l-77 -61q-9 -8 -17 -14.5t-16 -11.5q-16 -12 -34 -19.5t-42 -10.5q-6 -1 -12 -1.5t-12 -0.5q-15 0 -28 2.5t-26 6.5q-11 4 -22.5 9.5t-24.5 12.5l-96 53q-5 1 -9 3l-8 4q-8 2 -15.5 3.5t-17.5 1.5h-2.5h-3.5q-22 0 -39 -8t-33 -21q-9 -8 -19 -17.5
t-21 -19.5q-13 -10 -17.5 -7.5t-4.5 8.5q0 2 0.5 4.5t1.5 3.5v1z" />
    <glyph glyph-name="fi" unicode="&#x152;" horiz-adv-x="1262" 
d="M220 44h5q-90 53 -139.5 132.5t-49.5 176.5q0 16 1.5 31.5t3.5 31.5q13 80 46.5 134.5t98.5 100.5l69 51q38 26 80.5 40.5t95.5 18.5h7.5h7.5h12.5t13.5 -1q12 -1 23.5 -2t22.5 -3q14 -1 23.5 -3t10.5 -2l86 1h511q1 -1 1.5 -1h1.5h2h2q5 0 10 -1.5t6 -6.5
q1 -3 -0.5 -5.5t-2.5 -4.5q-1 -1 -1.5 -2t-0.5 -2l-66 -112q0 1 -0.5 2t-1.5 2v1v0q-1 2 -1.5 4.5t-0.5 6.5v2v2t0.5 2.5t0.5 3.5t0.5 4t0.5 5q0 5 -2 11.5t-9 13.5q-7 8 -16.5 11t-20.5 3l-358 1q10 -7 25 -19t31 -27q14 -14 27.5 -30.5t23.5 -34.5q7 -12 13 -25.5
t10 -27.5q11 -31 15.5 -59.5t4.5 -44.5l292 1q6 -1 11 -2t9 -6q3 -4 3.5 -8.5t-1.5 -9.5q0 -2 -1 -4.5t-2 -4.5l-34 -83q0 -2 -0.5 -3t-1.5 -2q-1 -2 -2.5 -4.5t-3.5 -3.5q-1 -2 -2.5 -3t-2.5 -1q-3 1 -4 3.5t-1 6.5v4.5t1 4.5v3v3v2.5v2.5q0 8 -1 14.5t-5 10.5
q-11 11 -23 13t-27 2h-1h-2l-204 1q-1 -25 -4.5 -44.5t-10.5 -38.5q-4 -12 -9.5 -25t-13.5 -27q-15 -29 -42.5 -54t-56.5 -45q-40 -28 -74 -44t-39 -17l447 1q18 -1 32.5 1.5t28.5 7.5q11 4 22.5 8.5t25.5 9.5q6 2 12.5 5t13.5 6q4 2 7.5 3.5t7.5 3.5q18 9 31.5 16.5
t15.5 8.5q-9 -18 -21 -33.5t-25 -28.5q-10 -10 -19.5 -18t-17.5 -13q-13 -8 -24.5 -15t-22.5 -12q-20 -9 -41 -13t-47 -4h-491q-13 -2 -24.5 -2.5t-22.5 -1.5h-10.5h-11.5h-11h-13q-43 2 -78.5 4.5t-69.5 13.5q-16 6 -31.5 13t-32.5 17v1zM184 277v1q5 -16 23.5 -38.5
t47.5 -46.5q48 -39 116 -71.5t140 -32.5q9 0 18 0.5t18 1.5q18 3 36.5 8.5t35.5 14.5q42 22 64 81t22 129q0 11 -0.5 22.5t-1.5 23.5q-5 48 -20 93.5t-42 81.5q-32 43 -82.5 70t-105.5 41q-34 9 -67.5 13t-62.5 4q-30 0 -52.5 -3.5t-33.5 -11.5q-31 -21 -52 -90t-21 -151
v-12t1 -12q1 -30 5.5 -59.5t13.5 -57.5v1z" />
    <glyph glyph-name="fl" unicode="&#x153;" horiz-adv-x="1256" 
d="M220 44h5q-90 53 -139.5 132.5t-49.5 176.5q0 16 1.5 31.5t3.5 31.5q13 80 46.5 134.5t98.5 100.5l69 51q38 26 80.5 40.5t95.5 18.5h7.5h7.5h12.5t13.5 -1q12 -1 23.5 -2t22.5 -3q14 -1 23.5 -3t10.5 -2l86 1h511q1 -1 1.5 -1h1.5h2h2q5 0 10 -1.5t6 -6.5
q1 -3 -0.5 -5.5t-2.5 -4.5q-1 -1 -1.5 -2t-0.5 -2l-66 -112q0 1 -0.5 2t-1.5 2v1v0q-1 2 -1.5 4.5t-0.5 6.5v2v2t0.5 2.5t0.5 3.5t0.5 4t0.5 5q0 5 -2 11.5t-9 13.5q-7 8 -16.5 11t-20.5 3l-358 1q10 -7 25 -19t31 -27q14 -14 27.5 -30.5t23.5 -34.5q7 -12 13 -25.5
t10 -27.5q11 -31 15.5 -59.5t4.5 -44.5l292 1q6 -1 11 -2t9 -6q3 -4 3.5 -8.5t-1.5 -9.5q0 -2 -1 -4.5t-2 -4.5l-34 -83q0 -2 -0.5 -3t-1.5 -2q-1 -2 -2.5 -4.5t-3.5 -3.5q-1 -2 -2.5 -3t-2.5 -1q-3 1 -4 3.5t-1 6.5v4.5t1 4.5v3v3v2.5v2.5q0 8 -1 14.5t-5 10.5
q-11 11 -23 13t-27 2h-1h-2l-204 1q-1 -25 -4.5 -44.5t-10.5 -38.5q-4 -12 -9.5 -25t-13.5 -27q-15 -29 -42.5 -54t-56.5 -45q-40 -28 -74 -44t-39 -17l447 1q18 -1 32.5 1.5t28.5 7.5q11 4 22.5 8.5t25.5 9.5q6 2 12.5 5t13.5 6q4 2 7.5 3.5t7.5 3.5q18 9 31.5 16.5
t15.5 8.5q-9 -18 -21 -33.5t-25 -28.5q-10 -10 -19.5 -18t-17.5 -13q-13 -8 -24.5 -15t-22.5 -12q-20 -9 -41 -13t-47 -4h-491q-13 -2 -24.5 -2.5t-22.5 -1.5h-10.5h-11.5h-11h-13q-43 2 -78.5 4.5t-69.5 13.5q-16 6 -31.5 13t-32.5 17v1zM184 277v1q5 -16 23.5 -38.5
t47.5 -46.5q48 -39 116 -71.5t140 -32.5q9 0 18 0.5t18 1.5q18 3 36.5 8.5t35.5 14.5q42 22 64 81t22 129q0 11 -0.5 22.5t-1.5 23.5q-5 48 -20 93.5t-42 81.5q-32 43 -82.5 70t-105.5 41q-34 9 -67.5 13t-62.5 4q-30 0 -52.5 -3.5t-33.5 -11.5q-31 -21 -52 -90t-21 -151
v-12t1 -12q1 -30 5.5 -59.5t13.5 -57.5v1z" />
    <glyph glyph-name="daggerdbl" horiz-adv-x="686" 
d="M147 425h472q0 -1 0.5 -1h0.5h8t12 -1q8 -1 14.5 -3.5t6.5 -7.5v-0.5v-1.5t-0.5 -1.5l-0.5 -0.5q-1 -2 -13.5 -11.5t-27.5 -20.5q-1 -1 -1.5 -1t-0.5 -1q-5 -4 -10 -7.5t-10 -7.5q-6 -5 -11.5 -9.5t-10.5 -8.5q-1 -1 -2.5 -2t-2.5 -2q-5 -5 -10.5 -9.5t-11.5 -10.5
l-485 1q-1 -1 -3 -1h-3h-3.5h-3.5q-8 0 -14.5 1.5t-7.5 5.5q-1 5 12 14.5t28 20.5q2 1 4 2.5t4 2.5q5 3 9 6.5t8 6.5q7 6 13 11l12 10l2 2l2 2q6 5 12 10.5t13 11.5v1z" />
    <glyph glyph-name="periodcentered" unicode="&#x2014;" horiz-adv-x="951" 
d="M147 425h222h512q0 -1 0.5 -1h0.5h8t12 -1q8 -1 14.5 -3.5t6.5 -7.5v-0.5v-1.5t-0.5 -1.5l-0.5 -0.5q-1 -2 -13.5 -11.5t-27.5 -20.5q-1 -1 -1.5 -1t-0.5 -1q-5 -4 -10 -7.5t-10 -7.5q-6 -5 -11.5 -9.5t-10.5 -8.5q-1 -1 -2.5 -2t-2.5 -2q-5 -5 -10.5 -9.5t-11.5 -10.5
l-235 1h-512q-1 -1 -3 -1h-3h-3.5h-3.5q-8 0 -14.5 1.5t-7.5 5.5q-1 5 12 14.5t28 20.5q2 1 4 2.5t4 2.5q5 3 9 6.5t8 6.5q7 6 13 11l12 10l2 2l2 2q6 5 12 10.5t13 11.5v1z" />
    <glyph glyph-name="quotedblbase" unicode="&#x201c;" horiz-adv-x="459" 
d="M432 473l2 1q-5 -7 -9.5 -12.5t-8.5 -10.5l-4.5 -4.5l-4.5 -4.5l-8.5 -8.5l-9.5 -9.5q-6 -6 -11 -10.5t-10 -8.5l-2 -2l-2 -2q-4 -4 -9.5 -8.5t-11.5 -9.5q-34 26 -54.5 56.5t-21.5 74.5q0 13 3.5 27t9.5 28q9 20 21.5 39t26.5 36q20 25 37 44t22 27q1 2 2.5 4.5t3.5 4.5
q2 3 4.5 5.5l4.5 4.5q3 2 5 3t4 1h0.5h1.5t1.5 -0.5l0.5 -0.5q3 -2 0 -8t-7 -12q0 -1 -0.5 -1.5l-0.5 -0.5q-2 -3 -3 -5.5t-2 -4.5q0 -1 -6.5 -12.5t-13.5 -26.5q-3 -6 -5.5 -11.5t-4.5 -11.5q-4 -10 -7 -20.5t-3 -18.5v-4v-4q0 -30 11 -53t24 -39q12 -14 22.5 -22t12.5 -10
v1zM199 474l2 1q-5 -7 -9.5 -12.5t-8.5 -10.5l-4.5 -4.5l-4.5 -4.5l-8.5 -8.5l-9.5 -9.5q-6 -6 -11 -10.5t-10 -8.5l-2 -2l-2 -2q-4 -4 -9.5 -8.5t-11.5 -9.5q-34 26 -54.5 56.5t-21.5 74.5q0 13 3.5 27t9.5 28q9 20 21.5 39t26.5 36q20 25 37 44t22 27q1 2 2.5 4.5t3.5 4.5
q2 3 4.5 5.5l4.5 4.5q3 2 5 3t4 1h0.5h1.5t1.5 -0.5l0.5 -0.5q3 -2 0 -8t-7 -12q0 -1 -0.5 -1.5l-0.5 -0.5q-2 -3 -3 -5.5t-2 -4.5q0 -1 -6.5 -12.5t-13.5 -26.5q-3 -6 -5.5 -11.5t-4.5 -11.5q-4 -10 -7 -20.5t-3 -18.5v-4v-4q0 -30 11 -53t24 -39q12 -14 22.5 -22t12.5 -10
v1z" />
    <glyph glyph-name="perthousand" unicode="&#x201d;" horiz-adv-x="465" 
d="M265 649l-2 -1q5 5 9.5 10.5t8.5 10.5l4.5 4.5l4.5 4.5l8.5 8.5l9.5 9.5q6 6 11 10.5t10 8.5l2 2l2 2q4 4 9.5 8.5t11.5 9.5q35 -25 55 -55.5t21 -74.5q0 -13 -3.5 -27.5t-10.5 -29.5q-9 -19 -21.5 -37.5t-25.5 -35.5q-20 -26 -37 -45t-22 -27q-1 -2 -2.5 -4.5t-3.5 -4.5
q-2 -3 -4.5 -5.5l-4.5 -4.5q-3 -2 -5 -3t-4 -1h-0.5h-1.5t-1.5 0.5l-0.5 0.5q-3 2 0 8t7 12q0 1 0.5 1.5t0.5 1.5q2 2 3 4.5t2 4.5q0 1 6.5 12.5t13.5 26.5q3 6 5.5 12t4.5 12q4 11 7 21t3 18v4.5v3.5q0 30 -11 53t-24 38q-12 14 -22.5 22t-12.5 10v1zM32 650l-2 -1
q5 5 9.5 10.5t8.5 10.5l4.5 4.5l4.5 4.5l8.5 8.5l9.5 9.5q6 6 11 10.5t10 8.5l2 2l2 2q4 4 9.5 8.5t11.5 9.5q35 -25 55 -55.5t21 -74.5q0 -13 -3.5 -27.5t-10.5 -29.5q-9 -19 -21.5 -37.5t-25.5 -35.5q-20 -26 -37 -45t-22 -27q-1 -2 -2.5 -4.5t-3.5 -4.5q-2 -3 -4.5 -5.5
l-4.5 -4.5q-3 -2 -5 -3t-4 -1h-0.5h-1.5t-1.5 0.5l-0.5 0.5q-3 2 0 8t7 12q0 1 0.5 1.5t0.5 1.5q2 2 3 4.5t2 4.5q0 1 6.5 12.5t13.5 26.5q3 6 5.5 12t4.5 12q4 11 7 21t3 18v4.5v3.5q0 30 -11 53t-24 38q-12 14 -22.5 22t-12.5 10v1z" />
    <glyph glyph-name="Acircumflex" unicode="&#x2018;" horiz-adv-x="239" 
d="M175 475l2 1q-5 -7 -9.5 -12.5t-8.5 -10.5l-4.5 -4.5l-4.5 -4.5l-8.5 -8.5l-9.5 -9.5q-6 -6 -11 -10.5t-10 -8.5l-2 -2l-2 -2q-4 -4 -9.5 -8.5t-11.5 -9.5q-34 26 -54.5 56.5t-21.5 74.5q0 13 3.5 27t9.5 28q9 20 21.5 39t26.5 36q20 25 37 44t22 27q1 2 2.5 4.5t3.5 4.5
q2 3 4.5 5.5l4.5 4.5q3 2 5 3t4 1h0.5h1.5t1.5 -0.5l0.5 -0.5q3 -2 0 -8t-7 -12q0 -1 -0.5 -1.5l-0.5 -0.5q-2 -3 -3 -5.5t-2 -4.5q0 -1 -6.5 -12.5t-13.5 -26.5q-3 -6 -5.5 -11.5t-4.5 -11.5q-4 -10 -7 -20.5t-3 -18.5v-4v-4q0 -30 11 -53t24 -39q12 -14 22.5 -22t12.5 -10
v1z" />
    <glyph glyph-name="Ecircumflex" unicode="&#x2019;" horiz-adv-x="239" 
d="M32 650l-2 -1q5 5 9.5 10.5t8.5 10.5l4.5 4.5l4.5 4.5l8.5 8.5l9.5 9.5q6 6 11 10.5t10 8.5l2 2l2 2q4 4 9.5 8.5t11.5 9.5q35 -25 55 -55.5t21 -74.5q0 -13 -3.5 -27.5t-10.5 -29.5q-9 -19 -21.5 -37.5t-25.5 -35.5q-20 -26 -37 -45t-22 -27q-1 -2 -2.5 -4.5t-3.5 -4.5
q-2 -3 -4.5 -5.5l-4.5 -4.5q-3 -2 -5 -3t-4 -1h-0.5h-1.5t-1.5 0.5l-0.5 0.5q-3 2 0 8t7 12q0 1 0.5 1.5t0.5 1.5q2 2 3 4.5t2 4.5q0 1 6.5 12.5t13.5 26.5q3 6 5.5 12t4.5 12q4 11 7 21t3 18v4.5v3.5q0 30 -11 53t-24 38q-12 14 -22.5 22t-12.5 10v1z" />
    <glyph glyph-name="Aacute" unicode="&#xf7;" 
 />
    <glyph glyph-name="Edieresis" unicode="&#x25ca;" 
 />
    <glyph glyph-name="Egrave" unicode="&#xff;" horiz-adv-x="938" 
d="M179 574l53 92l-212 3l99 57q4 1 7 2.5t7 2.5q5 3 11 4.5t13 2.5q5 1 10 1.5t9 0.5h3.5h3.5h6.5t7.5 -1l161 -7l-113 -216q-5 -11 -9 -20.5t-7 -18.5q-3 -12 -5.5 -24t-3.5 -27v-4.5v-4.5q0 -22 7.5 -46t20.5 -48q30 -52 80.5 -101.5t105.5 -85.5q42 -27 82 -43t71 -16
q18 0 32.5 1.5t28.5 6.5q8 2 17 6t18 9l48 28v27v512h-201l90 56q2 0 3.5 1t3.5 3q1 1 2.5 1.5t2.5 1.5q3 3 6.5 5t8.5 4q3 1 6.5 2t6.5 2q4 1 9 1.5t10 0.5l188 1v-161v-512v-10.5t1 -9.5v-8.5v-9.5q0 -14 -3.5 -27t-14.5 -26q-5 -5 -30 -25t-57 -42q-3 -3 -6.5 -5.5
t-6.5 -4.5q-11 -7 -21 -14.5t-20 -13.5q-21 -14 -38 -27.5t-34 -25.5q-23 -17 -48 -30t-59 -20h-2t-2 -1h-2h-2q-22 0 -68 12t-98 29q-17 5 -34 11.5t-33 12.5q-4 1 -7.5 2.5t-6.5 2.5q-15 6 -31.5 12.5t-33.5 12.5q-17 7 -33.5 14t-31.5 13q-34 15 -57.5 30t-25.5 28v0v0v1
v0q-1 12 21.5 31t51.5 40q4 3 7.5 5.5t6.5 4.5q10 7 19 13.5t18 12.5q2 1 4 3t4 3q2 2 4 3t4 3l8 4t8 2h2t2 -1l1 -0.5t2 -1.5q3 -3 2.5 -6.5t-3.5 -6.5q-2 -2 -5 -4t-6 -5q-5 -4 -9.5 -9t-4.5 -11q1 -15 12.5 -21.5t25.5 -12.5h0.5h0.5q3 0 5.5 -1t5.5 -2l152 -60
q4 -1 28 -9.5t59 -18.5q16 -5 34.5 -9.5t36.5 -8.5q23 -4 45 -7t41 -3q9 0 17.5 0.5t15.5 2.5q28 6 39.5 31.5t12.5 54.5q1 4 1 8.5v8.5v110l-159 -84q-13 -8 -24.5 -12.5t-23.5 -8.5q-17 -6 -35 -9.5t-40 -6.5h-2t-2 -1h-3h-2q-29 0 -69.5 23.5t-83.5 61.5
q-29 26 -57.5 56.5t-53.5 61.5q-41 51 -67 97.5t-26 75.5v5.5t1 4.5q8 38 19 67.5t25 57.5q11 20 23.5 41.5t27.5 45.5v1zM376 1000v2l58 -54q1 -2 2 -3t3 -2q1 -2 2.5 -3t2.5 -3q4 -4 7.5 -8t3.5 -7t-3 -7.5t-7 -9.5q-1 -1 -2.5 -2t-2.5 -3l-2.5 -2.5l-3.5 -3.5l-64 -64
q-1 -2 -1.5 -2.5l-1.5 -1.5t-2.5 -2t-3.5 -2q-2 -2 -4.5 -3.5t-4.5 -1.5t-4 1t-4 3l-2 2l-2 2q-2 1 -3 2.5t-2 2.5l-64 67q-1 0 -2.5 1.5t-3.5 2.5l-2 2t-3 2q-4 4 -7 8t-3 9v3.5t1 2.5q0 1 6 7t14 13l2 2l2 2q3 3 6 5.5t6 4.5l44 37q1 0 2.5 1.5t3.5 2.5q0 1 1 1.5t1 1.5
q4 3 8.5 6t7.5 3v0h1v0v0q3 -1 7 -4t7 -7q2 -1 3.5 -2.5l2.5 -2.5v1zM648 1002v2l58 -54q1 -2 2 -3t3 -2q1 -2 2.5 -3t2.5 -3q4 -4 7.5 -8t3.5 -7t-3 -7.5t-7 -9.5q-1 -1 -2.5 -2t-2.5 -3l-2.5 -2.5l-3.5 -3.5l-64 -64q-1 -2 -1.5 -2.5l-1.5 -1.5t-2.5 -2t-3.5 -2
q-2 -2 -4.5 -3.5t-4.5 -1.5t-4 1t-4 3l-2 2l-2 2q-2 1 -3 2.5t-2 2.5l-64 67q-1 0 -2.5 1.5t-3.5 2.5l-2 2t-3 2q-4 4 -7 8t-3 9v3.5t1 2.5q0 1 6 7t14 13l2 2l2 2q3 3 6 5.5t6 4.5l44 37q1 0 2.5 1.5t3.5 2.5q0 1 1 1.5t1 1.5q4 3 8.5 6t7.5 3v0h1v0v0q3 -1 7 -4t7 -7
q2 -1 3.5 -2.5l2.5 -2.5v1z" />
    <glyph glyph-name="Iacute" unicode="&#x178;" horiz-adv-x="500" 
 />
    <glyph glyph-name="Icircumflex" unicode="&#x2215;" horiz-adv-x="500" 
 />
    <glyph glyph-name="Idieresis" unicode="&#xa4;" horiz-adv-x="500" 
 />
    <glyph glyph-name="Igrave" unicode="&#x2039;" horiz-adv-x="500" 
 />
    <glyph glyph-name="Oacute" unicode="&#x203a;" horiz-adv-x="500" 
 />
    <glyph glyph-name="Ocircumflex" unicode="&#xf001;" horiz-adv-x="500" 
 />
    <glyph glyph-name="Ograve" unicode="&#xf002;" horiz-adv-x="500" 
 />
    <glyph glyph-name="Uacute" unicode="&#x2021;" horiz-adv-x="500" 
 />
    <glyph glyph-name="Ucircumflex" unicode="&#x2219;" horiz-adv-x="256" 
d="M153 440v2l58 -54q1 -2 2 -3t3 -2q1 -2 2.5 -3t2.5 -3q4 -4 7.5 -8t3.5 -7t-3 -7.5t-7 -9.5q-1 -1 -2.5 -2t-2.5 -3l-2.5 -2.5l-3.5 -3.5l-64 -64q-1 -2 -1.5 -2.5l-1.5 -1.5t-2.5 -2t-3.5 -2q-2 -2 -4.5 -3.5t-4.5 -1.5t-4 1t-4 3l-2 2l-2 2q-2 1 -3 2.5t-2 2.5l-64 67
q-1 0 -2.5 1.5t-3.5 2.5l-2 2t-3 2q-4 4 -7 8t-3 9v3.5t1 2.5q1 2 8 8t16 13l0.5 0.5l0.5 0.5q3 2 6 5t6 5l45 39q2 0 4 2l4 4l7.5 7.5t7.5 2.5q3 -1 7 -4t7 -7q2 -1 3.5 -2.5l2.5 -2.5v1z" />
    <glyph glyph-name="Ugrave" unicode="&#x201a;" 
 />
    <glyph glyph-name="dotlessi" unicode="&#x201e;" horiz-adv-x="500" 
 />
    <glyph glyph-name="circumflex" unicode="&#x2030;" horiz-adv-x="500" 
 />
    <glyph glyph-name="tilde" unicode="&#xc2;" horiz-adv-x="1086" 
d="M-96 -140v-2q16 13 28 24.5t23 23.5q8 8 16 16.5t15 16.5q11 13 21 26.5t22 29.5q10 12 17 22.5t13 20.5l2 4t3 4q8 14 18.5 32.5t27.5 48.5l74 127h-63l90 42l206 353q-13 0 -24 0.5t-22 1.5h-8.5h-9.5h-12h-13q-14 0 -25.5 -1t-22.5 -2q-10 0 -20.5 -1.5t-22.5 -2.5
l9 9l8 8q5 5 10.5 9.5t11.5 8.5q5 3 10.5 6.5t12.5 7.5q10 6 18 10.5t16 8.5q14 7 30.5 10t47.5 3l136 -1l69 -132l263 -512h87q9 -1 16 -1h14q6 1 12.5 1.5t13.5 1.5q6 1 11 2t11 3q5 1 10 2.5t11 3.5q-12 -14 -26 -25.5t-29 -21.5q-21 -14 -40.5 -23.5t-31.5 -15.5
q-11 -5 -30.5 -7t-42.5 -2h-5.5h-5.5q-17 0 -34 1t-30 2q-12 1 -20 2t-9 1l-134 252l-368 5l-110 -177q-6 -11 -12.5 -20.5t-13.5 -19.5q-14 -19 -31 -38t-38 -39q-14 -13 -26.5 -24t-24.5 -21q-14 -12 -29 -22.5t-33 -20.5q-8 -4 -17 -9t-19 -10h-1zM295 315l304 -1
l-139 264l-165 -263v0zM429 986l105 21q2 -1 4 -0.5t3 0.5q2 1 4 1t4 1h2h2h3t3 -1q1 0 2.5 -0.5t2.5 -0.5q8 -3 28.5 -18t44.5 -32q3 -2 5 -3.5t4 -2.5q7 -6 14.5 -10.5t14.5 -9.5l44 -27.5t40 -24.5q4 -3 8 -5.5t9 -4.5q17 -10 35 -20.5t39 -21.5h-7h-13q-18 0 -46 1
t-57 5q-16 2 -32 5t-30 7l-6 2l-6 2q-11 3 -21 6.5t-19 7.5q-11 5 -21.5 10t-23.5 11l-105 55l-81 -52q-4 -3 -7 -5.5t-7 -4.5q-5 -3 -10 -5.5t-11 -4.5q-7 -3 -13 -5t-12 -3q-5 -2 -10 -3l-10 -2q-2 -1 -4.5 -1t-5.5 -1l-86 -15q-4 -1 -7.5 -2t-7.5 -2h-2.5t-2.5 -1
q-7 -1 -13.5 -2.5t-10.5 -1.5h-2.5t-1.5 1v0.5v0.5l-1 1v0q0 2 1.5 4.5t4.5 5.5q2 2 5.5 5t7.5 5q2 1 4 2.5t4 2.5l164 99q4 1 7.5 3t6.5 4q5 3 9.5 5t9.5 4q6 2 11.5 4t10.5 4q6 2 12 3.5t14 2.5v1z" />
    <glyph glyph-name="macron" unicode="&#xca;" horiz-adv-x="838" 
d="M96 623l-2 -1q5 3 33 11.5t60 20.5q12 4 24 9t23 10q11 6 22 13t21 14q20 14 37.5 26.5t31.5 13.5q4 1 8.5 1h9.5q13 0 28.5 -1t32.5 -3q4 -1 8 -1.5t8 -0.5l228 -23q4 -1 25 -4t46 -10q26 -7 48 -18t23 -28v0v-1q0 -7 -3.5 -14t-9.5 -14q-4 -6 -10 -12l-12 -12
q-5 -5 -9.5 -10t-8.5 -10q-8 -11 -14.5 -19.5t-13.5 -17.5q0 -1 -1 -2l-1 -1l-14 -18t-15 -19q4 10 6 19t2 18q0 13 -3.5 25.5t-11.5 25.5q-15 26 -41 33t-55 9q-5 1 -10 1t-10 1l-207 24q-18 1 -35 2.5t-34 1.5q-19 0 -36 -2.5t-34 -9.5q-21 -9 -37.5 -53t-23.5 -95
q-2 -12 -3 -24t-1 -23l-2 -49l435 -15q8 -1 16 -1h15h11.5h11.5q11 0 23 1.5t26 3.5q9 2 17 3.5t15 2.5q8 2 15.5 4t16.5 5l2 -8q-7 -4 -19 -10.5t-27 -12.5q-12 -6 -25.5 -11t-27.5 -9q-2 0 -4.5 -0.5t-4.5 -1.5q-54 -12 -113.5 -16t-130.5 -5l-222 -2q11 -18 31.5 -42
t46.5 -50q21 -20 44.5 -39t48.5 -35q23 -14 44.5 -26.5t43.5 -22.5q31 -15 62.5 -23.5t66.5 -8.5q14 0 29 1.5t31 4.5q8 2 17.5 5t18.5 7q7 4 14.5 7.5t14.5 7.5q22 12 38 21.5t16 5.5t-3 -9t-8 -10q-4 -4 -9 -8t-10 -7q-1 -1 -2.5 -2t-3.5 -2l-123 -76q-11 -8 -21.5 -13
t-20.5 -8q-20 -7 -40 -10t-46 -4h-6h-6q-26 0 -55.5 5.5t-59.5 18.5q-23 9 -45.5 22.5t-43.5 30.5l-117 96q-56 44 -82 97.5t-26 123.5v16t1 16q1 12 2.5 25t4.5 25q8 47 22.5 88t29.5 57q1 1 2 1.5t2 1.5v1zM395 986l104 21q2 -1 4 -0.5t3 0.5q4 1 7 1.5t6 0.5h3t3 -1
q1 0 2.5 -0.5t2.5 -0.5q8 -3 28.5 -18t44.5 -32q3 -2 5 -3.5t4 -2.5q7 -6 14.5 -10.5t14.5 -9.5l44 -27.5t40 -24.5q4 -3 8 -5.5t9 -4.5q17 -10 35 -20.5t39 -21.5h-7h-13q-18 0 -46 1t-57 5q-16 2 -32 5t-30 7l-6 2l-6 2q-11 3 -21 6.5t-19 7.5q-11 5 -21.5 10t-23.5 11
l-105 55l-81 -52q-4 -3 -7 -5.5t-7 -4.5q-5 -3 -10 -5.5t-11 -4.5q-7 -3 -13 -5t-12 -3q-5 -2 -10 -3l-10 -2q-2 -1 -4.5 -1t-5.5 -1l-86 -15q-4 -1 -7.5 -2t-7.5 -2h-2.5t-2.5 -1q-7 -1 -13.5 -2.5t-10.5 -1.5h-2.5t-1.5 1v0.5v0.5l-1 1v0q0 2 1.5 4.5t4.5 5.5q2 2 5.5 5
t7.5 5q2 1 4 2.5t4 2.5l164 99q4 1 7.5 3t6.5 4q5 3 9.5 5t9.5 4q6 2 11.5 4t10.5 4q6 2 12 3.5t14 2.5v1z" />
    <glyph glyph-name="breve" unicode="&#xc1;" horiz-adv-x="1082" 
d="M-96 -140v-2q16 13 28 24.5t23 23.5q8 8 16 16.5t15 16.5q11 13 21 26.5t22 29.5q10 12 17 22.5t13 20.5l2 4t3 4q8 14 18.5 32.5t27.5 48.5l74 127h-63l90 42l206 353q-13 0 -24 0.5t-22 1.5h-8.5h-9.5h-12h-13q-14 0 -25.5 -1t-22.5 -2q-10 0 -20.5 -1.5t-22.5 -2.5
l9 9l8 8q5 5 10.5 9.5t11.5 8.5q5 3 10.5 6.5t12.5 7.5q10 6 18 10.5t16 8.5q14 7 30.5 10t47.5 3l136 -1l69 -132l263 -512h87q9 -1 16 -1h14q6 1 12.5 1.5t13.5 1.5q6 1 11 2t11 3q5 1 10 2.5t11 3.5q-12 -14 -26 -25.5t-29 -21.5q-21 -14 -40.5 -23.5t-31.5 -15.5
q-11 -5 -30.5 -7t-42.5 -2h-5.5h-5.5q-17 0 -34 1t-30 2q-12 1 -20 2t-9 1l-134 252l-368 5l-110 -177q-6 -11 -12.5 -20.5t-13.5 -19.5q-14 -19 -31 -38t-38 -39q-14 -13 -26.5 -24t-24.5 -21q-14 -12 -29 -22.5t-33 -20.5q-8 -4 -17 -9t-19 -10h-1zM295 315l304 -1
l-139 264l-165 -263v0zM556 980l-1 3l95 15q3 -1 6 -0.5t6 1.5h2h1q6 1 10.5 2t7.5 1h3.5t1.5 -1q1 -1 -2.5 -4.5t-9.5 -6.5q0 -1 -1 -1.5l-1 -0.5q-3 -2 -5 -3.5t-4 -2.5l-158 -100q-5 -4 -9.5 -6.5t-8.5 -5.5q-4 -2 -8.5 -4t-9.5 -4q-7 -3 -13 -5t-12 -3q-5 -2 -10 -3
l-10 -2q-2 -1 -4.5 -1t-5.5 -1l-86 -15q-4 -2 -8 -2.5t-8 -1.5q-1 0 -1.5 -0.5l-0.5 -0.5q-7 -1 -13.5 -2.5t-11.5 -1.5h-2.5t-2.5 1q-3 3 -1 6.5t7 7.5q2 1 4.5 3t5.5 4q2 2 5 3.5l5 2.5l164 99q4 1 7 3.5t6 4.5q5 3 9.5 5.5t10.5 4.5t11.5 3.5t10.5 2.5q4 1 8 1.5t8 1.5
q3 0 6 0.5t7 1.5v1z" />
    <glyph glyph-name="dotaccent" unicode="&#xcb;" horiz-adv-x="838" 
d="M96 623l-2 -1q5 3 33 11.5t60 20.5q12 4 24 9t23 10q11 6 22 13t21 14q20 14 37.5 26.5t31.5 13.5q4 1 8.5 1h9.5q13 0 28.5 -1t32.5 -3q4 -1 8 -1.5t8 -0.5l228 -23q4 -1 25 -4t46 -10q26 -7 48 -18t23 -28v0v-1q0 -7 -3.5 -14t-9.5 -14q-4 -6 -10 -12l-12 -12
q-5 -5 -9.5 -10t-8.5 -10q-8 -11 -14.5 -19.5t-13.5 -17.5q0 -1 -1 -2l-1 -1l-14 -18t-15 -19q4 10 6 19t2 18q0 13 -3.5 25.5t-11.5 25.5q-15 26 -41 33t-55 9q-5 1 -10 1t-10 1l-207 24q-18 1 -35 2.5t-34 1.5q-19 0 -36 -2.5t-34 -9.5q-21 -9 -37.5 -53t-23.5 -95
q-2 -12 -3 -24t-1 -23l-2 -49l435 -15q8 -1 16 -1h15h11.5h11.5q11 0 23 1.5t26 3.5q9 2 17 3.5t15 2.5q8 2 15.5 4t16.5 5l2 -8q-7 -4 -19 -10.5t-27 -12.5q-12 -6 -25.5 -11t-27.5 -9q-2 0 -4.5 -0.5t-4.5 -1.5q-54 -12 -113.5 -16t-130.5 -5l-222 -2q11 -18 31.5 -42
t46.5 -50q21 -20 44.5 -39t48.5 -35q23 -14 44.5 -26.5t43.5 -22.5q31 -15 62.5 -23.5t66.5 -8.5q14 0 29 1.5t31 4.5q8 2 17.5 5t18.5 7q7 4 14.5 7.5t14.5 7.5q22 12 38 21.5t16 5.5t-3 -9t-8 -10q-4 -4 -9 -8t-10 -7q-1 -1 -2.5 -2t-3.5 -2l-123 -76q-11 -8 -21.5 -13
t-20.5 -8q-20 -7 -40 -10t-46 -4h-6h-6q-26 0 -55.5 5.5t-59.5 18.5q-23 9 -45.5 22.5t-43.5 30.5l-117 96q-56 44 -82 97.5t-26 123.5v16t1 16q1 12 2.5 25t4.5 25q8 47 22.5 88t29.5 57q1 1 2 1.5t2 1.5v1zM341 1008v2l58 -54q1 -2 2 -3t3 -2q1 -2 2.5 -3t2.5 -3
q4 -4 7.5 -8t3.5 -7t-3 -7.5t-7 -9.5q-1 -1 -2.5 -2t-2.5 -3l-2.5 -2.5l-3.5 -3.5l-64 -64q-1 -2 -1.5 -2.5l-1.5 -1.5t-2.5 -2t-3.5 -2q-2 -2 -4.5 -3.5t-4.5 -1.5t-4 1t-4 3l-2 2l-2 2q-2 1 -3 2.5t-2 2.5l-64 67q-1 0 -2.5 1.5t-3.5 2.5l-2 2t-3 2q-4 4 -7 8t-3 9v3.5
t1 2.5q0 1 6 7t14 13l2 2l2 2q3 3 6 5.5t6 4.5l44 37q1 0 2.5 1.5t3.5 2.5q0 1 1 1.5t1 1.5q4 3 8.5 6t7.5 3v0h1v0v0q3 -1 7 -4t7 -7q2 -1 3.5 -2.5l2.5 -2.5v1zM613 1010v2l58 -54q1 -2 2 -3t3 -2q1 -2 2.5 -3t2.5 -3q4 -4 7.5 -8t3.5 -7t-3 -7.5t-7 -9.5q-1 -1 -2.5 -2
t-2.5 -3l-2.5 -2.5l-3.5 -3.5l-64 -64q-1 -2 -1.5 -2.5l-1.5 -1.5t-2.5 -2t-3.5 -2q-2 -2 -4.5 -3.5t-4.5 -1.5t-4 1t-4 3l-2 2l-2 2q-2 1 -3 2.5t-2 2.5l-64 67q-2 1 -3.5 2.5t-3.5 2.5q-1 1 -2 1.5t-2 1.5q-4 4 -7.5 8t-3.5 9v3.5t1 2.5q0 1 6.5 7t14.5 13q1 1 1.5 2
t1.5 1q4 3 7 6t6 5l44 37q1 0 2.5 1.5t3.5 2.5q0 1 1 1.5t1 1.5q4 3 8.5 6t7.5 3v0h1v0v0q3 -1 7 -4t7 -7q2 -1 3.5 -2.5l2.5 -2.5v1z" />
    <glyph glyph-name="ring" unicode="&#xc8;" horiz-adv-x="838" 
d="M96 623l-2 -1q5 3 33 11.5t60 20.5q12 4 24 9t23 10q11 6 22 13t21 14q20 14 37.5 26.5t31.5 13.5q4 1 8.5 1h9.5q13 0 28.5 -1t32.5 -3q4 -1 8 -1.5t8 -0.5l228 -23q4 -1 25 -4t46 -10q26 -7 48 -18t23 -28v0v-1q0 -7 -3.5 -14t-9.5 -14q-4 -6 -10 -12l-12 -12
q-5 -5 -9.5 -10t-8.5 -10q-8 -11 -14.5 -19.5t-13.5 -17.5q0 -1 -1 -2l-1 -1l-14 -18t-15 -19q4 10 6 19t2 18q0 13 -3.5 25.5t-11.5 25.5q-15 26 -41 33t-55 9q-5 1 -10 1t-10 1l-207 24q-18 1 -35 2.5t-34 1.5q-19 0 -36 -2.5t-34 -9.5q-21 -9 -37.5 -53t-23.5 -95
q-2 -12 -3 -24t-1 -23l-2 -49l435 -15q8 -1 16 -1h15h11.5h11.5q11 0 23 1.5t26 3.5q9 2 17 3.5t15 2.5q8 2 15.5 4t16.5 5l2 -8q-7 -4 -19 -10.5t-27 -12.5q-12 -6 -25.5 -11t-27.5 -9q-2 0 -4.5 -0.5t-4.5 -1.5q-54 -12 -113.5 -16t-130.5 -5l-222 -2q11 -18 31.5 -42
t46.5 -50q21 -20 44.5 -39t48.5 -35q23 -14 44.5 -26.5t43.5 -22.5q31 -15 62.5 -23.5t66.5 -8.5q14 0 29 1.5t31 4.5q8 2 17.5 5t18.5 7q7 4 14.5 7.5t14.5 7.5q22 12 38 21.5t16 5.5t-3 -9t-8 -10q-4 -4 -9 -8t-10 -7q-1 -1 -2.5 -2t-3.5 -2l-123 -76q-11 -8 -21.5 -13
t-20.5 -8q-20 -7 -40 -10t-46 -4h-6h-6q-26 0 -55.5 5.5t-59.5 18.5q-23 9 -45.5 22.5t-43.5 30.5l-117 96q-56 44 -82 97.5t-26 123.5v16t1 16q1 12 2.5 25t4.5 25q8 47 22.5 88t29.5 57q1 1 2 1.5t2 1.5v1zM476 842h1q-3 0 -6 1l-6 2q-11 3 -21 6.5t-19 7.5
q-11 5 -21.5 10t-23.5 11l-110 58q-1 0 -2 0.5t-2 0.5q-7 4 -12.5 9t-5.5 11q0 3 4 5.5t10 4.5q5 2 10 3.5t11 3.5l63 22q1 -1 2.5 -0.5t2.5 1.5q4 2 8.5 3.5t8.5 1.5h2h2l1 -0.5t2 -0.5q8 -3 28.5 -18t44.5 -32q3 -2 5 -3.5t4 -2.5q7 -6 14.5 -10.5t14.5 -9.5
q25 -15 45.5 -28t40.5 -25q4 -2 8 -4.5t8 -4.5q17 -10 35 -20.5t39 -21.5h-7h-13q-18 0 -46.5 1t-59.5 5q-15 2 -30.5 5t-29.5 7v1z" />
    <glyph glyph-name="cedilla" unicode="&#xcd;" horiz-adv-x="389" 
d="M180 671v-161v-512l-137 68v162v512h201l104 -69h-168v0zM271 981l-1 3l95 15q3 -1 6 -0.5t6 1.5h2h1q6 1 10.5 2t7.5 1h3.5t1.5 -1q1 -1 -2.5 -4.5t-9.5 -6.5q0 -1 -1 -1.5l-1 -0.5q-3 -2 -5 -3.5t-4 -2.5l-158 -100q-4 -3 -7 -5.5t-7 -4.5q-5 -3 -10 -5.5t-11 -4.5
q-7 -3 -13 -5t-12 -3q-5 -2 -10 -3l-10 -2q-2 -1 -4.5 -1t-5.5 -1l-86 -15q-4 -2 -8 -2.5t-8 -1.5q-1 0 -1.5 -0.5l-0.5 -0.5q-7 -1 -13.5 -2.5t-11.5 -1.5h-2t-2 1q-3 3 -1 6.5t6 7.5q2 1 4.5 3t5.5 4q2 2 5 3.5l5 2.5l164 99q4 1 7.5 3.5t6.5 4.5q4 3 8.5 5.5t9.5 4.5
q6 2 11.5 3.5t10.5 2.5q4 1 8 1.5t8 1.5q3 0 6 0.5t7 1.5v1z" />
    <glyph glyph-name="hungarumlaut" unicode="&#xce;" horiz-adv-x="400" 
d="M186 671v-161v-512l-137 68v162v512h201l104 -69h-168v0zM117 992l104 21q2 -1 4 -0.5t3 0.5q2 1 4 1t4 1h2h2h3t3 -1q1 0 2.5 -0.5t2.5 -0.5q8 -3 28.5 -18t44.5 -32q3 -2 5 -3.5t4 -2.5q7 -6 14.5 -10.5t14.5 -9.5q23 -15 43 -27.5t39 -23.5q5 -3 9.5 -5.5t9.5 -5.5
q17 -10 35.5 -20.5t39.5 -21.5h-7.5h-12.5q-18 0 -45.5 1t-57.5 5q-16 2 -32.5 5t-30.5 7l-6 2l-6 2q-11 3 -21 6.5t-19 7.5q-11 5 -21.5 10t-23.5 11l-104 55l-81 -52q-4 -3 -7 -5.5t-7 -4.5q-5 -3 -10 -5.5t-11 -4.5q-7 -3 -13 -5t-12 -3q-5 -2 -9.5 -3t-9.5 -2
q-2 -1 -4.5 -1t-5.5 -1l-87 -15q-3 -1 -6.5 -2t-7.5 -2h-2.5t-2.5 -1q-7 -1 -13.5 -2.5t-10.5 -1.5h-3t-1 1v0.5t-1 0.5v1v0q0 2 1.5 4.5t4.5 5.5q2 2 5.5 5t7.5 5q2 1 4 2.5t4 2.5l163 99q4 1 7.5 3t6.5 4q5 3 9.5 5t9.5 4q6 2 11.5 4t10.5 4q6 2 12 3.5t14 2.5v1z" />
    <glyph glyph-name="ogonek" unicode="&#xcf;" horiz-adv-x="393" 
d="M178 672v-161v-512l-137 68v162v512h201l104 -69h-168v0zM70 1009v2l58 -54q1 -2 2 -3t3 -2q1 -2 2.5 -3t2.5 -3q4 -4 7.5 -8t3.5 -7t-3 -7.5t-7 -9.5q-1 -1 -2.5 -2t-2.5 -3l-2.5 -2.5l-3.5 -3.5l-64 -64q-1 -2 -1.5 -2.5l-1.5 -1.5t-2.5 -2t-3.5 -2q-2 -2 -4.5 -3.5
t-4.5 -1.5t-4 1t-4 3l-2 2l-2 2q-2 1 -3 2.5t-2 2.5l-64 67l-1.5 1.5t-3.5 2.5l-2 2t-3 2q-4 4 -7 8t-3 9v3.5t1 2.5q0 1 6 7t14 13l2 2l2 2q3 3 6 5.5t6 4.5l43 37q1 0 2.5 1.5t3.5 2.5q0 1 1 1.5t1 1.5q4 3 8.5 6t7.5 3v0h1v0v0q3 -1 7 -4t7 -7q2 -1 3.5 -2.5l2.5 -2.5v1z
M341 1011v2l58 -54q1 -2 2 -3t3 -2q1 -2 2.5 -3t2.5 -3q4 -4 7.5 -8t3.5 -7t-3 -7.5t-7 -9.5q-1 -1 -2.5 -2t-2.5 -3l-2.5 -2.5l-3.5 -3.5l-64 -64q-1 -2 -1.5 -2.5l-1.5 -1.5t-2.5 -2t-3.5 -2q-2 -2 -4.5 -3.5t-4.5 -1.5t-4 1t-4 3l-2 2l-2 2q-2 1 -3 2.5t-2 2.5l-64 67
q-1 0 -2.5 1.5t-3.5 2.5l-2 2t-3 2q-4 4 -7 8t-3 9v3.5t1 2.5q0 1 6 7t14 13l2 2l2 2q3 3 6 5.5t6 4.5l44 37q1 0 2.5 1.5t3.5 2.5q0 1 1 1.5t1 1.5q4 3 8.5 6t7.5 3v0h1v0v0q3 -1 7 -4t7 -7q2 -1 3.5 -2.5l2.5 -2.5v1z" />
    <glyph glyph-name="caron" unicode="&#xcc;" horiz-adv-x="396" 
d="M184 668v-161v-512l-137 68v162v512h201l104 -69h-168v0zM205 843h1q-3 0 -6 1l-6 2q-11 3 -21 6.5t-19 7.5q-11 5 -21.5 10t-23.5 11l-110 58l-1 0.5t-2 0.5q-7 4 -12.5 9t-5.5 11q0 3 4 5.5t10 4.5q5 2 9.5 3.5l10.5 3.5l63 22q1 -1 2.5 -0.5t2.5 1.5q4 2 8.5 3.5
t8.5 1.5h2h2l1 -0.5t2 -0.5q8 -3 28.5 -18t44.5 -32q3 -2 5 -3.5t4 -2.5q7 -6 14.5 -10.5t14.5 -9.5l44 -27.5t40 -24.5q4 -3 8 -5.5t9 -4.5q17 -10 35 -20.5t39 -21.5h-7h-13q-18 0 -46 1t-57 5q-16 2 -32 5t-30 7v1z" />
    <glyph glyph-name="Lslash" unicode="&#xd3;" horiz-adv-x="856" 
d="M560 736l-2 -1q118 -35 191 -122t74 -211v-2.5v-2.5v-3v-3q0 -81 -25.5 -146t-94.5 -110l-141 -92q-43 -29 -86 -42t-87 -13q-42 0 -84.5 11.5t-86.5 33.5q-91 48 -139.5 128.5t-48.5 178.5q0 17 1 33.5t4 32.5q13 80 44.5 137.5t100.5 98.5l141 85q22 12 53 18.5t67 6.5
q21 0 43.5 -2t45.5 -7q7 -2 15 -4t15 -4v1zM181 268l1 -1q5 -16 26.5 -38.5t55.5 -47.5q37 -27 84.5 -52t97.5 -39q20 -5 40 -8t39 -3q30 0 58 8.5t51 28.5q26 23 43 80t17 125q0 10 -0.5 20.5t-1.5 20.5q-4 50 -19 97.5t-45 84.5q-31 39 -80 64.5t-101 38.5
q-37 10 -72.5 14.5t-64.5 4.5q-28 0 -48 -3.5t-29 -9.5q-30 -20 -50.5 -91.5t-20.5 -154.5v-10v-11q1 -31 5.5 -61t13.5 -58v1zM482 983l-1 3l96 15q3 -1 6 -0.5t6 1.5h2h1q6 1 10.5 2t7.5 1h3.5t1.5 -1q1 -1 -2.5 -4.5t-9.5 -6.5q0 -1 -1 -1.5l-1 -0.5q-3 -2 -5 -3.5
t-4 -2.5l-159 -100q-4 -3 -7 -5.5t-7 -4.5q-5 -3 -10 -5.5t-11 -4.5q-7 -3 -13 -5t-12 -3q-5 -2 -10 -3l-10 -2q-2 -1 -4.5 -1t-5.5 -1l-86 -15q-4 -2 -8 -2.5t-8 -1.5q-1 0 -1.5 -0.5l-0.5 -0.5q-7 -1 -13.5 -2.5t-11.5 -1.5h-2.5t-2.5 1q-3 3 -1 6.5t7 7.5q2 1 4.5 3
t5.5 4q2 2 5 3.5l5 2.5l164 99q4 1 7.5 3.5t6.5 4.5q4 3 8.5 5.5t9.5 4.5q6 2 11.5 3.5t10.5 2.5q4 1 8 1.5t8 1.5q3 0 6 0.5t7 1.5v1z" />
    <glyph glyph-name="lslash" unicode="&#xd4;" horiz-adv-x="856" 
d="M560 736l-2 -1q118 -35 191 -122t74 -211v-2.5v-2.5v-3v-3q0 -81 -25.5 -146t-94.5 -110l-141 -92q-43 -29 -86 -42t-87 -13q-42 0 -84.5 11.5t-86.5 33.5q-91 48 -139.5 128.5t-48.5 178.5q0 17 1 33.5t4 32.5q13 80 44.5 137.5t100.5 98.5l141 85q22 12 53 18.5t67 6.5
q21 0 43.5 -2t45.5 -7q7 -2 15 -4t15 -4v1zM181 268l1 -1q5 -16 26.5 -38.5t55.5 -47.5q37 -27 84.5 -52t97.5 -39q20 -5 40 -8t39 -3q30 0 58 8.5t51 28.5q26 23 43 80t17 125q0 10 -0.5 20.5t-1.5 20.5q-4 50 -19 97.5t-45 84.5q-31 39 -80 64.5t-101 38.5
q-37 10 -72.5 14.5t-64.5 4.5q-28 0 -48 -3.5t-29 -9.5q-30 -20 -50.5 -91.5t-20.5 -154.5v-10v-11q1 -31 5.5 -61t13.5 -58v1zM383 985l104 21q2 -1 4 -0.5t3 0.5q4 1 7 1.5t6 0.5h3t3 -1q1 0 2.5 -0.5t2.5 -0.5q8 -3 28.5 -18t44.5 -32q3 -2 5 -3.5t4 -2.5
q7 -6 14.5 -10.5t14.5 -9.5l44 -27.5t40 -24.5q4 -3 8 -5.5t9 -4.5q17 -10 35 -20.5t39 -21.5h-7h-13q-18 0 -46 1t-57 5q-16 2 -32 5t-30 7l-6 2l-6 2q-11 3 -21 6.5t-19 7.5q-11 5 -21.5 10t-23.5 11l-105 55l-81 -52q-4 -3 -7 -5.5t-7 -4.5q-5 -3 -10 -5.5t-11 -4.5
q-7 -3 -13 -5t-12 -3q-5 -2 -10 -3l-10 -2q-2 -1 -4.5 -1t-5.5 -1l-86 -15q-4 -1 -7.5 -2t-7.5 -2h-2.5t-2.5 -1q-7 -1 -13.5 -2.5t-10.5 -1.5h-2.5t-1.5 1v0.5v0.5l-1 1v0q0 2 1.5 4.5t4.5 5.5q2 2 5.5 5t7.5 5q2 1 4 2.5t4 2.5l164 99q4 1 7.5 3t6.5 4q5 3 9.5 5t9.5 4
q6 2 11.5 4t10.5 4q6 2 12 3.5t14 2.5v1z" />
    <glyph glyph-name="Scaron" unicode="&#xf000;" 
 />
    <glyph glyph-name="scaron" unicode="&#xd2;" 
 />
    <glyph glyph-name="Eth" unicode="&#xda;" horiz-adv-x="1068" 
d="M214 406l-1 -3q1 -12 3 -24t5 -23q22 -70 88 -135.5t141 -104.5q37 -20 74 -31.5t68 -11.5h2h2h2h2q40 2 65 12.5t39 22.5q16 14 21 25l5 11v509l-180 2l68 50q3 1 5.5 3t5.5 4q5 3 10.5 6t11.5 5l8 2l8 2t9 1.5t11 0.5l182 1l2 -146l3 -512l162 -6l-71 -54
q-1 -2 -2.5 -3t-3.5 -2q-4 -3 -8.5 -5t-10.5 -4q-4 -1 -7.5 -2t-6.5 -1h-7h-7h-2.5h-3.5l-173 3v102l-104 -60q-10 -7 -19.5 -12t-19.5 -9q-38 -19 -76 -28.5t-73 -9.5q-7 0 -14.5 0.5t-15.5 1.5q-24 3 -66 26t-87 60q-62 50 -114.5 119t-61.5 141q-1 5 -1.5 9.5t-0.5 8.5v3
v2q0 56 32 114t70 122q2 2 3.5 4.5t2.5 4.5l33 57l-191 3q10 8 23 17t26 16q26 15 48 25t25 11q7 2 20 3t29 1q11 0 23.5 -0.5t25.5 -0.5l28 -2t27 -2q20 -2 34.5 -3.5t15.5 -1.5q-2 -1 -23.5 -36t-46.5 -83q-8 -13 -15 -27.5t-14 -28.5q-17 -38 -29.5 -74.5t-12.5 -61.5
v-0.5v-1.5v-1.5v-0.5v1zM623 978l-1 3l95 15q3 -1 6 -0.5t6 1.5h2h1q6 1 10.5 2t7.5 1h3.5t1.5 -1q1 -1 -2.5 -4.5t-9.5 -6.5q0 -1 -1 -1.5l-1 -0.5q-3 -2 -5 -3.5t-4 -2.5l-158 -100q-4 -3 -7 -5.5t-7 -4.5q-5 -3 -10 -5.5t-11 -4.5q-6 -3 -12 -4.5t-12 -3.5
q-5 -1 -10.5 -2.5t-11.5 -2.5q-2 -1 -4.5 -1t-5.5 -1l-86 -15q-4 -2 -8 -2.5t-8 -1.5q-1 0 -1.5 -0.5l-0.5 -0.5q-7 -1 -13.5 -2.5t-11.5 -1.5h-2.5t-2.5 1q-3 3 -1 6.5t7 7.5q2 1 4.5 3t5.5 4q2 2 5 3.5l5 2.5l165 99q4 1 7.5 3.5t6.5 4.5q4 3 8.5 5.5t9.5 4.5
q6 2 11.5 3.5t10.5 2.5q4 1 8 1.5t8 1.5q3 0 6 0.5t7 1.5v1z" />
    <glyph glyph-name="eth" unicode="&#xdb;" horiz-adv-x="1068" 
d="M214 406l-1 -3q1 -12 3 -24t5 -23q22 -70 88 -135.5t141 -104.5q37 -20 74 -31.5t68 -11.5h2h2h2h2q40 2 65 12.5t39 22.5q16 14 21 25l5 11v509l-180 2l68 50q3 1 5.5 3t5.5 4q5 3 10.5 6t11.5 5l8 2l8 2t9 1.5t11 0.5l182 1l2 -146l3 -512l162 -6l-71 -54
q-1 -2 -2.5 -3t-3.5 -2q-4 -3 -8.5 -5t-10.5 -4q-4 -1 -7.5 -2t-6.5 -1h-7h-7h-2.5h-3.5l-173 3v102l-104 -60q-10 -7 -19.5 -12t-19.5 -9q-38 -19 -76 -28.5t-73 -9.5q-7 0 -14.5 0.5t-15.5 1.5q-24 3 -66 26t-87 60q-62 50 -114.5 119t-61.5 141q-1 5 -1.5 9.5t-0.5 8.5v3
v2q0 56 32 114t70 122q2 2 3.5 4.5t2.5 4.5l33 57l-191 3q10 8 23 17t26 16q26 15 48 25t25 11q7 2 20 3t29 1q11 0 23.5 -0.5t25.5 -0.5l28 -2t27 -2q20 -2 34.5 -3.5t15.5 -1.5q-2 -1 -23.5 -36t-46.5 -83q-8 -13 -15 -27.5t-14 -28.5q-17 -38 -29.5 -74.5t-12.5 -61.5
v-0.5v-1.5v-1.5v-0.5v1zM460 984l105 21q2 -1 4 -0.5t3 0.5q2 1 4 1t4 1h2h2h3t3 -1q1 0 2.5 -0.5t2.5 -0.5q8 -3 28.5 -18t44.5 -32q3 -2 5 -3.5t4 -2.5q7 -6 14.5 -10.5t14.5 -9.5l44 -27.5t40 -24.5q4 -3 8 -5.5t9 -4.5q17 -10 35 -20.5t39 -21.5h-7h-13q-18 0 -46 1
t-57 5q-16 2 -32 5t-30 7l-6 2l-6 2q-11 3 -21 6.5t-19 7.5q-11 5 -21.5 10t-23.5 11l-105 55l-81 -52q-4 -3 -7 -5.5t-7 -4.5q-5 -3 -10 -5.5t-11 -4.5q-7 -3 -13 -5t-12 -3q-5 -2 -10 -3l-10 -2q-2 -1 -4.5 -1t-5.5 -1l-86 -15q-4 -1 -7.5 -2t-7.5 -2h-2.5t-2.5 -1
q-7 -1 -13.5 -2.5t-10.5 -1.5h-2.5t-1.5 1v0.5v0.5l-1 1v0q0 2 1.5 4.5t4.5 5.5q2 2 5.5 5t7.5 5q2 1 4 2.5t4 2.5l164 99q4 1 7.5 3t6.5 4q5 3 9.5 5t9.5 4q6 2 11.5 4t10.5 4q6 2 12 3.5t14 2.5v1z" />
    <glyph glyph-name="Thorn" unicode="&#xd9;" horiz-adv-x="1068" 
d="M214 406l-1 -3q1 -12 3 -24t5 -23q22 -70 88 -135.5t141 -104.5q37 -20 74 -31.5t68 -11.5h2h2h2h2q40 2 65 12.5t39 22.5q16 14 21 25l5 11v509l-180 2l68 50q3 1 5.5 3t5.5 4q5 3 10.5 6t11.5 5l8 2l8 2t9 1.5t11 0.5l182 1l2 -146l3 -512l162 -6l-71 -54
q-1 -2 -2.5 -3t-3.5 -2q-4 -3 -8.5 -5t-10.5 -4q-4 -1 -7.5 -2t-6.5 -1h-7h-7h-2.5h-3.5l-173 3v102l-104 -60q-10 -7 -19.5 -12t-19.5 -9q-38 -19 -76 -28.5t-73 -9.5q-7 0 -14.5 0.5t-15.5 1.5q-24 3 -66 26t-87 60q-62 50 -114.5 119t-61.5 141q-1 5 -1.5 9.5t-0.5 8.5v3
v2q0 56 32 114t70 122q2 2 3.5 4.5t2.5 4.5l33 57l-191 3q10 8 23 17t26 16q26 15 48 25t25 11q7 2 20 3t29 1q11 0 23.5 -0.5t25.5 -0.5l28 -2t27 -2q20 -2 34.5 -3.5t15.5 -1.5q-2 -1 -23.5 -36t-46.5 -83q-8 -13 -15 -27.5t-14 -28.5q-17 -38 -29.5 -74.5t-12.5 -61.5
v-0.5v-1.5v-1.5v-0.5v1zM537 840h1q-3 0 -6 1l-6 2q-12 3 -22.5 7t-20.5 8t-20.5 9t-22.5 11l-110 58q-1 0 -2 0.5t-2 0.5q-7 4 -12.5 9t-5.5 11q0 3 4 5.5t10 4.5q5 2 10 3.5t11 3.5l63 22q1 -1 2.5 -0.5t2.5 1.5q4 2 8.5 3.5t8.5 1.5h2h2l1 -0.5t2 -0.5q8 -3 29 -18
t45 -32q2 -2 4 -3l4 -2q7 -6 15 -11t15 -10l44 -27.5t40 -24.5q4 -3 8 -5.5t9 -4.5q17 -10 35 -20.5t39 -21.5h-7h-13q-18 0 -46 1t-57 5q-16 2 -32 5t-30 7v1z" />
    <glyph glyph-name="thorn" unicode="&#x131;" horiz-adv-x="500" 
 />
    <glyph glyph-name="onehalf" unicode="&#x2dc;" horiz-adv-x="500" 
 />
    <glyph glyph-name="arrowright" unicode="&#x2c6;" horiz-adv-x="500" 
 />
    <glyph glyph-name="house" unicode="&#x2c9;" horiz-adv-x="500" 
 />
    <glyph glyph-name="endash" unicode="&#x2d8;" horiz-adv-x="500" 
 />
    <glyph glyph-name="sfthyphen" unicode="&#x2d9;" horiz-adv-x="500" 
 />
    <glyph glyph-name="filledbox" unicode="&#x2da;" horiz-adv-x="500" 
 />
    <glyph glyph-name="bullet" unicode="&#xb8;" horiz-adv-x="500" 
 />
    <glyph glyph-name="uni02BA" unicode="&#x2ba;" horiz-adv-x="500" 
 />
    <glyph glyph-name="glyph223" unicode="&#x2db;" horiz-adv-x="500" 
 />
    <glyph glyph-name="glyph224" unicode="&#x2c7;" horiz-adv-x="500" 
 />
    <glyph glyph-name="glyph225" unicode="&#x141;" horiz-adv-x="500" 
 />
    <glyph glyph-name="glyph226" unicode="&#x142;" horiz-adv-x="500" 
 />
    <glyph glyph-name="glyph227" unicode="&#x160;" horiz-adv-x="500" 
 />
    <glyph glyph-name="glyph228" unicode="&#x161;" horiz-adv-x="500" 
 />
    <glyph glyph-name="Zcaron" unicode="&#x17d;" 
 />
    <glyph glyph-name="zcaron" unicode="&#x17e;" 
 />
    <glyph glyph-name="brokenbar" unicode="&#xa6;" 
 />
    <glyph glyph-name="glyph232" unicode="&#xd0;" horiz-adv-x="500" 
 />
    <glyph glyph-name="glyph233" unicode="&#xf0;" horiz-adv-x="500" 
 />
    <glyph glyph-name="Yacute" unicode="&#xdd;" 
 />
    <glyph glyph-name="yacute" unicode="&#xfd;" 
 />
    <glyph glyph-name="glyph236" unicode="&#xde;" horiz-adv-x="500" 
 />
    <glyph glyph-name="glyph237" unicode="&#xfe;" horiz-adv-x="500" 
 />
    <glyph glyph-name="minus" unicode="&#x2212;" 
 />
    <glyph glyph-name="multiply" unicode="&#xd7;" 
 />
    <glyph glyph-name="uni00B9" unicode="&#xb9;" 
 />
    <glyph glyph-name="uni00B2" unicode="&#xb2;" 
 />
    <glyph glyph-name="uni00B3" unicode="&#xb3;" 
 />
    <glyph glyph-name="glyph243" unicode="&#xbd;" horiz-adv-x="500" 
 />
    <glyph glyph-name="onequarter" unicode="&#xbc;" 
 />
    <glyph glyph-name="threequarters" unicode="&#xbe;" 
 />
    <glyph glyph-name="franc" unicode="&#x20a3;" 
 />
    <glyph glyph-name="Gbreve" unicode="&#x11e;" 
 />
    <glyph glyph-name="gbreve" unicode="&#x11f;" 
 />
    <glyph glyph-name="Idotaccent" unicode="&#x130;" 
 />
    <glyph glyph-name="Scedilla" unicode="&#x15e;" 
 />
    <glyph glyph-name="scedilla" unicode="&#x15f;" 
 />
    <glyph glyph-name="Cacute" unicode="&#x106;" 
 />
    <glyph glyph-name="cacute" unicode="&#x107;" 
 />
    <glyph glyph-name="Ccaron" unicode="&#x10c;" 
 />
    <glyph glyph-name="ccaron" unicode="&#x10d;" 
 />
    <glyph glyph-name="dcroat" unicode="&#x111;" 
 />
    <glyph glyph-name="glyph257" unicode="&#x2192;" horiz-adv-x="500" 
 />
    <glyph glyph-name="glyph258" unicode="&#x2302;" 
 />
    <glyph glyph-name="glyph259" unicode="&#x2013;" horiz-adv-x="686" 
d="M147 425h472q0 -1 0.5 -1h0.5h8t12 -1q8 -1 14.5 -3.5t6.5 -7.5v-0.5v-1.5t-0.5 -1.5l-0.5 -0.5q-1 -2 -13.5 -11.5t-27.5 -20.5q-1 -1 -1.5 -1t-0.5 -1q-5 -4 -10 -7.5t-10 -7.5q-6 -5 -11.5 -9.5t-10.5 -8.5q-1 -1 -2.5 -2t-2.5 -2q-5 -5 -10.5 -9.5t-11.5 -10.5
l-485 1q-1 -1 -3 -1h-3h-3.5h-3.5q-8 0 -14.5 1.5t-7.5 5.5q-1 5 12 14.5t28 20.5q2 1 4 2.5t4 2.5q5 3 9 6.5t8 6.5q7 6 13 11l12 10l2 2l2 2q6 5 12 10.5t13 11.5v1z" />
    <glyph glyph-name="uni00AD" unicode="&#xad;" horiz-adv-x="500" 
 />
    <glyph glyph-name="glyph261" unicode="&#x25a0;" horiz-adv-x="500" 
 />
    <glyph glyph-name="glyph262" unicode="&#x2022;" horiz-adv-x="500" 
 />
    <glyph glyph-name="glyph263" unicode="&#xaf;" 
 />
    <glyph glyph-name="glyph264" unicode="&#xb0;" 
 />
    <glyph glyph-name="glyph265" unicode="&#xb7;" 
 />
    <glyph glyph-name="underscoredbl" unicode="&#x2017;" 
 />
    <glyph glyph-name="exclamdbl" unicode="&#x203c;" 
 />
    <glyph glyph-name="uni207F" unicode="&#x207f;" 
 />
    <glyph glyph-name="peseta" unicode="&#x20a7;" 
 />
    <glyph glyph-name="Gamma" unicode="&#x393;" 
 />
    <glyph glyph-name="Theta" unicode="&#x398;" 
 />
    <glyph glyph-name="Phi" unicode="&#x3a6;" 
 />
    <glyph glyph-name="alpha" unicode="&#x3b1;" 
 />
    <glyph glyph-name="delta" unicode="&#x3b4;" 
 />
    <glyph glyph-name="epsilon" unicode="&#x3b5;" 
 />
    <glyph glyph-name="sigma" unicode="&#x3c3;" 
 />
    <glyph glyph-name="tau" unicode="&#x3c4;" 
 />
    <glyph glyph-name="phi" unicode="&#x3c6;" 
 />
    <glyph glyph-name="arrowleft" unicode="&#x2190;" 
 />
    <glyph glyph-name="arrowup" unicode="&#x2191;" 
 />
    <glyph glyph-name="arrowdown" unicode="&#x2193;" 
 />
    <glyph glyph-name="arrowboth" unicode="&#x2194;" 
 />
    <glyph glyph-name="arrowupdn" unicode="&#x2195;" 
 />
    <glyph glyph-name="arrowupdnbse" unicode="&#x21a8;" 
 />
    <glyph glyph-name="orthogonal" unicode="&#x221f;" 
 />
    <glyph glyph-name="intersection" unicode="&#x2229;" 
 />
    <glyph glyph-name="equivalence" unicode="&#x2261;" 
 />
    <glyph glyph-name="revlogicalnot" unicode="&#x2310;" 
 />
    <glyph glyph-name="integraltp" unicode="&#x2320;" 
 />
    <glyph glyph-name="integralbt" unicode="&#x2321;" 
 />
    <glyph glyph-name="filledrect" unicode="&#x25ac;" 
 />
    <glyph glyph-name="circle" unicode="&#x25cb;" 
 />
    <glyph glyph-name="triagup" unicode="&#x25b2;" 
 />
    <glyph glyph-name="triagrt" unicode="&#x25ba;" 
 />
    <glyph glyph-name="triagdn" unicode="&#x25bc;" 
 />
    <glyph glyph-name="triaglf" unicode="&#x25c4;" 
 />
    <glyph glyph-name="invbullet" unicode="&#x25d8;" 
 />
    <glyph glyph-name="invcircle" unicode="&#x25d9;" 
 />
    <glyph glyph-name="Rcaron" unicode="&#x158;" 
 />
    <glyph glyph-name="upblock" unicode="&#x2580;" 
 />
    <glyph glyph-name="dnblock" unicode="&#x2584;" 
 />
    <glyph glyph-name="block" unicode="&#x2588;" 
 />
    <glyph glyph-name="lfblock" unicode="&#x258c;" 
 />
    <glyph glyph-name="rtblock" unicode="&#x2590;" 
 />
    <glyph glyph-name="ltshade" unicode="&#x2591;" 
 />
    <glyph glyph-name="shade" unicode="&#x2592;" 
 />
    <glyph glyph-name="dkshade" unicode="&#x2593;" 
 />
    <glyph glyph-name="smileface" unicode="&#x263a;" 
 />
    <glyph glyph-name="invsmileface" unicode="&#x263b;" 
 />
    <glyph glyph-name="sun" unicode="&#x263c;" 
 />
    <glyph glyph-name="female" unicode="&#x2640;" 
 />
    <glyph glyph-name="male" unicode="&#x2642;" 
 />
    <glyph glyph-name="spade" unicode="&#x2660;" 
 />
    <glyph glyph-name="club" unicode="&#x2663;" 
 />
    <glyph glyph-name="heart" unicode="&#x2665;" 
 />
    <glyph glyph-name="diamond" unicode="&#x2666;" 
 />
    <glyph glyph-name="musicalnote" unicode="&#x266a;" 
 />
    <glyph glyph-name="musicalnotedbl" unicode="&#x266b;" 
 />
    <glyph glyph-name="Abreve" unicode="&#x102;" 
 />
    <glyph glyph-name="abreve" unicode="&#x103;" 
 />
    <glyph glyph-name="Aogonek" unicode="&#x104;" 
 />
    <glyph glyph-name="aogonek" unicode="&#x105;" 
 />
    </font>
</defs>
</svg>
